<svg width="170" height="33" viewBox="0 0 170 33" fill="none" xmlns="http://www.w3.org/2000/svg">
<mask id="mask0_4_203" style="mask-type:luminance" maskUnits="userSpaceOnUse" x="1" y="1" width="168" height="31">
<path d="M168.866 1.72108H1.13367V31.321H168.866V1.72108Z" fill="white"/>
</mask>
<g mask="url(#mask0_4_203)">
<path d="M12.4275 1.72108C12.4896 1.78314 12.924 1.90725 12.986 1.90725C13.1722 1.90725 13.4204 1.90725 13.6066 1.90725C13.9789 1.90725 14.4133 1.9693 15.0338 2.21752C15.0959 2.21752 15.0959 2.21752 15.1579 2.21752C15.7164 2.34163 16.2129 2.71395 16.7093 2.96217L16.7713 3.02422C17.1437 3.39655 17.516 3.70682 17.8883 4.07915C17.9504 4.1412 18.0745 4.26531 18.1365 4.38942C18.1986 4.45147 18.1986 4.57558 18.2606 4.63763C18.4468 4.8238 18.5709 5.00996 18.7571 5.19612C18.8191 5.25818 18.8812 5.32023 18.8812 5.44434C18.9432 5.81667 19.2535 6.18899 19.1915 6.56132C19.1915 6.68543 19.1915 6.74748 19.1915 6.80953C19.0674 7.05775 19.0053 7.30597 18.9432 7.49213C18.8191 7.74035 18.7571 7.98857 18.5089 8.11267C18.3227 8.17473 18.2606 8.36089 18.0745 8.485C17.8883 8.67116 17.7022 8.73322 17.516 8.85733C17.3298 8.91938 17.2678 8.91938 17.1437 8.85733C16.6472 8.60911 16.2749 8.29884 16.0887 7.8024C15.7785 7.11981 15.3441 6.56132 14.7856 6.12694C14.4753 5.87872 14.103 5.6305 13.6686 5.6305C13.6066 5.6305 13.5445 5.6305 13.5445 5.56845C13.1101 5.38229 12.6758 5.44434 12.2414 5.56845C11.9311 5.69256 11.5588 5.75461 11.3106 5.94077C11.2485 5.94077 11.1865 5.94077 11.1865 5.94077C11.0003 6.06488 10.9382 6.18899 10.7521 6.3131C10.5039 6.37515 10.4418 6.56132 10.3177 6.68543C10.1315 6.93364 9.94537 7.05775 9.69716 7.24391C9.51099 7.36802 9.32483 7.55419 9.20072 7.74035C9.13867 7.86446 9.07661 7.98856 8.9525 8.05062C8.76634 8.23678 8.51812 8.42295 8.39402 8.67116C8.33196 8.73322 8.26991 8.85733 8.26991 8.91938C8.20785 9.1676 8.02169 9.35376 7.89758 9.60198C7.71142 9.91225 7.4632 10.1605 7.33909 10.4707C7.21498 10.719 7.09088 10.9672 7.02882 11.2774C6.96677 11.4015 6.96677 11.5257 6.84266 11.6498C6.71855 11.7739 6.6565 11.96 6.59444 12.1462C6.59444 12.3324 6.47033 12.5185 6.40828 12.7047C6.16006 13.2632 5.9739 13.8217 5.78774 14.3802C5.72568 14.6284 5.72568 14.8766 5.66363 15.1248C5.53952 15.373 5.47747 15.6833 5.41541 15.9315C5.35336 16.1177 5.22925 16.3038 5.2913 16.5521C5.2913 16.6762 5.22925 16.7382 5.22925 16.8623C5.16719 16.9864 5.16719 17.1105 5.16719 17.2347C5.16719 17.4208 5.16719 17.607 5.16719 17.7931C5.04309 18.0414 4.85692 18.3516 4.91898 18.6619C4.98103 19.0342 4.79487 19.3445 4.85692 19.7168C4.85692 20.0891 4.91898 20.4615 4.85692 20.7717C4.79487 21.1441 4.79487 21.4543 4.79487 21.8267C4.79487 22.1369 4.85692 22.3852 4.91898 22.6954C4.98103 22.8195 4.91898 22.9436 4.91898 23.0678C4.91898 23.6883 5.10514 24.2468 5.35336 24.8053C5.47747 25.1155 5.66363 25.3638 5.72568 25.674C5.78774 25.8602 5.91185 25.9843 6.03595 26.1084C6.22212 26.2946 6.47033 26.4807 6.53239 26.729C6.96677 27.0392 7.40115 27.4115 7.89758 27.5357C8.08374 27.5977 8.20785 27.5977 8.39402 27.5977C8.58018 27.5977 8.76634 27.5977 8.89045 27.7218C9.01456 27.7839 9.13867 27.7839 9.26278 27.7839C9.57305 27.7218 9.94537 27.6598 10.2556 27.5977C10.3177 27.5977 10.4418 27.5357 10.5039 27.5357C11.0003 27.4736 11.4967 27.3495 11.9311 27.1013C12.3034 26.9151 12.6137 26.6669 12.986 26.4807C13.1101 26.4187 13.2342 26.2325 13.3584 26.1705C13.6686 25.9222 14.041 25.7981 14.2892 25.4879C14.4133 25.3638 14.4753 25.2397 14.5994 25.1155C14.7236 24.9914 14.7856 24.8053 14.9718 24.8053C15.1579 24.7432 15.1579 24.5571 15.282 24.4329C15.4061 24.3088 15.4682 24.1847 15.5923 24.0606C15.8405 23.7503 16.1508 23.5642 16.4611 23.378C16.6472 23.2539 16.7713 23.0678 17.0196 23.0057C17.0816 23.0057 17.1437 22.9436 17.2057 22.9436C17.3298 23.0678 17.4539 23.0057 17.6401 23.0678C18.0745 23.1919 18.1986 23.5021 18.3227 23.8745C18.3848 24.0606 18.4468 24.2468 18.3848 24.4329C18.3227 24.6191 18.3227 24.8053 18.2606 24.9914C18.1986 25.3017 18.0124 25.5499 18.0124 25.7981C18.0124 25.9222 17.8883 26.0464 17.8263 26.1705C17.7022 26.3566 17.7022 26.6048 17.516 26.791C17.3919 26.9772 17.1437 27.1013 17.0816 27.3495C17.0196 27.4736 16.8955 27.6598 16.8334 27.7839C16.6472 27.97 16.5231 28.2183 16.2749 28.4044C15.9646 28.5906 15.7164 28.9009 15.4682 29.1491C14.8477 29.7696 14.9097 29.5834 14.2892 30.0178C13.9168 30.266 13.5445 30.3902 13.1101 30.6384C12.7999 30.7625 12.5517 31.0107 12.1793 30.9486C11.9311 31.1348 11.6208 31.1348 11.3106 31.1969C11.2485 31.1969 11.1865 31.2589 11.0623 31.2589C10.8141 31.2589 10.5659 31.2589 10.3798 31.321C10.1315 31.4451 9.82126 31.4451 9.57305 31.383C9.26278 31.383 8.9525 31.4451 8.70429 31.321C8.58018 31.2589 8.45607 31.4451 8.33196 31.321C7.89758 31.2589 7.4632 31.2589 7.09088 31.0107C7.02882 30.9486 6.84266 31.0107 6.7806 30.9486C6.47033 30.9486 6.28417 30.8245 6.09801 30.6384C5.9739 30.5763 5.84979 30.5143 5.72568 30.5143C5.60157 30.5143 5.47747 30.4522 5.35336 30.3281C5.16719 30.1419 4.91898 30.0178 4.73281 29.8937C4.67076 29.8937 4.67076 29.8317 4.60871 29.8317C4.23638 29.5214 3.92611 29.2111 3.55378 28.8388C3.42967 28.7147 3.30557 28.5906 3.30557 28.4044C3.24351 28.1562 3.05735 27.97 2.87119 27.8459C2.80913 27.6598 2.68502 27.5357 2.62297 27.3495C2.49886 27.0392 2.37475 26.791 2.25064 26.4807C2.12654 26.1705 2.06448 25.8602 1.87832 25.612C1.87832 25.5499 1.87832 25.4879 1.87832 25.4879C1.87832 25.1155 1.75421 24.8053 1.56805 24.495C1.6301 23.9365 1.44394 23.4401 1.50599 22.8816C1.31983 22.6334 1.44394 22.3852 1.38188 22.1369C1.13367 21.7646 1.19572 21.5164 1.13367 21.2682C1.13367 21.02 1.25778 20.7717 1.19572 20.4615C1.13367 20.2133 1.19572 19.965 1.19572 19.6548C1.19572 19.5307 1.25778 19.3445 1.31983 19.2204C1.38188 19.0342 1.38188 18.8481 1.31983 18.6619C1.25778 18.5998 1.25778 18.4757 1.31983 18.4137C1.38188 18.2275 1.44394 18.0414 1.44394 17.8552C1.44394 17.7931 1.44394 17.669 1.44394 17.607C1.44394 17.2347 1.44394 16.9244 1.50599 16.5521C1.56805 16.2418 1.56805 15.8695 1.75421 15.5592C1.81626 15.373 1.81626 15.2489 1.81626 15.0628C1.81626 14.8766 1.81626 14.6284 1.81626 14.4422C1.87832 14.256 2.00243 14.1319 2.06448 13.9458C2.12654 13.7596 2.18859 13.6355 2.25064 13.4493C2.43681 12.7667 2.68502 12.0841 2.9953 11.4636C3.1194 11.2154 3.1194 10.9672 3.24351 10.719C3.36762 10.4707 3.42967 10.1605 3.61584 9.91225C3.73995 9.78814 3.802 9.60198 3.802 9.47787C3.802 9.2917 3.86405 9.1676 3.98816 9.04349C4.05022 8.98143 4.11227 8.91938 4.11227 8.79527C4.23638 8.29884 4.60871 7.98857 4.79487 7.49213C5.04309 7.36802 4.98103 7.05775 5.16719 6.87159C5.41541 6.56132 5.60157 6.18899 5.91185 5.94077C6.03595 5.94077 6.03595 5.87872 6.09801 5.87872C6.28417 5.6305 6.40828 5.38229 6.6565 5.25818C6.84266 5.13407 6.96677 5.00996 7.09088 4.76174C7.15293 4.63763 7.33909 4.45147 7.4632 4.38942C7.83553 4.1412 8.08374 3.83093 8.39402 3.52066C8.70429 3.21039 9.07661 3.02422 9.44894 2.83806C9.51099 2.83806 9.57305 2.83806 9.57305 2.83806C9.75921 2.71395 9.82126 2.52779 10.0074 2.52779C10.0695 2.52779 10.0695 2.46574 10.0695 2.46574C10.4418 2.46574 10.8141 2.21752 11.1865 2.09341C11.5588 2.03136 11.9932 1.90725 12.3655 1.78314C12.3655 1.78314 12.3655 1.78314 12.3655 1.72108H12.4275Z" fill="#892533"/>
</g>
<mask id="mask1_4_203" style="mask-type:luminance" maskUnits="userSpaceOnUse" x="1" y="1" width="168" height="31">
<path d="M168.866 1.72108H1.13367V31.321H168.866V1.72108Z" fill="white"/>
</mask>
<g mask="url(#mask1_4_203)">
<path d="M41.9033 7.1198C41.8412 7.05774 41.7171 7.05774 41.6551 6.99569C41.2207 7.24391 40.9104 6.93364 40.5381 6.74747C40.2899 6.62336 40.2278 6.31309 40.1037 6.12693C40.1037 6.06488 40.0417 6.06488 39.9796 5.94077C39.9796 5.6305 40.0417 5.32022 40.1037 4.9479C40.1658 4.76174 40.2278 4.51352 40.414 4.32736C40.7863 3.95503 41.2207 3.70681 41.6551 3.4586C41.9033 3.4586 42.1515 3.33449 42.3377 3.27243C42.5238 3.21038 42.8341 3.21038 42.9582 3.02422C43.1444 3.08627 43.3305 2.96216 43.5167 2.96216C43.7029 2.90011 43.827 2.83805 44.0131 2.776C44.0752 2.776 44.1373 2.776 44.1993 2.776C44.3855 2.776 44.6337 2.83805 44.8198 2.71395C45.006 2.65189 45.2542 2.776 45.4404 2.58984C45.4404 2.58984 45.5024 2.58984 45.5645 2.58984C46.0609 2.65189 46.5574 2.46573 47.1159 2.52778C47.24 2.52778 47.3641 2.46573 47.5502 2.46573C47.6743 2.46573 47.7985 2.46573 47.9846 2.46573C48.2949 2.46573 48.5431 2.52778 48.8534 2.58984C48.9154 2.58984 48.9154 2.58984 48.9775 2.58984C49.1636 2.58984 49.3498 2.58984 49.536 2.65189C49.7221 2.71395 49.9704 2.776 50.1565 2.71395C50.1565 2.71395 50.1565 2.71395 50.2186 2.71395C50.3427 2.90011 50.5288 2.96216 50.7771 2.96216C50.9632 2.96216 51.1494 3.02422 51.3976 3.14833C51.5838 3.21038 51.7079 3.33449 51.894 3.4586C51.9561 3.4586 52.0181 3.58271 52.0802 3.58271C52.3905 3.64476 52.5766 3.83092 52.7628 4.01709C52.8869 4.14119 53.0731 4.32736 53.1972 4.45147C53.4454 4.69968 53.6316 5.00995 53.8177 5.25817C54.0039 5.56844 54.0039 5.94077 54.128 6.25104C54.2521 6.49926 54.19 6.80953 54.19 7.05774C54.19 7.18185 54.128 7.30596 54.2521 7.43007C54.3142 7.49212 54.2521 7.67829 54.2521 7.8024C54.128 8.11267 54.0659 8.48499 53.9418 8.85732C53.8177 9.2917 53.6316 9.66402 53.4454 10.0363C53.3833 10.1605 53.3213 10.2225 53.2592 10.3466C53.0731 10.7189 52.8869 11.0292 52.6387 11.2774C52.5146 11.4015 52.4525 11.5257 52.3905 11.6498C52.3284 11.898 52.1423 12.0841 51.894 12.2082C51.5838 12.3944 51.4597 12.6426 51.2735 12.9529C51.0873 13.015 50.8391 13.1391 50.715 13.4493C50.6529 13.5734 50.5288 13.6355 50.4047 13.7596C50.1565 13.9458 49.9704 14.1319 49.7842 14.3801V14.6904C49.8462 14.7525 49.9704 14.8145 50.0324 14.8145C50.4047 14.8145 50.7771 14.9386 51.1494 15.0627C51.3976 15.1248 51.7079 15.0627 51.894 15.0627C52.5146 15.311 53.0731 15.5592 53.6936 15.8074C53.8798 15.9936 54.128 16.2418 54.4383 16.4279C54.5003 16.4279 54.5624 16.49 54.5624 16.552C54.6244 16.6141 54.6244 16.6762 54.6865 16.7382C54.9967 16.9244 55.1209 17.2967 55.3691 17.5449C55.5552 17.7311 55.5552 18.0413 55.6793 18.2275C55.7414 18.3516 55.8035 18.5378 55.7414 18.6619C55.7414 18.7239 55.8035 18.786 55.8035 18.9101C55.8655 19.1583 56.0517 19.4686 55.8035 19.7168C55.8655 20.0891 55.6793 20.3994 55.6793 20.7097C55.6173 21.02 55.5552 21.2682 55.5552 21.5784C55.5552 21.6405 55.4932 21.7646 55.4311 21.8887C55.1829 22.199 55.1209 22.5093 54.9967 22.8816C54.9347 23.0057 54.8726 23.1298 54.8106 23.2539C54.6244 23.4401 54.5624 23.6262 54.4383 23.8124C54.3142 24.0606 54.19 24.2468 54.0039 24.4329C53.9418 24.495 53.9418 24.6191 53.8798 24.6812C53.5695 25.0535 53.3213 25.4258 52.949 25.674C52.7628 25.7981 52.6387 25.9843 52.5146 26.1084C52.4525 26.1705 52.4525 26.2325 52.4525 26.2946C52.2043 26.5428 51.894 26.8531 51.5838 27.0392C51.4597 27.1633 51.3355 27.2254 51.2114 27.3495C50.9012 27.6598 50.5288 27.8459 50.1565 28.0941C50.0324 28.2182 49.8462 28.2803 49.7221 28.3424C49.536 28.4665 49.3498 28.6526 49.2257 28.7767C49.1637 28.8388 49.0395 28.9008 48.9775 28.9008C48.6052 28.9629 48.2949 29.2111 47.9846 29.3352C47.8605 29.3973 47.7364 29.5214 47.5502 29.5214C47.1159 29.8317 46.5574 29.8937 46.0609 30.0799C45.7507 30.204 45.4404 30.266 45.1301 30.4522C45.1301 30.4522 45.0681 30.4522 45.006 30.4522C44.8198 30.4522 44.6957 30.5143 44.5716 30.5143C44.0752 30.6384 43.5788 30.7004 43.0823 30.7004C42.648 30.7004 42.2136 30.5763 41.7792 30.3901C41.593 30.3281 41.3448 30.204 41.0966 30.1419C40.9104 30.1419 40.7243 30.0178 40.6002 29.8937C40.3519 29.7076 40.0417 29.5214 39.9176 29.1491C39.7314 28.7767 39.6073 28.4044 39.6073 27.97C39.6073 27.7839 39.6073 27.5977 39.6073 27.4115C39.6073 27.1013 39.5452 26.791 39.6073 26.5428C39.6693 26.2946 39.6073 25.9843 39.7314 25.7981C39.7935 25.7361 39.7314 25.612 39.7314 25.5499C39.7314 25.3638 39.7314 25.1776 39.7935 24.9914C39.8555 24.8053 39.7314 24.6191 39.8555 24.4329C39.7314 24.0606 40.1037 23.7503 39.8555 23.378C39.8555 23.378 39.9176 23.316 39.9176 23.2539C40.0417 22.6334 40.1037 22.0749 40.1037 21.4543C40.1037 21.3302 40.1037 21.2061 40.1658 21.1441C40.2899 20.8958 40.2899 20.5856 40.414 20.3374C40.4761 20.2753 40.414 20.1512 40.414 20.0891C40.414 20.0271 40.3519 19.965 40.3519 19.8409C40.2899 19.4686 40.4761 19.1583 40.5381 18.8481C40.5381 18.786 40.6002 18.7239 40.6002 18.5998C40.6002 18.1034 40.6002 17.669 40.7863 17.2346C40.8484 17.1105 40.7863 16.9864 40.7863 16.9244C40.7863 16.6141 40.7863 16.3659 40.9104 16.0556C40.9725 15.9936 40.9104 15.8694 40.9104 15.8074C40.9104 15.4971 40.9104 15.1869 41.0345 14.8766C41.0345 14.8145 41.0345 14.8145 41.0345 14.7525C40.9725 14.3181 41.1586 13.8837 41.0966 13.4493C41.0966 13.2632 41.1587 13.1391 41.1587 12.9529C41.1587 12.7667 41.0966 12.5806 41.2207 12.4565C41.2828 12.3944 41.2207 12.3324 41.2207 12.2703C41.2207 11.898 41.3448 11.5257 41.4069 11.0913C41.4069 11.0292 41.4689 11.0292 41.4689 10.9672C41.4069 10.5948 41.593 10.2225 41.531 9.78813C41.531 9.60197 41.593 9.47786 41.6551 9.35375C41.6551 9.22964 41.593 9.04348 41.7171 8.91937C41.7171 8.6091 41.8412 8.29883 41.8412 7.9265C42.0274 7.67829 42.0895 7.36802 41.9033 7.1198ZM44.1993 18.6619C44.0752 19.0342 44.0131 19.4065 44.0131 19.7789C44.0131 19.903 44.0752 20.0891 43.9511 20.2132C43.827 20.3374 44.0131 20.5235 43.827 20.6476C43.827 20.8958 43.6408 21.1441 43.7649 21.3302C43.889 21.5164 43.7649 21.6405 43.7649 21.8267C43.7029 21.9508 43.7029 22.0749 43.7029 22.261C43.7029 22.3231 43.7029 22.4472 43.7029 22.4472C43.5788 22.6334 43.7029 22.8195 43.6408 22.9436C43.5167 23.1298 43.5788 23.316 43.5788 23.5021C43.5788 23.6883 43.6408 23.8745 43.5788 23.9986C43.5167 24.1847 43.5167 24.3088 43.5167 24.495C43.5167 24.6812 43.4547 24.8053 43.4547 24.9914C43.3926 25.3017 43.4547 25.674 43.3305 25.9222C43.2685 26.2325 43.2685 26.4807 43.2685 26.7289C43.3926 26.791 43.5167 26.8531 43.6408 26.9151C43.7029 26.8531 43.7649 26.8531 43.827 26.791C43.9511 26.791 44.0752 26.791 44.2614 26.791C44.3855 26.791 44.5096 26.6669 44.6337 26.6048C44.8199 26.5428 45.006 26.5428 45.1922 26.4807C45.3163 26.4187 45.4404 26.3566 45.5645 26.2946C45.9989 26.1084 46.3712 25.8602 46.7435 25.7361C46.9918 25.612 47.24 25.5499 47.4261 25.4258C47.7985 25.1776 48.1708 24.8673 48.5431 24.6191C48.8534 24.4329 49.1636 24.1847 49.4119 23.9365C49.536 23.8124 49.7221 23.6262 49.9083 23.5021C50.0945 23.378 50.2806 23.1919 50.4668 23.0057C50.5909 22.8816 50.653 22.7575 50.7771 22.6334C50.8391 22.5713 50.9012 22.4472 50.9632 22.4472C51.0873 22.3231 51.1494 22.0749 51.2735 21.9508C51.4597 21.7646 51.5838 21.5164 51.7079 21.2682C51.7699 21.2061 51.7699 21.082 51.832 21.02C52.0181 20.8338 52.0802 20.5856 52.0802 20.3374C52.1423 20.0891 52.1423 19.8409 52.2664 19.6548C52.3905 19.4065 52.3284 19.1583 52.2664 18.9722C51.9561 18.786 51.7079 18.6619 51.5217 18.5378C51.3355 18.4757 51.2114 18.5378 51.0873 18.4757C50.715 18.2896 50.2806 18.2275 49.8462 18.2275C49.7221 18.2275 49.598 18.2275 49.4739 18.1655C49.2878 18.1034 49.1016 18.1034 48.9154 18.1034C48.3569 18.1034 47.7985 18.1034 47.24 18.1034C47.1779 18.1034 47.0538 18.1034 46.9917 18.1034C46.8056 18.1655 46.6194 18.2275 46.4333 18.2275C46.2471 18.2275 46.123 18.2896 45.9368 18.1655C45.8748 18.1034 45.6266 18.1034 45.5645 18.1655C45.4404 18.2275 45.3163 18.2275 45.1922 18.2275C45.006 18.2275 44.8199 18.2275 44.6337 18.2275C44.3855 18.4137 44.2614 18.5378 44.1993 18.6619ZM45.006 13.4493C45.3163 13.2011 45.6886 13.015 45.9368 12.7667C45.9989 12.7047 45.9989 12.7047 46.0609 12.7047C46.2471 12.5806 46.4333 12.4565 46.6194 12.3324C47.24 11.7739 47.8605 11.1533 48.4811 10.5328C48.5431 10.4707 48.6052 10.4087 48.6672 10.3466C48.8534 10.2846 48.9775 10.1605 49.0395 10.0363C49.1636 9.85019 49.3498 9.66402 49.536 9.47786C49.7221 9.2917 49.9083 9.04348 50.0324 8.79526C50.0945 8.67115 50.1565 8.48499 50.2806 8.36088C50.5909 7.9265 50.715 7.43007 50.5909 6.93364C50.5288 6.87158 50.4668 6.80953 50.4047 6.74747C50.1565 6.49926 49.8462 6.31309 49.4739 6.37515C49.4119 6.37515 49.3498 6.37515 49.2878 6.37515C49.1636 6.25104 48.9775 6.37515 48.8534 6.31309C48.6672 6.18898 48.5431 6.25104 48.3569 6.25104C48.2328 6.25104 48.1087 6.31309 47.9226 6.31309C47.7985 6.31309 47.6743 6.31309 47.6123 6.31309C47.4882 6.31309 47.4261 6.25104 47.302 6.25104C46.9917 6.25104 46.6194 6.25104 46.3092 6.25104C46.2471 6.25104 46.185 6.25104 46.123 6.31309C45.9989 6.37515 45.8748 6.4372 45.8127 6.49926C45.7507 6.62336 45.6886 6.74747 45.6886 6.87158C45.6886 6.99569 45.6886 7.1198 45.6886 7.30596C45.6886 7.43007 45.6266 7.55418 45.6266 7.67829C45.6266 7.8024 45.5645 7.86445 45.5645 7.98856C45.6266 8.54705 45.3783 8.98143 45.3783 9.53992C45.3783 9.72608 45.2542 9.85019 45.2542 10.0363C45.2542 10.1605 45.3163 10.2846 45.3163 10.4087C45.2542 10.6569 45.1922 10.9051 45.1301 11.1533C45.1301 11.2774 45.006 11.3395 45.0681 11.4636C45.1922 11.6498 45.1301 11.7739 45.0681 11.96C45.006 12.0841 45.1301 12.2703 45.0681 12.3324C44.944 12.5185 45.0681 12.7047 45.006 12.8908C44.944 13.077 44.944 13.2632 45.006 13.3873C45.006 13.3252 45.006 13.3873 45.006 13.4493Z" fill="#892533"/>
</g>
<mask id="mask2_4_203" style="mask-type:luminance" maskUnits="userSpaceOnUse" x="1" y="1" width="168" height="31">
<path d="M168.866 1.72108H1.13367V31.321H168.866V1.72108Z" fill="white"/>
</mask>
<g mask="url(#mask2_4_203)">
<path d="M31.9746 3.64477C32.2849 3.89299 32.6572 3.95504 33.0296 4.07915C33.7121 4.32737 34.3327 4.63764 34.8912 5.00996C34.9532 5.07202 35.0153 5.13407 35.0773 5.19613C35.0773 5.32024 35.1394 5.38229 35.2635 5.44434C35.6979 5.69256 35.9461 6.189 36.3184 6.49927C36.5046 6.68543 36.7528 7.11981 36.939 7.49214C36.939 7.55419 37.001 7.61624 37.001 7.6783C37.3113 7.98857 37.3734 8.42295 37.5595 8.79527C37.6216 8.98144 37.5595 9.1676 37.6216 9.29171C37.6836 9.41582 37.7457 9.60198 37.7457 9.72609C37.7457 9.97431 37.7457 10.2846 37.9318 10.4707C37.9318 10.4707 37.9318 10.5328 37.9318 10.5948C37.9318 10.9051 37.9318 11.2154 38.0559 11.5257C38.118 11.7739 38.118 12.0842 38.118 12.3324C38.118 12.5185 38.1801 12.7047 38.2421 12.9529C38.2421 13.015 38.1801 13.077 38.1801 13.2011C38.1801 13.4493 38.1801 13.6976 38.1801 13.8837C38.2421 14.4422 38.0559 15.0007 38.118 15.5592C37.9939 15.8695 38.0559 16.2418 38.0559 16.6141C38.0559 16.7382 38.0559 16.9244 38.0559 17.0485C38.0559 17.1726 37.9939 17.3588 37.9939 17.4829C37.9318 17.607 37.8698 17.7311 37.8698 17.9173C37.8698 17.9793 37.8077 18.0414 37.8077 18.1034C37.8077 18.3516 37.8077 18.5998 37.6216 18.8481C37.6216 18.9101 37.6216 18.9722 37.6216 19.0342C37.6836 19.4686 37.4975 19.7789 37.4354 20.2133C37.3113 20.2753 37.3734 20.3994 37.3734 20.5235C37.3734 20.8338 37.2492 21.082 37.1251 21.3302C37.1251 21.5164 37.0631 21.7026 36.939 21.8887C36.7528 22.199 36.6908 22.5713 36.6287 22.9436C36.5666 23.2539 36.4425 23.6262 36.3184 23.9365C36.1943 24.1847 36.0702 24.4329 36.0082 24.7432C36.0082 24.8673 35.884 24.9294 35.884 24.9914C35.5738 25.5499 35.2635 26.1084 34.8912 26.6669C34.4568 27.4116 33.7742 27.97 33.1537 28.5285C32.8434 28.8388 32.5331 29.087 32.1608 29.3352C32.0987 29.3973 32.0367 29.3973 31.9746 29.4593C31.6644 29.5835 31.292 29.7696 30.9818 29.8937C30.6094 30.0178 30.2992 30.1419 29.9268 30.2661C29.7407 30.3281 29.5545 30.3902 29.3063 30.3902C29.1822 30.3902 28.996 30.3902 28.8719 30.4522C28.8099 30.5143 28.7478 30.4522 28.6858 30.4522C28.3134 30.3902 28.3134 30.3902 27.9411 30.4522H27.879C27.7549 30.4522 27.6308 30.3902 27.5688 30.3902C27.4447 30.3902 27.3206 30.4522 27.2585 30.4522C27.0723 30.5143 26.8862 30.3902 26.7621 30.3281C26.5139 30.204 26.2656 30.1419 25.9554 30.0178C25.4589 29.8317 25.0246 29.6455 24.5902 29.3352C24.4661 29.2111 24.2799 29.1491 24.1558 29.087C23.6594 28.8388 23.4111 28.4665 23.0388 28.0321C22.9768 27.97 22.9147 27.8459 22.8527 27.7218C22.6044 27.4736 22.3562 27.2254 22.2321 26.9151C22.1701 26.8531 22.108 26.791 22.0459 26.729C21.8598 26.6048 21.7357 26.3566 21.6736 26.1705C21.5495 25.7981 21.3634 25.4879 21.2392 25.1155C21.1772 25.0535 21.1772 24.9294 21.1772 24.8673C21.1151 24.7432 21.1151 24.5571 20.991 24.4329C20.8669 24.3088 20.7428 24.0606 20.8049 23.9365C20.8049 23.6262 20.6808 23.378 20.6187 23.0678C20.6187 23.0057 20.5566 23.0057 20.5566 22.9436C20.4946 22.7575 20.4946 22.5093 20.4946 22.3231C20.4946 22.1369 20.5566 21.9508 20.4325 21.8267C20.4946 21.5164 20.4325 21.1441 20.2464 20.8338V20.7717C20.1843 20.5856 20.3705 20.3994 20.3084 20.2133C20.2464 20.0271 20.2464 19.7789 20.2464 19.5927C20.3705 19.0963 20.3084 18.5998 20.3084 18.1034C20.3084 17.607 20.3084 17.1105 20.3084 16.6141C20.3084 16.49 20.3084 16.3659 20.3705 16.2418C20.4325 16.0556 20.4946 15.8695 20.4946 15.6212C20.4946 15.2489 20.4946 14.8145 20.5566 14.4422C20.6187 14.194 20.6808 13.9458 20.7428 13.6976C20.7428 13.6355 20.8049 13.6355 20.8049 13.5735C20.8049 13.3252 20.8669 13.015 20.8669 12.7667C20.929 12.5185 20.991 12.2703 21.1151 12.0842C21.1772 12.0221 21.1772 11.96 21.1772 11.898C21.1772 11.5257 21.3634 11.2154 21.4254 10.9051V10.8431C21.6736 10.4707 21.7977 9.97431 21.9839 9.53993C22.1701 9.22966 22.2321 8.91938 22.4183 8.60911C22.5424 8.42295 22.6665 8.17473 22.7906 7.98857C22.8527 7.92652 22.9147 7.80241 22.9768 7.74035C23.0388 7.49214 23.1629 7.30597 23.3491 7.11981C23.5973 6.87159 23.7835 6.62338 23.9696 6.37516C24.2178 6.06489 24.5281 5.75462 24.8384 5.5064C25.0246 5.32024 25.2728 5.19613 25.4589 5.00996C25.8313 4.69969 26.2656 4.51353 26.7 4.32737C26.7621 4.32737 26.7621 4.32737 26.8241 4.32737C27.1344 4.07915 27.5067 3.95504 27.9411 3.95504C28.1273 3.95504 28.2514 3.83093 28.4375 3.76888C28.6237 3.70683 28.8099 3.70683 28.996 3.70683C29.4925 3.70683 30.0509 3.58272 30.5474 3.64477C30.7956 3.64477 31.0438 3.70683 31.3541 3.76888C31.4782 3.76888 31.6023 3.89299 31.7885 3.83093C31.6644 3.58272 31.7885 3.64477 31.9746 3.64477ZM33.0916 22.0128C33.0916 21.7646 33.2157 21.4543 33.3398 21.1441C33.4639 20.7717 33.7121 20.4615 33.7121 20.0271C33.8363 19.903 33.7121 19.7168 33.8363 19.5927C33.9604 19.4686 33.8983 19.2824 33.8983 19.1583C33.8983 19.0963 33.8983 19.0342 33.8983 18.9722C34.0224 18.724 34.0845 18.4757 34.0224 18.2275C34.0224 18.1655 34.0224 18.1655 34.0224 18.1034C34.1465 17.669 34.2706 17.2347 34.2706 16.8003C34.2706 16.6762 34.2706 16.5521 34.2706 16.49C34.3947 16.1797 34.4568 15.8074 34.4568 15.4971C34.4568 15.373 34.4568 15.2489 34.5189 15.1248C34.5809 15.0007 34.5809 14.8145 34.5189 14.6904C34.4568 14.5043 34.5189 14.256 34.4568 14.0699C34.5809 14.0078 34.5189 13.8837 34.5189 13.7596C34.5189 13.5114 34.4568 13.3252 34.5809 13.077C34.5809 13.015 34.5809 12.9529 34.5809 12.8288C34.5189 12.6426 34.5189 12.4565 34.4568 12.2703C34.643 12.0842 34.4568 11.96 34.4568 11.7739C34.4568 11.6498 34.3947 11.5877 34.3947 11.4636C34.3947 11.2774 34.3947 11.0913 34.3947 10.9051C34.3947 10.719 34.3327 10.5328 34.2706 10.2846C34.2086 10.1605 34.1465 10.0364 34.0224 9.8502C34.0845 9.53993 34.0224 9.22966 33.7742 8.91938C33.7121 8.79528 33.588 8.67117 33.526 8.54706C33.2778 8.17473 32.9054 7.80241 32.5331 7.55419C32.347 7.43008 32.1608 7.30597 31.9126 7.18186C31.7885 7.18186 31.6644 7.18186 31.4782 7.11981C31.23 6.9957 30.9197 6.87159 30.6094 6.87159C30.0509 6.87159 29.4925 6.74748 28.934 6.9957C28.6858 7.30597 28.4375 7.24392 28.1893 7.30597C27.6308 7.43008 27.0103 7.86446 26.7 8.23679C26.638 8.36089 26.5139 8.42295 26.4518 8.54706C26.3897 8.67117 26.3277 8.79528 26.2036 8.85733C25.8933 9.1676 25.7071 9.53993 25.3969 9.78814C25.3348 9.8502 25.2107 9.97431 25.2107 10.0984C25.0866 10.5328 24.8384 10.9051 24.7143 11.3395C24.6522 11.5257 24.4661 11.7118 24.4661 11.96C24.4661 12.0842 24.342 12.2083 24.342 12.3324C24.2178 12.7047 24.0317 13.077 24.0937 13.4493C24.0937 13.6355 24.0317 13.8217 23.9696 14.0078C23.7835 14.4422 23.7214 14.8766 23.6594 15.311C23.6594 15.4351 23.7214 15.6212 23.6594 15.7454C23.4732 16.0556 23.6594 16.4279 23.5353 16.7382C23.4732 16.9244 23.4732 17.2347 23.5353 17.4208C23.5973 17.669 23.4111 17.9173 23.4732 18.1034C23.4732 18.4137 23.4732 18.6619 23.4732 18.9722C23.4732 19.0963 23.5353 19.1583 23.5353 19.2824C23.6594 19.5927 23.7214 19.903 23.5353 20.2133C23.5973 20.2753 23.5973 20.3374 23.5973 20.3994C23.5973 20.4615 23.5973 20.5235 23.5973 20.5856C23.6594 20.7097 23.6594 20.8338 23.5973 20.9579C23.5973 21.02 23.5352 21.082 23.5973 21.082C23.5973 21.2061 23.6594 21.3302 23.6594 21.3923C23.6594 21.5164 23.6594 21.6405 23.7214 21.7646C23.8455 22.1369 23.9076 22.5713 23.9696 22.9436C24.0317 23.316 24.2178 23.6883 24.404 23.9986C24.5281 24.1847 24.6522 24.4329 24.8384 24.5571C25.0246 24.7432 25.0866 24.9914 25.1487 25.1776C25.1487 25.1776 25.1487 25.1776 25.1487 25.2397C25.521 25.612 25.8933 26.0464 26.5139 26.1705C26.7621 26.2325 27.0103 26.2946 27.2585 26.4807C27.3826 26.5428 27.5688 26.6048 27.817 26.6048C28.2514 26.5428 28.6858 26.4807 29.1201 26.5428C29.1822 26.5428 29.1822 26.4807 29.2442 26.4807C29.4925 26.4187 29.7407 26.2946 29.9889 26.1084C30.4233 25.8602 30.8577 25.612 31.1059 25.1776C31.1679 25.0535 31.292 24.9294 31.4161 24.8673C31.7264 24.7432 31.8505 24.433 32.0367 24.1847C32.2849 23.7504 32.4711 23.2539 32.7193 22.8816C32.7813 22.8195 32.7813 22.7575 32.7813 22.6954C32.7813 22.5093 32.9675 22.3231 33.0916 22.0128Z" fill="#892533"/>
</g>
<mask id="mask3_4_203" style="mask-type:luminance" maskUnits="userSpaceOnUse" x="1" y="1" width="168" height="31">
<path d="M168.866 1.72108H1.13367V31.321H168.866V1.72108Z" fill="white"/>
</mask>
<g mask="url(#mask3_4_203)">
<path d="M66.3527 3.4586C67.0353 3.64477 67.6558 3.70682 68.2764 3.70682C68.6487 3.83093 68.959 3.95504 69.2692 4.1412C69.5795 4.26531 69.9518 4.32736 70.2001 4.57558C70.3862 4.69969 70.5103 4.88585 70.6344 5.07201C71.0068 5.75461 71.0688 6.25104 71.0068 6.74748C71.0068 6.93364 70.9447 7.1198 70.9447 7.30597C70.6344 7.8024 70.6344 7.8024 70.2001 7.98856C70.0759 7.98856 70.0139 7.92651 69.8898 7.92651C69.7657 7.92651 69.4554 7.8024 69.3313 7.74035C69.2072 7.67829 69.0831 7.61624 68.959 7.55418C68.8349 7.49213 68.6487 7.49213 68.5246 7.43008C68.4005 7.43008 68.2764 7.30597 68.0902 7.24391C67.904 7.18186 67.7799 7.18186 67.6558 7.18186C67.5938 7.18186 67.5317 7.1198 67.4697 7.1198C67.0353 6.9957 66.6009 6.9957 66.1665 7.05775C65.9183 7.05775 65.6701 7.1198 65.4219 7.1198C65.2978 7.1198 65.1737 7.18186 65.0495 7.24391C64.8634 7.36802 64.6772 7.36802 64.4911 7.36802C64.2428 7.43008 64.0567 7.61624 63.7464 7.67829C63.4982 7.74035 63.25 7.92651 63.0018 8.11267C62.7535 8.29884 62.5053 8.42294 62.2571 8.60911C61.8848 8.79527 61.5745 9.04349 61.3263 9.41581C61.0781 9.78814 60.8299 10.0984 60.5816 10.4707C60.3334 10.9051 60.0852 11.3395 59.9611 11.8359C59.899 12.0221 59.899 12.1462 59.899 12.3324C59.899 12.4565 59.899 12.6426 59.837 12.7667C59.7749 13.077 59.899 13.3252 60.0852 13.5734C60.3334 13.8837 60.6437 14.0699 61.016 14.194C61.3263 14.3181 61.5745 14.3802 61.8227 14.5663C61.9468 14.6904 62.133 14.7525 62.2571 14.7525C62.4433 14.7525 62.6294 14.7525 62.7535 14.8766C62.8776 14.9386 63.0638 15.0007 63.1879 15.0628C63.312 15.1248 63.4982 15.1869 63.6844 15.311C63.9326 15.311 64.1187 15.373 64.3669 15.4971C64.6152 15.5592 64.8634 15.6212 65.1737 15.6833C65.4839 15.7453 65.7942 15.9936 66.1045 16.0556C66.2906 16.1177 66.4768 16.1177 66.663 16.1797C66.9732 16.3659 67.3456 16.4279 67.7179 16.49C67.7799 16.49 67.842 16.5521 67.904 16.6141C68.0902 16.8003 68.4005 16.9244 68.6487 17.0485C69.0831 17.2347 69.4554 17.5449 69.8277 17.8552C69.9518 17.9793 70.138 18.1034 70.2621 18.2275C70.6965 18.6619 71.0068 19.1583 71.3791 19.6548C71.5652 19.903 71.7514 20.1512 71.8135 20.5235C71.9996 20.6476 71.8755 20.8959 71.9996 21.082C72.1237 21.2682 72.0617 21.4543 72.1237 21.6405C72.2478 22.1369 72.1858 22.6334 72.1858 23.1298C72.1858 23.4401 72.1237 23.7503 72.0617 24.1227C71.9376 24.3088 71.7514 24.495 71.6273 24.7432C71.5032 25.1155 71.3791 25.4258 71.1929 25.7361C71.0068 25.9843 70.7585 26.2325 70.5724 26.5428C70.4483 26.729 70.3242 26.9151 70.138 27.0392C69.7657 27.3495 69.4554 27.7218 69.0831 28.0321C68.7728 28.2803 68.4625 28.4665 68.1523 28.6526C67.904 28.8388 67.5938 28.9009 67.2835 29.087C67.0353 29.2111 66.725 29.3352 66.4147 29.4593C66.0424 29.6455 65.608 29.6455 65.2357 29.8317C65.1737 29.8317 65.1737 29.8937 65.0495 29.8937C64.9254 29.8937 64.6772 29.8317 64.4911 29.8937C64.3049 29.9558 64.1187 29.8937 63.9946 30.0178C63.9326 30.0799 63.8705 30.0178 63.8085 30.0178C63.5602 30.0178 63.312 30.0178 63.0638 30.0178C62.6915 30.0178 62.3192 30.0799 62.0089 30.0799C61.8848 30.0799 61.6986 30.0799 61.5125 30.0178C61.3263 29.9558 61.0781 29.9558 60.8299 29.8937C60.7678 29.8937 60.7057 29.8317 60.5816 29.8317C60.3334 29.7696 60.0852 29.6455 59.837 29.6455C59.7749 29.6455 59.7129 29.5835 59.5888 29.5835C59.0303 29.3973 58.5959 29.1491 58.0995 28.9009C58.0374 28.8388 57.9754 28.7767 57.9133 28.7147C57.7271 28.5906 57.603 28.4665 57.4169 28.4044C56.9825 28.2183 56.6722 27.908 56.4861 27.4736C56.4861 27.4115 56.4861 27.4115 56.424 27.3495C56.0517 27.0392 55.8035 26.6048 55.6173 26.1705C55.5552 25.9843 55.4932 25.7361 55.5552 25.612C55.6173 25.4258 55.6173 25.1776 55.8035 25.0535C55.9276 24.9294 55.9896 24.6812 56.2378 24.6812C56.3619 24.6812 56.5481 24.6812 56.6722 24.6191C56.8584 24.495 56.9204 24.6191 57.0445 24.6191C57.1687 24.6191 57.3548 24.6191 57.4169 24.6191C57.603 24.6812 57.6651 24.7432 57.7892 24.8053C58.2236 25.0535 58.658 25.3017 59.0923 25.612C59.4026 25.7981 59.7129 25.9222 60.0232 26.1084C60.0852 26.1084 60.1473 26.1084 60.1473 26.1084C60.6437 26.1084 61.0781 26.2946 61.6366 26.2946C61.8227 26.2946 61.9468 26.4187 62.133 26.2946H62.2571C62.3812 26.4187 62.5674 26.3566 62.6915 26.3566C62.9397 26.4187 63.1259 26.2325 63.312 26.2946C63.4982 26.2946 63.7464 26.2946 63.9326 26.2946C64.1187 26.2946 64.367 26.1705 64.5531 26.1084C64.6772 26.1084 64.8013 26.0464 64.8634 26.0464C64.9875 26.0464 65.0495 25.9843 65.1737 25.9843C65.2978 25.9222 65.4219 25.9222 65.546 25.8602C65.7321 25.612 65.9804 25.4258 66.3527 25.3638C66.6009 25.1155 66.7871 24.9294 67.0973 24.8053C67.2214 24.7432 67.2835 24.6812 67.3456 24.5571C67.4697 24.3088 67.6558 24.1847 67.842 23.9986C68.0282 23.7503 68.2143 23.5642 68.2764 23.1919C68.3384 22.9436 68.4005 22.6954 68.4625 22.3852C68.5246 22.1369 68.5246 21.8267 68.4005 21.6405C68.3384 21.5164 68.2143 21.3923 68.1523 21.2682C68.0282 20.9579 67.842 20.7097 67.5317 20.5856C67.3456 20.4615 67.1594 20.2133 66.9732 20.0271C66.8491 19.965 66.725 19.965 66.6009 19.903C66.2906 19.7168 65.9183 19.6548 65.608 19.4686C65.4839 19.4065 65.3598 19.4065 65.2978 19.3445C65.1116 19.1583 64.8013 19.1583 64.5531 18.9722C64.3049 19.0342 64.1187 18.786 63.8705 18.786C63.6844 18.786 63.4361 18.6619 63.25 18.5378C63.1259 18.4757 63.0018 18.5378 62.8777 18.4137C62.6294 18.4757 62.3812 18.2896 62.195 18.1655C62.0089 18.1034 61.8227 18.0414 61.6366 17.9793C61.4504 17.9172 61.2022 17.8552 61.016 17.7931C60.7678 17.669 60.3955 17.607 60.1473 17.4829C60.0232 17.4208 59.899 17.4208 59.7749 17.4208C59.5267 17.3588 59.2785 17.2347 59.0923 17.0485C59.0303 16.9864 58.9062 16.8623 58.8441 16.8623C58.5959 16.8623 58.4097 16.6762 58.2856 16.5521C57.9754 16.3659 57.7271 16.1177 57.4789 15.8074C57.1687 15.4351 56.7963 15.0627 56.5481 14.6904C56.4861 14.5663 56.362 14.3802 56.362 14.194C56.2999 13.6355 56.1137 13.077 56.1758 12.5185C56.1758 12.4565 56.2378 12.3324 56.1137 12.2703C56.1137 12.2703 56.0517 12.1462 56.1137 12.1462C56.2378 11.96 56.1758 11.7739 56.1758 11.5877C56.2378 11.1533 56.2999 10.781 56.4861 10.3466C56.6722 9.9743 56.7963 9.60198 56.9204 9.22965C56.9825 9.10554 57.0445 8.98143 57.1066 8.85732C57.3548 8.36089 57.6651 7.86446 58.0374 7.43008C58.1615 7.30597 58.2856 7.18186 58.3477 7.05775C58.4097 6.87159 58.5338 6.74748 58.658 6.68542C58.9062 6.56132 59.0303 6.37515 59.2164 6.18899C59.5267 5.87872 59.837 5.6305 60.2093 5.38228C60.2714 5.32023 60.3334 5.25818 60.3955 5.19612C60.5196 5.07201 60.6437 4.94791 60.8919 4.94791C60.954 4.94791 61.0781 4.88585 61.1401 4.8238C61.2642 4.69969 61.4504 4.63763 61.6366 4.51353C61.9468 4.45147 62.3812 4.38942 62.7535 4.20325C62.8156 4.1412 62.9397 4.1412 63.0638 4.07915C63.4361 3.89298 63.8085 3.70682 64.2428 3.70682C64.429 3.58271 64.6152 3.64477 64.8013 3.64477C65.2978 3.52066 65.7321 3.58271 66.2286 3.58271C66.2286 3.52066 66.2906 3.4586 66.3527 3.4586Z" fill="#892533"/>
</g>
<mask id="mask4_4_203" style="mask-type:luminance" maskUnits="userSpaceOnUse" x="1" y="1" width="168" height="31">
<path d="M168.866 1.72108H1.13367V31.321H168.866V1.72108Z" fill="white"/>
</mask>
<g mask="url(#mask4_4_203)">
<path d="M79.9426 28.8388L80.0046 28.7767C80.2528 28.2183 80.6872 27.8459 81.1837 27.5977C81.3698 27.5357 81.4939 27.5977 81.7422 27.4736C81.7422 27.4736 81.8042 27.3495 81.8663 27.2874C81.8663 27.2874 81.8663 27.2874 81.8663 27.3495C81.8663 27.2874 81.9283 27.1633 81.9283 27.1013C81.9904 26.9772 82.0524 26.8531 82.0524 26.6669C82.0524 26.4187 82.1145 26.2325 82.2386 26.0464C82.3006 25.9843 82.3006 25.8602 82.3006 25.7981C82.1145 25.612 82.2386 25.4879 82.3006 25.3017C82.3627 25.1155 82.4247 24.9294 82.3627 24.7432C82.3627 24.495 82.3627 24.2468 82.4868 23.9986C82.5489 23.8745 82.5489 23.6883 82.5489 23.5642C82.5489 23.4401 82.4868 23.316 82.4868 23.1919C82.5489 23.0057 82.6109 22.7575 82.6109 22.5713C82.6109 22.261 82.673 21.9508 82.735 21.7026C82.7971 21.5164 82.7971 21.3302 82.735 21.1441C82.673 20.8959 82.8591 20.6476 82.7971 20.3994C82.9212 20.3374 82.9212 20.1512 82.8591 20.0892C82.7971 19.7168 82.9212 19.2824 82.9832 18.9101C82.9832 18.6619 83.0453 18.4137 83.0453 18.2275C83.0453 18.1034 83.0453 17.9793 83.1073 17.8552C83.2315 17.669 83.1694 17.4829 83.1694 17.2967C83.1694 17.0485 83.1694 16.8003 83.2935 16.6141C83.3556 16.49 83.3556 16.3659 83.3556 16.2418C83.3556 15.8695 83.4176 15.4971 83.5417 15.1248C83.6038 14.9386 83.6038 14.6904 83.6658 14.4422C83.7899 14.0078 83.7279 13.5735 83.7279 13.1391C83.7279 12.8909 83.852 12.7047 83.9141 12.4565C83.9141 12.3944 83.9761 12.3324 83.9761 12.3324C83.9141 11.7739 84.1002 11.2154 84.0382 10.6569C84.0382 10.4707 84.0382 10.3466 84.1002 10.2225C84.1623 10.0984 84.2243 9.91225 84.2243 9.72609C84.2243 9.60198 84.2864 9.41582 84.2864 9.29171C84.2864 9.1676 84.2243 8.98144 84.3484 8.85733V8.11268C84.2243 7.98857 84.1623 7.92652 84.0382 7.80241C83.5417 8.05062 83.0453 7.98857 82.5489 7.74035C82.3627 7.61624 82.1765 7.55419 81.9904 7.43008C81.6801 7.18186 81.618 6.87159 81.618 6.56132C81.618 6.37516 81.618 6.25105 81.6801 6.06489C81.8042 5.75462 81.9904 5.5064 82.2386 5.25818C82.3627 5.13407 82.6109 5.07202 82.735 4.94791C82.9212 4.76175 83.1073 4.69969 83.3556 4.63764C83.6038 4.57559 83.7899 4.45148 83.9761 4.38942C84.1623 4.14121 84.4105 4.14121 84.6587 4.07915C85.0931 3.95504 85.4654 3.89299 85.8998 3.76888C86.148 3.70683 86.3962 3.70683 86.6444 3.64477C87.0168 3.58272 87.3891 3.58272 87.7614 3.45861C87.8855 3.39655 88.0096 3.45861 88.0717 3.45861C88.3199 3.39655 88.5061 3.39655 88.7543 3.3345C88.8784 3.45861 89.0646 3.39655 89.1887 3.39655C89.4989 3.39655 89.8092 3.3345 90.1815 3.27245C90.3056 3.3345 90.4918 3.39655 90.74 3.52066C90.9882 3.52066 91.2985 3.52066 91.5467 3.52066C91.9191 3.52066 92.2293 3.64477 92.5396 3.76888C92.7878 3.89299 93.0981 3.95504 93.3463 4.0171C93.7807 4.14121 94.2151 4.26531 94.5874 4.51353C95.0838 4.8238 95.5182 5.19613 95.8905 5.56845C96.1387 5.81667 96.3249 6.12694 96.5111 6.43721C96.5731 6.56132 96.6972 6.74748 96.7593 6.87159C96.9454 7.11981 96.9454 7.43008 97.0075 7.74035C97.0696 7.98857 96.9454 8.23679 97.0696 8.42295C97.1316 8.54706 97.0075 8.73322 97.0075 8.85733C96.9454 9.22966 96.8834 9.66403 96.6972 10.0364C96.6352 10.2225 96.5111 10.3466 96.387 10.5328C96.3249 10.719 96.2628 10.8431 96.2008 11.0292C96.1387 11.1533 96.1387 11.2774 96.0767 11.3395C95.7664 11.5877 95.6423 11.96 95.332 12.2083C95.1459 12.3944 94.9597 12.5806 94.7115 12.7047C94.4633 12.8909 94.2771 13.077 94.091 13.3252C93.9668 13.5114 93.7186 13.6976 93.4704 13.8837C93.3463 13.9458 93.1601 14.0078 93.0981 14.1319C92.7878 14.4422 92.4155 14.5663 92.1052 14.9386C92.1673 15.0007 92.2293 15.1248 92.2914 15.1248C92.4775 15.1869 92.6016 15.2489 92.7258 15.2489C92.9119 15.311 93.1601 15.373 93.3463 15.4351C93.5945 15.4971 93.8427 15.4971 94.091 15.6212C94.4633 15.8074 94.8977 15.8695 95.2079 16.1797C95.27 16.2418 95.3941 16.3038 95.4561 16.3659C95.7044 16.6141 95.9526 16.8003 96.2008 16.9244C96.449 17.0485 96.5731 17.2967 96.6972 17.5449C96.8213 17.7311 96.8834 17.9173 97.0075 18.0414V18.1034C97.1316 18.2896 97.1316 18.5378 97.2557 18.724C97.3798 18.9101 97.3798 19.1583 97.4419 19.3445C97.5039 19.5307 97.5039 19.6548 97.4419 19.8409C97.3798 20.0892 97.4419 20.3374 97.4419 20.5235C97.4419 20.8338 97.3798 21.2061 97.2557 21.5164C97.1937 21.6405 97.1316 21.7026 97.0696 21.8267C97.0075 22.0128 97.0075 22.199 96.9454 22.3852C96.8834 22.4472 96.8213 22.5713 96.7593 22.6334C96.6972 22.8195 96.6352 23.0057 96.5731 23.1919C96.5111 23.5021 96.3249 23.7504 96.0767 23.9986C95.7664 24.3088 95.4561 24.6812 95.2079 25.1155C95.1459 25.1776 95.0838 25.2397 95.0218 25.3017C94.7115 25.612 94.4012 25.9223 94.153 26.2325C93.9048 26.6048 93.4704 26.8531 93.0981 27.1013C92.7878 27.3495 92.4775 27.5977 92.1052 27.8459C91.6088 28.1562 91.1123 28.4665 90.6159 28.7767C90.4918 28.8388 90.3677 28.9009 90.2436 28.9009C90.1195 28.9009 89.9333 28.9629 89.8713 29.087C89.623 29.3973 89.2507 29.4593 88.9404 29.5835C88.5681 29.6455 88.1958 29.7696 87.8855 29.9558C87.5753 30.1419 87.265 30.204 86.9547 30.2661C86.7686 30.2661 86.5824 30.3902 86.3962 30.4522C86.3342 30.4522 86.2721 30.5143 86.2101 30.5143C86.0239 30.3281 85.8377 30.5143 85.6516 30.5143C85.4654 30.5763 85.2792 30.4522 85.0931 30.5763C85.031 30.6384 84.9069 30.5763 84.7828 30.5763C84.1623 30.5763 83.5417 30.5763 82.8591 30.5763C82.735 30.5763 82.6109 30.5763 82.5489 30.5763C82.4868 30.5763 82.3627 30.5143 82.3006 30.5143C82.1765 30.3902 81.9904 30.4522 81.8663 30.4522C81.7421 30.3902 81.556 30.3902 81.4319 30.3902C81.1837 30.3902 80.9355 30.2661 80.7493 30.204C80.377 30.1419 80.0667 29.8937 79.7564 29.6455C79.6944 29.5835 79.6323 29.5835 79.5703 29.5835V28.8388H79.9426ZM86.7685 18.724C86.7065 19.2824 86.7065 19.7789 86.6444 20.2753C86.6444 20.3374 86.6444 20.3374 86.6444 20.3994C86.5203 20.7097 86.4583 20.9579 86.5203 21.2682C86.5203 21.3302 86.5203 21.4543 86.5203 21.5164C86.3342 21.8887 86.3962 22.3231 86.3342 22.6954C86.2721 23.0678 86.2721 23.4401 86.2721 23.8124V23.8745C86.148 24.1227 86.0239 24.3709 86.2101 24.6812C86.2101 24.6812 86.2101 24.7432 86.2101 24.8053C86.0859 25.1155 86.086 25.4258 86.0239 25.7361C85.9618 26.0464 85.9618 26.3566 85.9618 26.6048C86.0239 26.6669 86.0239 26.6669 86.0859 26.729C86.3962 26.791 86.6444 26.6049 86.9547 26.4807C87.0788 26.4807 87.265 26.5428 87.3891 26.4807C87.6373 26.4187 87.8855 26.2946 88.0717 26.2325C88.2578 26.1705 88.382 26.0464 88.6302 25.9843C88.8163 25.9223 88.9404 25.7361 89.1887 25.7361C89.3128 25.674 89.4369 25.674 89.561 25.612C89.6851 25.5499 89.8713 25.4879 89.9333 25.3638C90.0574 25.3017 90.1195 25.1776 90.3056 25.1776C90.3677 25.1776 90.4918 25.0535 90.5539 24.9914C90.74 24.8053 90.9262 24.6812 91.1744 24.495C91.4226 24.3709 91.5467 24.1227 91.7329 23.9365C91.9191 23.7504 92.1673 23.6262 92.2914 23.378C92.4155 23.1919 92.5396 23.0678 92.7258 22.9436C92.974 22.7575 93.1601 22.5713 93.2842 22.261C93.4704 21.8267 93.6566 21.3923 93.8427 20.9579C94.0289 20.4615 94.2151 20.0271 94.153 19.4686C93.7807 19.0963 93.3463 18.8481 92.8499 18.724C92.6017 18.6619 92.3534 18.5378 92.0432 18.5378C91.9191 18.5378 91.7949 18.4757 91.6708 18.4137C91.3606 18.3516 91.0503 18.4137 90.74 18.2896C90.5539 18.2275 90.3677 18.2275 90.1815 18.2896C89.9954 18.3516 89.8092 18.2275 89.623 18.2275C88.9404 18.2275 88.3199 18.2275 87.6373 18.2275C87.265 18.3516 86.9547 18.4137 86.7685 18.724ZM93.2842 7.61624C93.036 7.61624 92.8499 7.36803 92.5396 7.30597C92.4155 7.30597 92.2293 7.24392 92.0432 7.11981C91.7329 6.93365 91.6088 6.93365 91.0503 6.93365H90.9882C90.8021 6.74748 90.6159 6.87159 90.4297 6.87159C90.2436 6.87159 90.0574 6.74748 89.8713 6.74748C89.6851 6.74748 89.4989 6.87159 89.3128 6.87159C89.1266 6.87159 89.0025 6.87159 88.8163 6.87159C88.6922 6.9957 88.5061 7.11981 88.382 7.24392C88.3199 7.43008 88.3199 7.61624 88.3199 7.80241C88.3199 7.98857 88.1958 8.17473 88.2578 8.3609C88.3199 8.60911 88.1958 8.85733 88.1337 9.04349C88.0717 9.22966 88.0717 9.41582 88.0717 9.60198C88.0717 10.0364 87.9476 10.4087 88.0096 10.8431V10.9051C87.8235 11.2154 87.8855 11.5877 87.7614 11.898C87.6994 12.0221 87.6994 12.1462 87.6994 12.2703C87.6994 12.4565 87.6994 12.6426 87.6373 12.8909C87.5753 13.015 87.6373 13.1391 87.5753 13.3252C87.5132 13.4493 87.5753 13.5735 87.6373 13.6355C87.9476 13.6976 88.0717 13.6355 88.2578 13.5114C88.382 13.4493 88.444 13.3252 88.5681 13.2632C89.0646 13.015 89.4989 12.6426 89.9954 12.3324C90.0574 12.2703 90.1195 12.2703 90.1815 12.2083C90.3056 12.0842 90.4297 11.96 90.6159 11.898C90.8641 11.7739 91.1744 11.6498 91.2985 11.4016C91.4226 11.1533 91.6088 11.0913 91.7949 10.9051C91.919 10.781 92.0432 10.719 92.1673 10.5948C92.6637 10.1605 93.036 9.66403 93.4084 9.1676C93.6566 8.85733 93.9048 8.485 93.7186 7.98857C93.7186 7.98857 93.7186 7.98857 93.7186 7.92652C93.4704 7.80241 93.4084 7.74035 93.2842 7.61624Z" fill="#892533"/>
</g>
<mask id="mask5_4_203" style="mask-type:luminance" maskUnits="userSpaceOnUse" x="1" y="1" width="168" height="31">
<path d="M168.866 1.72108H1.13367V31.321H168.866V1.72108Z" fill="white"/>
</mask>
<g mask="url(#mask5_4_203)">
<path d="M152.236 30.8866C152.174 30.7625 152.05 30.6384 151.863 30.6384C151.553 30.4522 151.367 30.0799 151.243 29.7076C151.243 29.087 151.243 28.4665 151.243 27.7839C151.243 27.5977 151.367 27.4115 151.305 27.1633C151.305 26.9772 151.243 26.791 151.367 26.6048C151.429 26.4807 151.367 26.3566 151.367 26.2325C151.367 26.0464 151.305 25.7981 151.367 25.612C151.429 25.4258 151.367 25.1776 151.491 25.0535V24.9914C151.491 24.557 151.553 24.0606 151.553 23.6262C151.553 23.4401 151.615 23.1919 151.677 22.9436C151.553 22.8195 151.553 22.6334 151.615 22.5093C151.801 22.0749 151.739 21.6405 151.739 21.2061C151.739 20.8338 151.863 20.5235 151.988 20.1512C151.988 20.0271 151.863 19.903 151.926 19.8409C152.05 19.5307 151.988 19.2204 151.988 18.9101C151.988 18.786 151.988 18.5998 152.05 18.4757C152.112 18.2896 152.174 18.1034 152.174 17.9172C152.174 17.7311 152.236 17.5449 152.236 17.3588C152.236 17.1726 152.236 16.9864 152.298 16.7382C152.36 16.6141 152.298 16.4279 152.298 16.3038C152.298 16.1177 152.236 15.9936 152.36 15.8074C152.422 15.6833 152.298 15.4351 152.422 15.311C152.484 15.2489 152.422 15.1869 152.422 15.1248C152.236 14.6904 152.36 14.256 152.422 13.8837C152.484 13.7596 152.484 13.5734 152.484 13.4493C152.484 13.2011 152.484 12.9529 152.608 12.7047C152.67 12.6426 152.67 12.5185 152.608 12.4565C152.546 12.0221 152.67 11.5877 152.732 11.1533C152.794 10.8431 152.794 10.5328 152.794 10.2225C152.794 10.0363 152.856 9.85019 152.856 9.66402C152.856 9.47786 152.856 9.35375 152.918 9.16759C152.98 8.98143 152.918 8.73321 152.918 8.48499C152.918 8.17472 152.98 7.9265 152.98 7.61623C152.856 7.55418 152.732 7.49212 152.546 7.49212C152.236 7.49212 151.988 7.43007 151.677 7.24391C151.429 7.1198 151.181 6.99569 150.995 6.74747C150.871 6.56131 150.809 6.37515 150.746 6.18898C150.684 6.06488 150.622 5.87871 150.622 5.69255C150.684 5.50639 150.622 5.25817 150.684 5.07201C150.746 4.88585 150.809 4.82379 150.933 4.69968C151.119 4.57557 151.305 4.45147 151.491 4.32736C151.553 4.32736 151.615 4.32736 151.677 4.2653C152.236 4.07914 152.794 3.95503 153.353 3.89298C153.911 3.83092 154.408 3.83092 154.966 3.83092C155.152 3.83092 155.276 3.70681 155.401 3.76887C155.525 3.76887 155.711 3.76887 155.835 3.70681C156.021 3.64476 156.207 3.58271 156.393 3.76887C156.455 3.83092 156.518 3.83092 156.642 3.83092C156.952 3.83092 157.262 3.83092 157.635 3.83092C157.759 3.83092 157.821 3.76887 157.945 3.76887C158.317 3.89298 158.689 3.83092 159.062 3.95503C159.434 4.01709 159.868 4.14119 160.241 4.20325C160.303 4.20325 160.365 4.2653 160.489 4.2653C160.737 4.2653 160.985 4.38941 161.234 4.45147C161.358 4.51352 161.544 4.57557 161.668 4.57557C162.04 4.63763 162.413 4.69968 162.785 4.88585C163.033 5.00995 163.281 5.07201 163.53 5.13406C163.654 5.19612 163.84 5.25817 163.964 5.32023C164.088 5.44433 164.274 5.50639 164.46 5.56844C164.647 5.6305 164.833 5.75461 164.957 5.87871C165.081 6.00282 165.267 6.12693 165.391 6.25104C165.826 6.56131 166.136 6.93364 166.508 7.30596C166.694 7.55418 166.943 7.74034 167.067 7.98856C167.129 8.11267 167.253 8.17472 167.315 8.23678C167.439 8.36088 167.501 8.48499 167.501 8.67115C167.501 8.79526 167.563 8.91937 167.625 9.04348C167.936 9.41581 168.06 9.85019 168.06 10.2846C168.184 10.4707 168.246 10.6569 168.37 10.9051V14.0078V14.5663C168.184 14.6904 168.37 14.9386 168.246 15.0627C168.184 15.1869 168.308 15.373 168.246 15.5592C168.246 15.6212 168.246 15.6212 168.246 15.6833C168.06 16.0556 167.936 16.552 167.811 16.9244C167.749 17.1105 167.687 17.2346 167.687 17.4208C167.687 17.607 167.625 17.7931 167.501 17.9172C167.253 18.4757 167.067 19.0342 166.756 19.5927C166.694 19.7168 166.632 19.7789 166.57 19.903C166.508 20.0891 166.446 20.2753 166.446 20.3994C166.198 20.7097 165.95 21.02 165.764 21.3302C165.702 21.3923 165.702 21.4543 165.702 21.5164C165.64 21.8887 165.329 22.1369 165.143 22.3851C164.957 22.6334 164.771 22.8195 164.647 23.0677C164.523 23.316 164.336 23.5021 164.15 23.7503C163.964 23.9986 163.716 24.2468 163.53 24.495C163.406 24.6812 163.219 24.8673 163.095 25.1155C162.971 25.2396 162.847 25.3017 162.723 25.4258C162.661 25.4879 162.599 25.4879 162.537 25.5499C162.289 25.9843 161.854 26.2946 161.482 26.6669C161.296 26.8531 161.048 27.0392 160.861 27.2874C160.737 27.4736 160.551 27.5357 160.365 27.6598C160.303 27.7218 160.241 27.7218 160.179 27.7839C159.993 27.97 159.806 28.1562 159.558 28.2183C159.434 28.2803 159.248 28.3424 159.186 28.4665C159 28.7147 158.689 28.9008 158.441 29.025C158.193 29.1491 157.883 29.3352 157.635 29.4593C157.262 29.5834 156.952 29.8317 156.58 29.9558C156.331 30.0799 156.083 30.266 155.897 30.3902C155.649 30.4522 155.401 30.4522 155.276 30.5763C155.028 30.7004 154.842 30.7004 154.594 30.7004C154.47 30.7004 154.346 30.7004 154.222 30.7004C154.159 30.8245 153.911 30.7625 153.849 30.9486L152.236 30.8866ZM155.339 26.791C155.525 26.6669 155.711 26.6048 155.897 26.4807C156.207 26.1705 156.642 26.0464 157.014 25.7981C157.076 25.7361 157.2 25.7361 157.262 25.674C157.448 25.4879 157.697 25.3638 157.883 25.2396C158.131 25.1155 158.317 24.9294 158.565 24.8053C158.751 24.6812 158.938 24.495 159.124 24.3088C159.31 23.9986 159.682 23.8745 159.868 23.5642C159.868 23.5021 159.931 23.5021 159.931 23.5021C160.303 23.316 160.551 23.0057 160.737 22.7575C160.985 22.4472 161.234 22.0749 161.544 21.8267C161.73 21.6405 161.854 21.3923 161.978 21.2061C162.102 21.02 162.227 20.8338 162.413 20.6476C162.537 20.5235 162.599 20.3994 162.661 20.3374C162.909 20.0271 163.033 19.6548 163.344 19.4065C163.406 19.3445 163.468 19.2824 163.468 19.1583C163.53 18.8481 163.716 18.5378 163.902 18.2896C163.964 18.2275 164.026 18.1655 164.026 18.0413C164.026 17.8552 164.15 17.669 164.274 17.4829C164.336 17.4208 164.336 17.2967 164.398 17.1726C164.46 16.9864 164.46 16.8003 164.585 16.6141C164.895 16.1177 164.957 15.5592 165.019 15.0007C165.391 14.5663 165.329 14.0078 165.391 13.4493C165.453 13.2011 165.329 12.9529 165.453 12.7047C165.453 12.6426 165.453 12.5185 165.453 12.5185C165.329 12.3944 165.391 12.3324 165.391 12.2082C165.391 11.898 165.391 11.5877 165.267 11.2774C165.205 11.1533 165.205 10.9672 165.143 10.8431C165.081 10.6569 164.957 10.5328 164.833 10.4087C164.585 9.97429 164.336 9.60197 163.964 9.2917C163.53 8.91937 162.971 8.67116 162.475 8.36088C162.413 8.36088 162.413 8.29883 162.413 8.29883C162.102 8.29883 161.792 8.11267 161.482 7.98856C161.296 7.9265 161.047 7.86445 160.799 7.8024C160.489 7.74034 160.179 7.61623 159.931 7.55418C159.744 7.49212 159.558 7.49212 159.372 7.49212C159 7.49212 158.627 7.55418 158.317 7.36802H158.255C157.821 7.36802 157.448 7.30596 157.076 7.55418C157.076 7.61623 157.014 7.74034 157.014 7.8024C156.89 8.11267 156.952 8.48499 156.952 8.85732C156.952 8.98143 157.014 9.16759 156.952 9.2917C156.89 9.47786 156.828 9.66402 156.828 9.91224C156.828 10.1605 156.828 10.3466 156.766 10.5948C156.828 11.1533 156.704 11.7118 156.704 12.2703C156.704 12.5185 156.642 12.7667 156.642 13.077C156.455 13.2011 156.58 13.3873 156.518 13.5114C156.455 13.6355 156.455 13.8217 156.58 13.9458V14.0078C156.455 14.194 156.58 14.3801 156.455 14.5663C156.331 14.7525 156.518 14.9386 156.455 15.0627C156.455 15.1248 156.455 15.1869 156.455 15.1869C156.269 15.6212 156.269 16.0556 156.269 16.4279C156.207 16.8003 156.331 17.1726 156.145 17.4829C156.021 17.7311 156.083 17.9793 156.083 18.2896C156.083 18.4757 156.083 18.6619 156.083 18.8481C156.083 19.0342 156.083 19.2204 156.021 19.4065C155.959 19.5927 155.897 19.7789 155.897 20.0271C155.835 20.2132 155.897 20.4615 155.897 20.7097C155.897 20.7717 155.835 20.8338 155.835 20.8958C155.835 21.082 155.649 21.2682 155.773 21.5164C155.835 21.6405 155.835 21.8267 155.773 21.9508C155.587 22.3231 155.649 22.7575 155.587 23.1919C155.587 23.316 155.649 23.5021 155.525 23.6883C155.463 23.8124 155.463 23.9986 155.587 24.0606C155.525 24.4329 155.401 24.8053 155.339 25.1776C155.276 25.4258 155.401 25.674 155.276 25.9222C155.276 25.9843 155.276 26.0464 155.276 26.0464C155.401 26.2325 155.338 26.4807 155.276 26.6048C155.152 26.6048 155.214 26.6669 155.339 26.791Z" fill="#892533"/>
</g>
<mask id="mask6_4_203" style="mask-type:luminance" maskUnits="userSpaceOnUse" x="1" y="1" width="168" height="31">
<path d="M168.866 1.72108H1.13367V31.321H168.866V1.72108Z" fill="white"/>
</mask>
<g mask="url(#mask6_4_203)">
<path d="M146.341 30.8866C146.279 30.7004 146.092 30.8245 146.03 30.7004C145.534 30.6384 145.224 30.3281 144.975 29.8937C144.975 29.7696 144.913 29.5834 145.038 29.4593C145.038 29.4593 145.038 29.3352 145.038 29.2732C145.038 29.087 144.913 28.9008 144.975 28.7147C145.038 28.5285 144.913 28.4044 144.851 28.2183C144.789 28.0941 144.789 28.0321 144.851 27.97C144.975 27.6598 145.038 27.4115 144.913 27.0392C144.851 26.9151 144.851 26.7289 144.975 26.6048C145.038 26.5428 144.975 26.4807 145.038 26.3566C145.038 26.1084 144.975 25.7981 145.038 25.5499C145.1 25.1776 144.975 24.7432 145.038 24.3709C145.038 24.3088 144.975 24.1847 144.975 24.0606C144.913 23.8124 145.038 23.6262 145.1 23.378C145.162 23.1919 145.162 23.0677 145.1 22.9436C145.1 22.8816 145.1 22.8195 145.1 22.7575C145.1 22.5713 145.162 22.3231 145.038 22.1369C145.038 22.0749 145.038 22.0128 145.038 21.9508C145.162 21.6405 145.1 21.2682 145.1 20.9579C145.1 20.5856 145.1 20.1512 145.1 19.7789C145.1 19.6548 145.038 19.4686 145.038 19.2824C144.851 19.2824 144.727 19.2824 144.541 19.2824C144.293 19.2824 144.107 19.2204 143.858 19.1583C143.734 19.1583 143.61 19.0963 143.486 19.0963C143.3 19.2204 143.176 19.1583 142.99 19.1583C142.804 19.1583 142.555 19.1583 142.369 19.2204C142.245 19.2824 141.997 19.3445 141.811 19.1583C141.811 19.1583 141.749 19.1583 141.687 19.1583C141.314 19.3445 140.88 19.2204 140.508 19.2204C140.073 19.2204 139.701 19.2204 139.266 19.2204C138.956 19.2204 138.646 19.2824 138.336 19.2824C138.274 19.2824 138.212 19.3445 138.149 19.4065C138.025 19.6548 137.901 19.965 137.839 20.2753C137.777 20.5856 137.715 20.8958 137.591 21.2061C137.467 21.5164 137.467 21.8267 137.343 22.0749C137.281 22.261 137.219 22.4472 137.219 22.6334C137.219 22.9436 137.095 23.1919 136.97 23.4401C136.97 23.5021 137.033 23.5021 137.033 23.5642C136.97 23.9365 136.784 24.2468 136.784 24.6812C136.722 25.0535 136.66 25.4879 136.412 25.7981C136.474 26.2946 136.288 26.791 136.102 27.2874C136.04 27.4736 135.978 27.6598 135.978 27.8459C135.978 28.0941 135.916 28.2803 135.791 28.4665C135.543 28.9629 135.171 29.2732 134.799 29.6455C134.674 29.7076 134.55 29.7696 134.426 29.7696C134.178 29.7696 133.93 29.7696 133.744 29.7696C133.557 29.8317 133.309 29.8937 133.123 29.8317C132.751 29.5834 132.254 29.4593 132.068 28.9629C132.13 28.7767 132.13 28.5906 132.192 28.4044C132.316 28.0321 132.254 27.6598 132.44 27.2874C132.503 27.1633 132.503 27.1013 132.627 26.9772C132.627 26.8531 132.565 26.6669 132.627 26.4807C132.689 26.2946 132.627 26.1084 132.751 25.9843C132.689 25.5499 132.875 25.1155 132.999 24.7432C132.937 24.3709 133.185 24.0606 133.185 23.6262C133.185 23.378 133.371 23.1298 133.371 22.8816C133.433 22.6954 133.495 22.5093 133.495 22.3231C133.495 22.261 133.495 22.1369 133.557 22.0749C133.682 21.8267 133.682 21.5784 133.806 21.3923C133.868 21.2061 133.806 21.02 133.93 20.8338C134.054 20.7097 134.054 20.4615 134.054 20.2753C134.054 20.1512 134.116 20.0271 134.116 19.965C134.178 19.7168 134.24 19.4686 134.302 19.2824C134.364 19.0963 134.426 18.9101 134.488 18.7239C134.55 18.5378 134.488 18.2896 134.612 18.1034C134.737 17.9172 134.737 17.7311 134.799 17.4829C134.799 17.2967 134.923 17.1105 135.047 16.9244C135.047 16.8623 135.047 16.7382 135.047 16.552C135.047 16.4279 135.047 16.3659 135.109 16.3038C135.233 16.1177 135.295 15.8695 135.295 15.6212C135.295 15.373 135.357 15.1869 135.481 14.9386C135.667 14.5663 135.729 14.194 135.853 13.8217C135.978 13.5734 136.04 13.2632 136.102 13.015C136.226 12.7047 136.226 12.3944 136.35 12.1462C136.412 12.0841 136.412 11.96 136.412 11.898C136.66 11.5877 136.66 11.2154 136.846 10.8431C136.97 10.5328 137.033 10.2225 137.157 9.91224C137.219 9.78813 137.281 9.60197 137.343 9.47786C137.405 9.16759 137.467 8.91937 137.591 8.6091C137.715 8.29883 137.901 7.92651 138.025 7.55418C138.087 7.36802 138.212 7.1198 138.398 6.93364C138.522 6.74747 138.584 6.56131 138.708 6.37515C138.894 6.06488 139.018 5.75461 139.204 5.50639C139.329 5.32023 139.329 5.13406 139.453 4.9479C139.577 4.76174 139.701 4.63763 139.825 4.45147C139.949 4.2653 140.011 4.07914 140.197 3.95503C140.321 3.83092 140.446 3.70682 140.57 3.52065C140.632 3.39654 140.818 3.33449 140.88 3.27244C141.314 2.776 141.935 2.46573 142.493 2.21751C142.555 2.21751 142.555 2.15546 142.617 2.15546C142.866 2.15546 143.114 2.15546 143.362 2.0934C143.548 2.03135 143.796 2.15546 143.983 2.21751C144.231 2.27957 144.417 2.34162 144.603 2.46573C144.789 2.58984 145.038 2.65189 145.224 2.776C145.348 2.83806 145.472 2.96216 145.534 3.08627V3.14833C145.968 3.4586 146.217 3.89298 146.465 4.38941C146.527 4.51352 146.589 4.63763 146.651 4.76174C146.651 4.82379 146.713 4.88585 146.713 4.9479C146.961 5.25817 147.023 5.69255 147.147 6.06488C147.147 6.12693 147.209 6.18899 147.209 6.18899C147.209 6.56131 147.334 6.93364 147.52 7.24391C147.644 7.55418 147.768 7.8024 147.768 8.17472C147.768 8.29883 147.83 8.42294 147.83 8.6091C147.83 8.73321 147.768 8.85732 147.892 8.98143C147.83 9.22965 147.954 9.41581 147.954 9.66403C147.954 10.0364 148.016 10.3466 148.14 10.6569C148.14 10.7189 148.14 10.781 148.14 10.8431C148.14 11.2774 148.14 11.7118 148.326 12.1462C148.326 12.2082 148.326 12.2703 148.326 12.3324C148.264 12.5806 148.388 12.7667 148.45 12.9529C148.513 13.077 148.513 13.1391 148.513 13.2632C148.451 13.6355 148.451 13.6355 148.513 13.8837C148.513 14.0078 148.575 14.1319 148.513 14.256C148.388 14.5043 148.45 14.7525 148.575 15.0007C148.699 15.311 148.823 15.5592 148.637 15.8695C148.637 15.8695 148.637 15.9315 148.637 15.9936C148.637 16.1177 148.699 16.2418 148.699 16.3038C148.699 16.3659 148.637 16.552 148.637 16.6141C148.699 16.8623 148.699 17.1105 148.761 17.4208C148.761 17.5449 148.699 17.607 148.699 17.7311C148.823 18.0414 148.761 18.4137 148.761 18.7239C148.761 19.0342 148.637 19.4065 148.699 19.7168C148.823 20.4615 148.761 21.2061 148.761 21.9508C148.761 22.1369 148.823 22.261 148.823 22.4472C148.823 22.6334 148.761 22.8195 148.885 22.9436C148.885 23.316 148.947 23.7503 148.761 24.1227C148.761 24.1847 148.699 24.2468 148.699 24.3709C148.761 24.7432 148.761 24.7432 148.699 25.1155C148.637 25.3638 148.637 25.674 148.699 25.8602C148.761 26.1084 148.761 26.3566 148.761 26.6048C148.699 26.791 148.699 26.9772 148.761 27.2254C148.823 27.3495 148.823 27.5357 148.699 27.7218C148.637 27.8459 148.699 27.97 148.699 28.0941C148.699 28.2183 148.823 28.4044 148.823 28.5285C148.823 28.7147 148.823 28.9008 148.761 29.025C148.699 29.1491 148.699 29.2111 148.699 29.3352C148.699 29.6455 148.637 29.9558 148.513 30.266C148.451 30.4522 148.326 30.5763 148.202 30.7625H146.341V30.8866ZM144.479 15.6212C144.665 15.4351 144.727 15.2489 144.665 15.0627C144.665 14.8766 144.665 14.6904 144.665 14.5043C144.665 14.3181 144.603 14.1319 144.603 13.9458C144.541 13.5734 144.541 13.2011 144.541 12.7667V12.7047C144.417 12.3944 144.355 12.1462 144.355 11.8359C144.355 11.7739 144.355 11.7118 144.355 11.6498C144.293 11.4636 144.231 11.2774 144.231 11.0292C144.231 10.781 144.169 10.5948 144.169 10.3466C144.169 10.2225 144.169 10.0364 144.169 9.91224C144.107 9.78813 144.045 9.66403 143.983 9.53992C143.858 9.35375 143.983 9.10554 143.921 8.85732C143.796 8.48499 143.796 8.17472 143.734 7.8024C143.734 7.67829 143.734 7.49213 143.61 7.43007C143.362 7.18185 143.424 6.87158 143.3 6.68542C143.238 6.56131 143.176 6.49926 143.114 6.4372C142.99 6.49926 142.866 6.62337 142.804 6.68542C142.555 7.05775 142.245 7.43007 141.997 7.86445C141.873 8.05061 141.749 8.17472 141.687 8.36089C141.562 8.67116 141.5 9.04348 141.252 9.2917C141.252 9.2917 141.252 9.35375 141.19 9.35375C141.066 9.78813 140.88 10.1605 140.756 10.5948C140.694 10.7189 140.694 10.8431 140.632 10.9672C140.383 11.2774 140.445 11.6498 140.197 11.96C140.197 12.3324 140.011 12.7047 139.825 13.015C139.825 13.077 139.825 13.1391 139.763 13.1391C139.639 13.4493 139.639 13.7596 139.453 14.0078C139.453 14.0078 139.453 14.0699 139.453 14.1319C139.453 14.4422 139.329 14.6904 139.204 15.0007C139.08 15.2489 139.018 15.4351 139.08 15.7453C139.142 15.8074 139.266 15.8695 139.391 15.9315C139.453 15.9936 139.577 15.9936 139.639 15.9936C139.825 15.8695 140.011 15.9315 140.197 15.9315C140.445 15.9315 140.756 15.8695 141.004 15.9936C141.128 16.0556 141.314 15.9315 141.438 15.9315C141.811 15.9315 142.183 15.9315 142.493 15.8695C142.804 15.8074 143.176 15.8074 143.548 15.8695C143.796 15.7453 144.107 15.5592 144.479 15.6212Z" fill="#892533"/>
</g>
<mask id="mask7_4_203" style="mask-type:luminance" maskUnits="userSpaceOnUse" x="1" y="1" width="168" height="31">
<path d="M168.866 1.72108H1.13367V31.321H168.866V1.72108Z" fill="white"/>
</mask>
<g mask="url(#mask7_4_203)">
<path d="M121.829 19.7789C121.519 19.8409 121.519 20.0892 121.457 20.2753C121.395 20.7097 121.271 21.082 121.271 21.5164C121.271 21.7026 121.209 21.8267 121.209 22.0128C121.209 22.1369 121.271 22.3231 121.147 22.4472C121.147 22.4472 121.147 22.5093 121.147 22.5713C121.209 23.0057 121.023 23.378 121.085 23.8124C121.085 23.8745 121.085 23.9365 121.023 23.9365C120.96 24.1227 120.96 24.2468 121.023 24.433C121.085 24.5571 121.085 24.7432 121.023 24.8673C120.96 24.9914 121.023 25.1776 120.96 25.3017C120.836 25.4258 120.898 25.612 120.898 25.7361C120.898 25.8602 120.898 25.9843 120.836 26.0464C120.65 26.2946 120.836 26.4187 120.898 26.6049C120.96 26.6669 121.023 26.729 121.085 26.791C121.333 26.791 121.581 26.8531 121.891 26.8531C122.015 26.8531 122.139 26.9151 122.264 26.791C122.326 26.729 122.512 26.791 122.636 26.791C122.822 26.8531 123.008 26.8531 123.132 26.791C123.256 26.729 123.381 26.729 123.505 26.729C123.877 26.729 124.311 26.729 124.684 26.729C124.994 26.729 125.304 26.6669 125.552 26.6049C125.615 26.6049 125.739 26.6049 125.801 26.6049C126.049 26.6049 126.297 26.6049 126.545 26.6049C126.856 26.6049 127.166 26.5428 127.476 26.5428C127.786 26.5428 128.097 26.6049 128.407 26.5428C128.779 26.4187 129.214 26.4807 129.586 26.4807C130.144 26.4807 130.579 26.729 130.765 27.2254C130.765 27.2874 130.827 27.2874 130.827 27.3495C130.827 27.5977 130.765 27.7839 130.641 28.0321C130.517 28.2183 130.579 28.5285 130.393 28.7147C130.331 28.7768 130.331 28.8388 130.331 28.8388C130.082 28.9629 129.958 29.2111 129.71 29.3973C129.648 29.4593 129.524 29.5214 129.462 29.5835C129.09 29.7076 128.779 29.8317 128.407 30.0178C128.345 30.0178 128.283 30.0178 128.221 30.0178C128.035 29.9558 127.848 30.1419 127.662 30.0799C127.476 30.0799 127.29 30.1419 127.104 30.204C126.918 30.2661 126.731 30.1419 126.607 30.3281C126.173 30.2661 125.801 30.3902 125.366 30.3902C125.242 30.3902 125.118 30.4522 124.994 30.3281C124.932 30.2661 124.808 30.2661 124.746 30.3281C124.498 30.4522 124.249 30.3902 124.001 30.3902C123.815 30.3902 123.629 30.4522 123.443 30.4522C123.256 30.4522 123.008 30.3902 122.822 30.4522C122.636 30.5143 122.45 30.5763 122.264 30.5143C121.705 30.3902 121.209 30.4522 120.65 30.4522C120.588 30.4522 120.526 30.3902 120.464 30.3902C120.092 30.3281 119.657 30.2661 119.285 30.1419C119.099 30.0799 118.851 30.0799 118.664 30.2661C118.106 29.9558 117.547 29.7076 117.237 29.1491C117.237 28.8388 117.175 28.5906 117.051 28.2803C117.051 28.2183 117.113 28.1562 117.113 28.0942C117.113 27.7839 117.113 27.4116 117.175 27.1013C117.237 26.9151 117.175 26.6669 117.237 26.4807C117.299 26.2946 117.175 26.1084 117.299 25.9223C117.299 25.9223 117.299 25.8602 117.299 25.7981C117.237 25.3017 117.423 24.8053 117.361 24.3709C117.361 24.1847 117.485 24.0606 117.423 23.9365C117.61 23.6262 117.423 23.2539 117.61 22.9436C117.547 22.7575 117.672 22.5093 117.547 22.3231V22.199C117.672 22.0128 117.547 21.7646 117.734 21.5785C117.796 21.5164 117.796 21.3923 117.796 21.3302C117.796 21.2061 117.796 21.082 117.796 21.02C117.796 20.7717 117.858 20.5235 117.858 20.2753C117.672 20.0271 117.485 19.965 117.237 19.8409C116.865 19.7168 116.617 19.4686 116.493 19.0963C116.43 18.9722 116.368 18.9101 116.306 18.786C116.306 18.6619 116.306 18.4757 116.244 18.2896C116.182 18.1034 116.306 17.9173 116.368 17.669C116.43 17.4829 116.555 17.2967 116.617 17.1105C116.741 16.8003 116.989 16.5521 117.299 16.428C117.361 16.428 117.361 16.3659 117.423 16.3659C117.672 16.3038 117.982 16.49 118.23 16.2418C118.354 16.1177 118.354 15.9315 118.354 15.8074C118.354 15.6212 118.416 15.4351 118.416 15.2489C118.416 15.0628 118.354 14.8766 118.478 14.6904C118.54 14.6284 118.478 14.5043 118.478 14.3802C118.478 14.1319 118.478 13.8217 118.602 13.5735C118.602 13.5114 118.602 13.4493 118.602 13.4493C118.54 13.077 118.602 12.7047 118.727 12.3944C118.851 12.0221 118.789 11.5877 118.789 11.2154C118.851 10.8431 118.913 10.4087 118.975 10.0364C118.975 9.97431 119.037 9.97431 119.037 9.91225C118.975 9.78815 118.913 9.72609 118.975 9.53993C119.099 9.29171 119.099 9.04349 119.099 8.79528C119.099 8.3609 119.037 7.98857 119.285 7.55419C119.285 7.49214 119.285 7.43008 119.285 7.36803C119.285 7.11981 119.285 6.87159 119.409 6.62338C119.471 6.56132 119.409 6.43721 119.409 6.31311C119.409 6.00284 119.533 5.69256 119.719 5.5064C119.968 5.19613 120.34 4.94791 120.774 4.94791C120.836 4.94791 120.898 4.88586 121.023 4.88586C121.085 4.88586 121.147 4.94791 121.271 4.94791C121.581 4.94791 121.891 5.00997 122.202 4.88586C122.388 4.8238 122.574 4.88586 122.76 4.8238C122.76 4.8238 122.884 4.8238 122.884 4.88586C122.946 4.88586 123.008 4.94791 123.008 4.94791C123.132 4.94791 123.256 4.88586 123.381 4.88586C123.505 4.88586 123.629 4.88586 123.753 4.88586C124.125 4.8238 124.187 4.8238 124.622 4.88586C124.808 4.94791 125.056 4.94791 125.242 4.8238C125.304 4.8238 125.304 4.8238 125.366 4.8238C125.428 4.8238 125.428 4.8238 125.49 4.8238C126.421 4.88586 127.352 4.6997 128.283 4.76175C128.469 4.76175 128.593 4.6997 128.779 4.6997C128.965 4.6997 129.152 4.76175 129.276 4.63764C129.338 4.57559 129.4 4.63764 129.462 4.63764C130.207 4.63764 130.951 4.63764 131.758 4.63764C131.882 4.63764 132.006 4.6997 132.13 4.6997C132.378 4.8238 132.565 4.94791 132.813 5.07202C133.061 5.25818 133.185 5.5064 133.309 5.75462C133.433 5.94078 133.309 6.12694 133.371 6.31311C133.309 6.49927 133.247 6.62338 133.185 6.74749C133.185 6.74749 133.247 6.74749 133.247 6.80954C133.185 6.87159 133.061 6.93365 132.999 6.9957C132.689 7.43008 132.192 7.61625 131.696 7.80241C131.448 7.86446 131.199 7.92652 130.889 7.98857C130.455 8.05063 130.082 8.17473 129.648 8.17473C129.524 8.17473 129.4 8.23679 129.338 8.23679C129.214 8.23679 129.028 8.29884 128.841 8.17473C128.841 8.17473 128.717 8.17473 128.655 8.17473C128.221 8.3609 127.786 8.23679 127.352 8.23679C126.98 8.23679 126.545 8.3609 126.173 8.29884C125.863 8.48501 125.49 8.3609 125.118 8.3609C124.932 8.3609 124.684 8.29884 124.498 8.42295C124.435 8.48501 124.311 8.42295 124.249 8.42295C124.187 8.3609 124.063 8.3609 124.001 8.3609C123.877 8.3609 123.008 8.54706 122.884 8.60911C122.636 8.73322 122.636 8.98144 122.574 9.1676C122.574 9.29171 122.574 9.41582 122.574 9.47787C122.574 9.66404 122.574 9.78815 122.512 9.97431C122.45 10.1605 122.45 10.4087 122.388 10.6569C122.326 10.9672 122.326 11.2774 122.326 11.5877C122.326 11.6498 122.264 11.7739 122.264 11.8359C122.139 12.1462 122.202 12.4565 122.202 12.7667C122.202 12.9529 122.202 13.077 122.139 13.2632C122.077 13.3873 122.015 13.5735 122.077 13.7596C122.077 13.8217 122.077 13.8837 122.077 13.9458C122.015 14.0699 122.015 14.194 122.015 14.2561C122.139 14.5043 122.077 14.6904 122.015 14.9386C121.953 15.1248 122.015 15.311 121.891 15.4971C121.767 15.6833 121.829 15.8695 121.829 15.9936C121.953 16.0556 122.015 16.1797 122.139 16.3038C122.76 16.3038 123.443 16.3038 124.187 16.3038C124.311 16.3038 124.435 16.2418 124.56 16.2418C124.684 16.2418 124.808 16.2418 124.994 16.2418C125.118 16.2418 125.18 16.3038 125.304 16.3038C125.49 16.3659 125.677 16.428 125.863 16.428C126.732 16.428 127.6 16.428 128.531 16.428C128.717 16.428 128.841 16.428 128.965 16.49C129.09 16.5521 129.214 16.5521 129.338 16.5521C129.462 16.5521 129.586 16.6141 129.71 16.6141C130.082 16.6141 130.269 16.8623 130.393 17.1105C130.455 17.1726 130.517 17.2347 130.517 17.2967C130.641 17.7931 130.331 18.1655 130.144 18.5378C130.082 18.5999 130.082 18.724 130.02 18.786C129.834 18.9722 129.71 19.2824 129.4 19.2824C129.152 19.2824 128.841 19.2824 128.593 19.4686C128.593 19.4686 128.531 19.4686 128.469 19.4686C128.097 19.4066 127.786 19.5927 127.414 19.5307C127.352 19.5307 127.29 19.5307 127.29 19.5927C126.856 19.7789 126.421 19.7168 125.987 19.5927C125.925 19.5927 125.863 19.5307 125.739 19.5307C125.615 19.5307 125.49 19.5927 125.366 19.5927C125.242 19.5927 125.118 19.5307 124.994 19.6548C124.684 19.5927 124.435 19.903 124.125 19.6548C123.691 19.6548 123.319 19.6548 122.884 19.6548C122.76 19.6548 122.636 19.7168 122.574 19.7789C122.388 19.8409 122.202 19.903 122.139 19.7789C122.077 19.7168 121.953 19.7789 121.829 19.7789Z" fill="#892533"/>
</g>
<mask id="mask8_4_203" style="mask-type:luminance" maskUnits="userSpaceOnUse" x="1" y="1" width="168" height="31">
<path d="M168.866 1.72108H1.13367V31.321H85H168.866V1.72108Z" fill="white"/>
</mask>
<g mask="url(#mask8_4_203)">
<path d="M115.686 8.85732C115.686 8.79526 115.686 8.67116 115.624 8.6091C115.5 8.42294 115.5 8.17472 115.5 7.98856C115.5 7.9265 115.5 7.86445 115.5 7.8024C115.251 7.30596 115.127 6.80953 114.755 6.37515C114.631 6.25104 114.507 6.06488 114.383 5.94077C114.197 5.6305 114.01 5.38228 113.638 5.32023C113.638 5.32023 113.576 5.32023 113.576 5.25817C113.328 4.9479 112.955 4.88585 112.583 4.69968C112.211 4.51352 111.776 4.32736 111.342 4.14119C111.156 4.07914 110.97 4.14119 110.784 4.01709C110.659 3.95503 110.473 3.95503 110.349 3.95503C110.039 3.89298 109.667 3.89298 109.356 3.89298C109.294 3.89298 109.294 3.89298 109.232 3.83092C108.86 3.70681 108.488 3.70681 108.115 3.64476C108.053 3.64476 107.991 3.64476 107.929 3.64476C107.805 3.76887 107.619 3.70681 107.495 3.70681C107.122 3.70681 106.812 3.70681 106.44 3.70681C106.378 3.70681 106.254 3.70681 106.192 3.76887C106.005 3.83092 105.757 3.83092 105.571 3.70681C105.199 3.83092 104.888 3.95503 104.516 3.95503C104.392 3.95503 104.268 3.95503 104.144 4.01709C103.833 4.07914 103.461 4.2653 103.089 4.20325C103.027 4.20325 102.965 4.20325 102.903 4.2653C102.406 4.38941 102.096 4.76174 101.848 5.19612C101.662 5.56844 101.662 6.06488 101.6 6.49926C101.537 6.68542 101.662 6.87158 101.537 7.1198C101.475 7.30596 101.537 7.49212 101.475 7.67829C101.413 7.8024 101.475 8.05061 101.537 8.29883C101.475 8.42294 101.351 8.6091 101.351 8.73321C101.351 8.98143 101.227 9.22964 101.227 9.41581C101.227 9.66402 101.227 9.91224 101.227 10.1605C101.227 10.4087 101.165 10.5948 101.103 10.781C101.041 10.9051 101.041 11.0292 101.041 11.0913C101.103 11.2774 101.103 11.4636 101.041 11.7118C100.979 12.0841 101.103 12.4565 100.855 12.8288C100.855 13.2632 100.731 13.6355 100.793 14.0699C100.793 14.256 100.793 14.4422 100.731 14.5663C100.607 14.7525 100.669 14.9386 100.669 15.1248C100.669 15.2489 100.669 15.373 100.607 15.4971C100.545 15.6833 100.483 15.9315 100.483 16.1177C100.42 16.49 100.483 16.8623 100.42 17.1726C100.358 17.5449 100.358 17.9172 100.358 18.3516C100.296 18.786 100.172 19.2824 100.234 19.7168V19.7789C100.11 19.903 100.172 20.0271 100.172 20.1512C100.172 20.2753 100.11 20.3994 100.11 20.5235C100.11 20.6476 100.048 20.7717 100.048 20.9579C100.048 21.2061 100.11 21.5164 99.9861 21.7646C99.9861 22.199 99.924 22.5713 99.862 23.0057C99.7999 23.5021 99.7999 23.9986 99.7999 24.4329C99.7999 24.6191 99.7999 24.8053 99.7379 24.9914C99.6138 25.1776 99.6758 25.3017 99.6758 25.4879C99.6758 25.9843 99.6138 26.4807 99.6138 26.9151V26.9772C99.4276 27.1633 99.5517 27.4115 99.4897 27.6598C99.4276 27.8459 99.4276 28.0941 99.4276 28.3424C99.4276 28.5906 99.4897 28.8388 99.6758 29.087C99.7999 29.2111 99.9241 29.3973 100.11 29.5214C100.296 29.6455 100.545 29.8317 100.855 29.7076C100.979 29.6455 101.165 29.6455 101.289 29.6455C101.475 29.6455 101.662 29.5834 101.848 29.5214C102.034 29.4593 102.158 29.3352 102.344 29.3352C102.406 29.3352 102.53 29.2111 102.592 29.1491C102.716 29.087 102.779 28.9629 102.903 28.9008C102.903 28.9008 102.903 28.9008 102.841 28.9008C102.903 28.7767 102.965 28.6526 103.027 28.4665C103.027 28.4044 103.027 28.3424 103.027 28.2803C103.213 27.908 103.027 27.5357 103.151 27.1633C103.213 26.9151 103.151 26.6669 103.213 26.4187C103.275 26.2325 103.275 26.0464 103.275 25.8602C103.275 25.674 103.275 25.4879 103.275 25.3017C103.275 25.1155 103.275 24.8673 103.399 24.7432C103.461 24.6191 103.461 24.495 103.461 24.3709C103.461 24.3088 103.461 24.1847 103.461 24.1847C103.585 23.9986 103.461 23.8124 103.523 23.6262C103.585 23.4401 103.585 23.2539 103.585 23.0677C103.585 22.9436 103.585 22.8195 103.585 22.7575C103.585 22.5093 103.709 22.261 103.958 22.1369C104.206 22.4472 104.454 22.8195 104.702 23.0677C105.012 23.378 105.199 23.7503 105.509 24.1227C105.757 24.3709 105.881 24.6812 106.129 24.8673C106.192 24.9294 106.316 24.9914 106.316 25.0535C106.44 25.3017 106.688 25.4258 106.874 25.674C106.936 25.7361 107.06 25.7361 107.122 25.7981C107.309 26.1705 107.681 26.4187 107.991 26.7289C108.239 26.9772 108.55 27.1013 108.736 27.4115C108.798 27.5357 108.984 27.6598 109.108 27.7218C109.356 27.8459 109.605 27.97 109.729 28.2183C109.791 28.3424 109.915 28.4044 109.977 28.4665C110.225 28.6526 110.411 28.7767 110.659 28.9008C110.908 29.025 111.032 29.2732 111.342 29.3352C111.59 29.3973 111.776 29.4593 111.963 29.7076C112.025 29.7696 112.149 29.8317 112.211 29.8317C112.707 29.7696 113.204 29.9558 113.638 29.8937C113.762 29.8317 113.824 29.7696 113.948 29.7076C114.072 29.5834 114.259 29.4593 114.383 29.3973C114.569 29.2111 114.631 28.9629 114.569 28.7147C114.507 28.5906 114.569 28.4044 114.507 28.3424C114.445 28.2183 114.383 28.1562 114.383 28.0941C114.072 27.6598 113.7 27.2874 113.452 26.791C113.452 26.7289 113.39 26.6669 113.328 26.6669C113.018 26.5428 112.831 26.2325 112.583 26.0464C112.273 25.8602 112.087 25.5499 111.838 25.3017C111.776 25.2396 111.714 25.1155 111.59 25.0535C111.218 24.8673 110.97 24.495 110.659 24.3088C110.597 24.2468 110.535 24.2468 110.535 24.1847C110.535 23.9986 110.287 23.9365 110.287 23.8124C110.225 23.6262 110.039 23.6262 109.915 23.5642C109.853 23.5642 109.791 23.5021 109.791 23.4401C109.605 23.2539 109.418 23.0677 109.232 22.8195C109.17 22.6954 109.046 22.5713 108.86 22.5093C108.736 22.4472 108.612 22.261 108.55 22.1369C108.425 21.9508 108.239 21.7026 108.115 21.5164C107.805 21.2061 107.557 20.8958 107.371 20.5235C107.309 20.4615 107.246 20.3994 107.184 20.3374C107.06 20.2132 106.936 20.0891 106.874 19.8409C106.874 19.7168 106.75 19.6548 106.688 19.5307C106.626 19.4686 106.626 19.4065 106.626 19.3445C106.812 19.1583 106.936 19.0342 107.184 18.9722C107.433 18.8481 107.681 18.7239 107.929 18.5378C108.177 18.3516 108.488 18.2896 108.736 18.0413C108.798 17.9793 108.922 17.9793 108.984 17.9793C109.108 17.9793 109.232 17.9172 109.294 17.8552C109.48 17.7311 109.605 17.607 109.791 17.4829C109.853 17.4208 109.915 17.3588 110.039 17.2967C110.535 16.9864 111.094 16.6762 111.59 16.3659C111.776 16.2418 111.963 16.1797 112.087 16.0556C112.397 15.6833 112.893 15.4971 113.204 15.1248C113.576 15.0007 113.638 14.5663 113.948 14.3801C114.072 14.0078 114.383 13.8217 114.631 13.5734C114.817 13.3873 114.941 13.2011 115.065 13.015C115.189 12.7667 115.314 12.5806 115.376 12.3944C115.5 12.2082 115.624 11.96 115.686 11.7118C115.748 11.4636 115.872 11.2774 115.934 11.0292C116.058 10.781 116.12 10.4707 116.12 10.1605C115.686 9.66402 115.686 9.2917 115.686 8.85732ZM112.087 10.0363C112.025 10.2225 111.901 10.4087 111.838 10.5948C111.776 10.8431 111.652 11.0292 111.466 11.2154C111.218 11.5257 111.032 11.8359 110.721 12.0841C110.287 12.4565 109.853 12.8288 109.418 13.2011C109.294 13.3252 109.108 13.4493 108.922 13.5734C108.612 13.7596 108.363 14.0078 108.053 14.194C107.867 14.3181 107.681 14.4422 107.433 14.5043C107.184 14.6284 106.936 14.6904 106.75 14.8766C106.44 15.1248 106.067 15.373 105.695 15.4971C105.571 15.5592 105.385 15.6833 105.261 15.7453C105.075 15.8695 104.826 15.9315 104.578 16.0556C104.454 16.0556 104.268 16.1177 104.144 15.9315C104.144 15.5592 104.206 15.1869 104.268 14.8145C104.268 14.6904 104.33 14.5043 104.454 14.3801C104.578 14.256 104.516 14.1319 104.516 14.0078C104.454 13.8837 104.454 13.6976 104.454 13.5734C104.578 13.3873 104.516 13.2011 104.516 13.015C104.516 12.7667 104.516 12.4565 104.64 12.2703C104.64 12.2082 104.64 12.1462 104.702 12.0841C104.702 11.898 104.64 11.6498 104.764 11.4636C104.826 11.4015 104.764 11.2774 104.764 11.1533C104.764 11.0292 104.702 10.9051 104.702 10.781C104.764 10.5328 104.826 10.2846 104.95 9.9743C104.95 9.9743 104.888 9.91224 104.888 9.85019C105.012 9.47786 104.888 9.04348 105.137 8.67116C104.888 8.36088 105.137 8.05061 105.137 7.74034C105.323 7.43007 105.695 7.36802 106.005 7.36802C106.998 7.36802 108.053 7.36802 109.046 7.36802C109.232 7.36802 109.418 7.43007 109.542 7.49212C109.791 7.61623 110.039 7.61623 110.287 7.61623C110.411 7.61623 110.535 7.61623 110.597 7.67829C110.908 7.86445 111.28 8.05061 111.59 8.23678C111.714 8.29883 111.901 8.42294 111.963 8.6091C112.025 8.73321 112.087 8.79526 112.087 8.98143C112.025 9.35375 112.087 9.66402 112.087 10.0363Z" fill="#892533"/>
</g>
</svg>
