<svg width="136" height="102" viewBox="0 0 136 102" fill="none" xmlns="http://www.w3.org/2000/svg">
<g clip-path="url(#clip0_4_146)">
<mask id="mask0_4_146" style="mask-type:luminance" maskUnits="userSpaceOnUse" x="0" y="0" width="136" height="102">
<path d="M0.90036 0.709961H135.713V101.436H0.90036V0.709961Z" fill="#892533"/>
</mask>
<g mask="url(#mask0_4_146)">
<path fill-rule="evenodd" clip-rule="evenodd" d="M135.483 64.4555C135.37 64.1489 135.353 63.8389 135.407 63.5425C135.407 63.5328 135.404 63.5245 135.404 63.5148L135.44 63.254C135.219 62.6269 135.263 61.8962 135.575 61.3126C135.561 61.0579 135.548 60.8028 135.534 60.5494C135.433 58.7178 135.24 56.7114 135.713 54.9017C135.641 54.3954 135.591 53.8996 135.595 53.4315C135.601 52.8387 135.541 52.2687 135.3 51.7215C135.271 51.6544 135.27 51.5714 135.271 51.4958C135.272 50.9601 135.315 50.4178 134.957 49.9545C135.031 49.2541 134.73 48.6125 134.642 47.9402C134.598 47.6078 134.48 47.2868 134.413 46.9702C134.117 46.6281 133.937 46.163 133.958 45.5706C134.004 44.2361 132.676 42.8019 132.397 41.4415C132.297 40.9558 132.236 40.4679 132.2 39.9792C132.121 39.818 132.035 39.6595 131.958 39.4957C131.813 39.1857 131.628 38.8647 131.6 38.5367C131.563 38.1081 131.36 37.7704 131.147 37.4472C130.961 37.1653 130.832 36.9031 130.758 36.5658C130.672 36.168 130.484 35.7631 130.237 35.4382C130.035 35.1712 129.903 34.8813 129.747 34.5994C129.367 33.9082 128.983 33.2144 128.631 32.5118C128.219 31.688 127.786 30.8756 127.233 30.1523C126.726 29.4879 126.42 28.6839 125.777 28.12C125.271 27.1021 124.249 26.4733 123.734 25.4611C123.644 25.2841 123.511 25.1287 123.405 24.9592C123.339 24.8555 123.309 24.7181 123.222 24.6404C122.918 24.3646 122.502 24.163 122.306 23.8302C122.082 23.4495 121.761 23.2488 121.439 23.0068C121.307 22.9076 121.241 22.7223 121.15 22.5734C120.892 22.1575 120.613 21.7711 120.152 21.5427C119.993 21.4637 119.873 21.3052 119.742 21.177C119.444 20.8832 119.148 20.5863 118.85 20.2917C118.763 20.2587 118.674 20.228 118.591 20.185C117.292 19.5017 116.438 18.3459 115.432 17.3302C115.248 17.1449 115.108 16.9376 115.005 16.7189C114.579 16.3614 114.143 16.0132 113.702 15.6729C113.591 15.5873 113.467 15.5188 113.342 15.452C113.086 15.4112 112.84 15.3185 112.622 15.1604C111.094 14.045 109.627 12.8238 108.071 11.7383C106.909 11.0493 105.677 10.4762 104.59 9.659C104.298 9.43944 103.948 9.27915 103.602 9.15312C103.052 8.95244 102.575 8.64417 102.111 8.30384C101.972 8.20021 101.804 8.02807 101.668 8.04388C101.156 8.10623 100.883 7.72551 100.518 7.5156C100.346 7.41724 100.173 7.253 99.9952 7.24554C99.9824 7.27408 99.9731 7.30394 99.9611 7.33249C99.9364 7.29823 99.9054 7.26354 99.8881 7.22973C99.2423 7.1744 98.7112 6.85823 98.2234 6.49199C97.6033 6.0252 96.8694 5.88599 96.1696 5.64271C96.0523 5.60187 95.9111 5.60583 95.812 5.54215C95.1848 5.13815 94.4438 4.95679 93.7826 4.52688C93.4391 4.54006 93.0607 4.54313 92.7375 4.2577C92.418 3.9749 92.0077 4.06097 91.6204 4.04867C91.2109 3.88883 90.8816 3.5283 90.3797 3.56387C90.2469 3.57353 90.0884 3.48878 89.9711 3.40622C89.6206 3.16075 89.2351 3.08258 88.8163 3.094C88.5871 3.09971 88.3812 3.06238 88.1515 2.95743C87.7961 2.79495 87.3818 2.73084 86.9852 2.68824C86.4757 2.63335 86.057 2.33474 85.5706 2.23111C85.3975 2.19466 85.1492 2.08312 85.0594 2.1569C84.6247 2.50776 84.2795 2.16392 83.9462 2.02428C83.6279 1.89166 83.3283 1.81833 82.9883 1.8192C82.1695 1.82052 81.4099 1.52016 80.6433 1.28961C80.468 1.23692 80.2972 1.175 80.1285 1.19388C79.5186 1.26151 79.2889 1.24833 78.6258 1.07137C78.4784 1.03228 78.3178 1.03097 78.1628 1.02965C77.6016 1.0257 77.0404 1.01955 76.4796 1.02965C75.3221 1.05204 74.1806 0.755631 73.0182 0.861461C72.9819 0.864535 72.9364 0.763096 72.8948 0.709961H71.2911C71.2491 0.763096 71.2088 0.860583 71.1641 0.861461C70.8436 0.875513 70.5223 0.856191 70.2027 0.872878C69.8207 0.8922 69.4343 0.793835 69.0577 1.01296C68.8988 1.10518 68.6088 1.09464 68.4309 1.01647C67.8196 0.74597 67.1867 0.92777 66.5683 0.870244C66.3833 0.852678 66.2209 0.972561 66.0686 1.00242C65.6977 1.07532 65.344 1.24877 64.9364 1.19827C64.5159 1.14733 64.0396 1.07532 63.6678 1.21847C63.2814 1.36646 62.8512 1.22243 62.494 1.4903C62.3971 1.56275 62.158 1.44111 61.9819 1.41784C61.7517 1.38842 61.4538 1.26678 61.3011 1.36339C60.5097 1.86839 59.5063 1.6093 58.7229 2.11167C58.6277 2.1727 58.4666 2.14153 58.336 2.14021C57.5388 2.1323 56.7966 2.42345 56.0264 2.54772C55.4262 2.64389 54.8512 2.82262 54.259 2.9302C53.8571 3.00354 53.495 3.10059 53.1409 3.3386C52.8001 3.56782 52.4181 3.79353 51.9459 3.74391C51.7617 3.72503 51.5563 3.81944 51.374 3.89541C50.842 4.11542 50.2555 4.07458 49.7133 4.3385C49.2392 4.56992 48.6939 4.71 48.1667 4.8536C47.6436 4.99587 47.1093 5.14957 46.6344 5.39943C46.3732 5.53644 46.0683 5.35025 45.8372 5.62998C45.6748 5.82671 45.3826 5.92376 45.1405 6.05067C44.8953 6.17889 44.6545 6.33917 44.354 6.27682C44.0955 6.2228 43.933 6.42568 43.729 6.50868C43.0668 6.77918 42.4751 7.19197 41.7792 7.40977C41.4583 7.51077 41.2012 7.81202 40.9135 8.01973C40.8325 8.07857 40.7515 8.16947 40.6616 8.18089C39.8552 8.28891 39.2342 8.86725 38.4516 9.03587C38.3352 9.06134 38.2006 9.11843 38.1254 9.20494C37.7797 9.60235 37.3021 9.77317 36.8475 9.99054C36.1482 10.3234 35.471 10.6936 34.8526 11.1657C34.6751 11.3009 34.4746 11.4098 34.283 11.5271C33.7718 11.8393 33.2362 12.1173 32.7577 12.4721C32.4116 12.7294 32.0561 12.9643 31.6945 13.1966C31.4382 13.3613 31.2081 13.5681 30.9651 13.7539C30.7429 13.9243 30.5388 14.1355 30.2905 14.2519C29.8156 14.4741 29.4513 14.8214 29.0822 15.1657C28.9768 15.5231 28.7914 15.8762 28.5373 16.0743C28.5174 16.0901 28.4966 16.1028 28.4767 16.1186C28.1681 16.7044 27.5941 17.1431 26.754 17.1866C26.7172 17.2055 26.6818 17.2261 26.6451 17.2445C26.6101 17.2819 26.5707 17.3144 26.5366 17.353C26.3897 17.4039 26.2569 17.472 26.1299 17.5449C25.9072 17.9735 25.5438 18.3239 25.0388 18.5013C24.8693 18.6866 24.7002 18.8728 24.5214 19.0459C23.0103 20.5073 21.5332 22.0025 20.0372 23.4798C19.5782 23.9325 19.1537 24.4076 18.8434 24.9781C18.7832 25.0896 18.6557 25.1638 18.5654 25.2617C17.9042 25.9762 17.2269 26.6753 16.744 27.5334C16.644 27.7117 16.4431 27.8324 16.2992 27.9887C15.9376 28.3826 15.5242 28.7102 15.3024 29.2482C15.1537 29.6105 14.7195 29.852 14.4313 30.1638C14.2605 30.3491 14.087 30.5484 13.9821 30.7728C13.8126 31.1334 13.5988 31.464 13.3699 31.7837C13.3792 31.7863 13.396 31.8272 13.4084 31.8513C13.3713 31.8632 13.3336 31.8759 13.2956 31.8838C13.1083 32.1385 12.9149 32.3884 12.7241 32.64C12.1952 33.34 11.6588 34.0303 11.3073 34.8418C11.2396 35.0003 11.1404 35.1536 11.0249 35.2818C10.3256 36.0547 9.85064 36.9343 9.53682 37.9337C9.35579 38.5094 8.99947 39.0504 8.63652 39.5453C8.19036 40.1527 7.88539 40.8346 7.48084 41.4608C7.3361 41.6848 7.25377 41.95 7.15639 42.2012C7.07628 42.4072 7.0661 42.6579 6.93862 42.8248C6.54159 43.3443 6.37605 43.977 6.05869 44.5352C5.75903 45.063 5.67272 45.6949 5.39475 46.2478C5.11811 46.7976 5.02959 47.4172 4.75693 47.9744C4.48826 48.5234 4.28023 49.103 4.06113 49.6761C3.85133 50.2263 3.66188 50.7844 3.46802 51.3408C3.44323 51.4106 3.47156 51.5094 3.43172 51.5635C2.88508 52.299 2.74079 53.1254 2.81426 54.0191C2.83108 54.2299 2.71644 54.4512 2.66421 54.6677C2.43316 55.6302 2.3079 56.6183 1.91397 57.54C1.84625 57.6977 1.85377 57.8979 1.86661 58.0753C1.9268 58.8776 1.67406 59.6171 1.47533 60.3781C1.34874 60.8634 1.43284 61.4017 1.42221 61.9168C1.70505 62.1606 1.49525 62.3885 1.37529 62.5931C1.24207 62.8192 1.06059 63.0177 0.90036 63.2281V63.3875C1.23011 63.5469 0.932672 63.9456 1.19028 64.1336C0.930458 64.4256 1.12167 64.7778 1.05528 65.0948C1.03979 65.169 0.953917 65.2292 0.90036 65.2964V67.6822C0.944622 67.7173 0.988885 67.7533 1.03315 67.7893C0.988885 67.8065 0.944622 67.8236 0.90036 67.8416V69.4321C1.2372 69.4646 0.961885 69.7782 1.12875 69.9257C1.22923 70.0148 1.25357 70.2713 1.20843 70.4224C1.1168 70.7302 1.14646 71.0841 0.90036 71.3406V71.5004C1.2372 71.5782 1.33192 71.9097 1.3567 72.1337C1.40274 72.5385 1.60457 72.9087 1.55279 73.3386C1.48595 73.8968 1.57182 74.4387 1.84625 74.9634C1.99098 75.2387 1.94628 75.6054 2.02861 75.9212C2.1282 76.3001 2.27293 76.6681 2.39643 77.0409C2.43493 77.1582 2.53674 77.3294 2.49292 77.3865C2.1459 77.838 2.47787 78.1858 2.64429 78.5577C2.87667 79.0789 3.01123 79.6331 3.13251 80.1833C3.21306 80.5509 3.29008 80.9268 3.47997 81.2329C3.73934 81.6496 3.85177 82.1085 3.92702 82.5582C4.02262 83.1317 4.28952 83.5914 4.63256 84.02C4.84147 84.2818 4.98134 84.5452 5.09067 84.8702C5.28366 85.4472 5.53418 86.0339 5.89049 86.5218C6.35082 87.1519 6.62525 87.8875 7.14444 88.4807C7.59282 88.9932 7.96374 89.5715 8.36652 90.1226C8.86005 90.8002 9.47308 91.3768 9.91925 92.1044C10.3119 92.7429 10.9917 93.1623 11.6079 93.5983C11.8221 93.7494 11.9863 93.8934 12.135 94.1099C12.4271 94.5354 12.7945 94.8964 13.2659 95.1494C13.8697 95.4739 14.4544 95.8287 14.9439 96.3205C15.1015 96.4799 15.2936 96.6371 15.4998 96.7087C15.9903 96.8804 16.3098 97.3028 16.7719 97.5044C16.9977 97.6019 17.1929 97.7701 17.4713 97.7582C17.6041 97.753 17.759 97.8232 17.8727 97.9049C18.3884 97.8764 18.9125 98.0757 19.2816 98.5974C19.4879 98.6791 19.6937 98.763 19.8924 98.8609C20.0921 98.9584 20.2917 99.1099 20.4993 99.1244C20.6453 99.1353 20.7843 99.1643 20.9202 99.2017C21.5284 99.2508 22.1432 99.2517 22.4287 99.2895C24.1752 99.5178 25.8873 100.081 27.5569 100.624C27.7291 100.681 27.876 100.757 28.007 100.847C28.2359 100.77 28.478 100.725 28.7263 100.715C28.952 100.705 29.1725 100.742 29.3827 100.812C29.7625 100.775 30.1493 100.79 30.5238 100.854C31.2935 100.984 32.2983 100.914 33.295 100.838C33.5588 100.773 33.8421 100.734 34.1524 100.734C34.2675 100.734 34.3755 100.746 34.4839 100.755C34.6796 100.745 34.8721 100.737 35.0562 100.734C35.0979 100.734 35.1377 100.738 35.1789 100.739C35.6706 100.403 36.2907 100.187 37.0463 100.196C37.7717 100.205 38.1612 100.557 38.8792 100.718C39.1235 100.725 39.3776 100.786 39.6166 100.888C39.9322 100.792 40.2788 100.734 40.6638 100.734C41.353 100.734 41.928 100.91 42.3976 101.194C42.4622 101.204 42.526 101.216 42.587 101.231C44.2469 101.223 45.9058 101.258 47.5595 101.422C47.814 101.316 48.1074 101.253 48.4407 101.253C48.454 101.253 48.4668 101.255 48.4792 101.255C49.1715 101.01 49.8151 101.198 50.6118 101.198C51.3961 101.198 52.0693 101.223 52.6762 101.355C53.152 101.46 53.7053 101.435 54.2063 101.43C55.4625 101.418 56.7071 101.313 57.9584 101.429C58.6923 101.401 59.4209 101.265 60.1503 101.214C60.9851 101.156 61.8261 101.019 62.6662 100.939C62.8826 100.918 63.1017 100.918 63.3434 101.039C63.5913 101.162 63.9339 101.115 64.2508 101.017C64.5305 100.93 64.8771 100.909 65.155 100.99C65.4954 101.089 65.7473 101.062 66.0961 100.96C66.7706 100.763 67.4576 100.536 68.1994 100.6C68.8359 100.656 69.4812 100.619 70.1222 100.606C70.2908 100.603 70.459 100.537 70.7016 100.484C70.7551 100.504 70.8919 100.598 71.0318 100.605C71.4846 100.624 72.0024 100.747 72.3769 100.575C72.7965 100.384 73.2803 100.651 73.6237 100.294C74.4076 100.361 75.2145 100.13 75.975 100.421C76.349 100.565 76.6628 100.382 76.9248 100.266C77.3188 100.09 77.7078 100.094 78.0703 100.151C79.153 100.321 79.2508 100.347 80.1879 100.143C80.3406 100.109 80.5061 100.137 80.6654 100.134C81.1559 100.123 81.6569 100.207 82.1226 99.9754C82.3452 100.116 82.5253 99.7708 82.8064 99.9521C82.9941 100.074 83.3296 99.9433 83.5916 99.982C84.0975 100.055 84.5596 99.8577 85.0293 99.7554C85.1952 99.7194 85.3803 99.6338 85.5418 99.6663C86.0013 99.7593 86.3992 99.4862 86.84 99.4959C87.2942 99.5055 87.7492 99.4981 88.2024 99.4981C88.256 99.4981 88.3246 99.5191 88.3613 99.4946C89.0682 99.0194 89.8693 99.2324 90.6351 99.1757C91.0414 99.1459 91.4442 99.0537 91.8514 99.0269C92.2502 99.0001 92.6641 99.0809 93.0514 99.0076C93.7786 98.8705 94.5049 98.7537 95.2446 98.6927C95.6124 98.662 95.9713 98.5219 96.3356 98.4354C96.4343 98.4117 96.5361 98.3822 96.6353 98.3875C97.1558 98.4174 97.6573 98.3691 98.1203 98.1003C98.1814 98.0643 98.273 98.0586 98.3451 98.0691C99.0312 98.1736 99.6823 97.8838 100.364 97.893C100.62 97.8957 100.875 97.7196 101.138 97.6498C101.771 97.4816 102.383 97.2383 103.064 97.2585C103.411 97.2682 103.802 97.2225 104.097 97.0631C104.365 96.9182 104.614 97.0218 104.852 96.9458C105.086 96.8716 105.293 96.7188 105.524 96.6389C106.089 96.4457 106.684 96.3706 107.253 96.1717C107.886 95.9503 108.558 95.8392 109.213 95.6798C109.405 95.3575 109.849 95.6838 110.041 95.3623C110.427 95.4286 110.712 95.1893 111.033 95.0492C111.689 94.7647 112.357 94.5069 113.025 94.2509C113.44 94.0924 113.855 93.922 114.291 93.8298C114.688 93.7468 115.031 93.5518 115.384 93.3744C115.959 93.0846 116.549 92.836 117.169 92.6564C117.215 92.6428 117.26 92.6173 117.299 92.5875C117.873 92.1409 118.583 91.938 119.19 91.5375C119.782 91.1467 120.471 90.9034 121.114 90.5877C121.336 90.4779 121.582 90.3844 121.759 90.2201C122.396 89.6255 122.988 89.0011 123.822 88.6283C124.276 88.4249 124.621 87.9797 125.013 87.6402C125.505 87.213 125.894 86.6834 126.466 86.3294C126.731 86.1661 126.942 85.8868 127.125 85.5838C127.364 85.1864 127.731 84.8109 128.133 84.5782C128.608 84.3046 128.942 83.9423 129.161 83.4865C129.306 83.1848 129.516 82.9108 129.772 82.8225C130.061 82.7228 130.095 82.5261 130.197 82.336C130.395 81.968 130.589 81.5965 130.777 81.2228C130.843 81.0919 130.845 80.8904 130.946 80.8218C131.676 80.3234 131.778 79.4597 132.164 78.7685C132.436 78.2819 132.749 77.8107 132.889 77.235C133.013 76.7239 133.425 76.2861 133.583 75.7771C133.875 74.8365 134.339 73.9521 134.484 72.9605C134.523 72.694 134.639 72.434 134.633 72.149C134.631 72.0313 134.685 71.9075 134.734 71.7955C134.867 71.4811 135.008 71.168 135.148 70.8518C135.163 70.7592 135.182 70.6687 135.206 70.5791C135.048 70.3319 135.035 70.0355 135.166 69.8014C135.194 69.7523 135.212 69.7053 135.226 69.6587C135.225 69.6447 135.224 69.6302 135.224 69.617C135.224 68.2618 135.25 66.8759 135.632 65.5651C135.639 65.4984 135.643 65.4325 135.652 65.3645C135.659 65.3122 135.668 65.2687 135.677 65.2195C135.666 65.1361 135.655 65.0588 135.655 65.0434C135.609 64.8441 135.555 64.6495 135.483 64.4555Z" fill="#892533"/>
</g>
<path fill-rule="evenodd" clip-rule="evenodd" d="M33.6253 60.7022C33.3006 60.7289 33.1332 60.4274 32.7658 60.32C32.6135 60.3288 32.3931 60.2784 32.1646 60.136C31.7745 59.8932 31.6481 59.9037 31.0188 59.9335C30.9867 59.9348 30.9422 59.9475 30.9235 59.9313C30.7124 59.7499 30.4622 59.8559 30.2319 59.8432C29.9968 59.8305 29.7897 59.7047 29.5408 59.7332C29.3097 59.7595 29.1004 59.8857 28.8514 59.8441C28.6626 59.8126 28.4644 59.8371 28.2431 59.8371C28.0792 59.9734 27.8998 60.1206 27.7408 60.2517C27.7038 60.4822 27.6335 60.6803 27.6517 60.87C27.674 61.0988 27.5226 61.2899 27.5502 61.5007C27.5876 61.7886 27.5034 62.062 27.43 62.3193C27.3676 62.5362 27.3507 62.7409 27.3511 62.9547C27.3525 63.439 27.1828 63.9118 27.2514 64.4C27.2554 64.4303 27.2603 64.4706 27.2447 64.4921C26.9927 64.8308 27.0973 65.2546 26.9628 65.6227C26.9116 65.763 26.884 65.9129 26.8653 66.0614C26.8355 66.288 26.8938 66.515 26.7785 66.7459C26.7103 66.8805 26.7495 67.0676 26.6765 67.2306C26.6213 67.3551 26.6609 67.5133 26.7459 67.5602C27.079 67.6649 27.283 67.5291 27.5128 67.423C27.67 67.3494 27.743 67.2096 27.8775 67.1347C28.4613 66.8095 29.01 66.43 29.5702 66.0684C29.6468 66.0193 29.7292 65.9729 29.7951 65.9115C29.9425 65.7739 30.089 65.656 30.2898 65.5811C30.5935 65.4685 30.9191 65.3186 31.0682 65.0272C31.2072 64.7541 31.4677 64.6468 31.6734 64.4789C31.8137 64.3641 31.9593 64.244 32.1009 64.124C32.6843 63.6331 33.1475 63.0297 33.599 62.4306C33.8773 62.0625 34.1993 61.6282 33.9744 61.0883C33.9691 61.0742 33.9735 61.0563 33.9735 61.0344C33.8604 60.927 33.7446 60.8157 33.6253 60.7022ZM25.9172 73.5689C25.8731 74.2065 25.8321 74.7999 25.7903 75.392C25.7876 75.4384 25.7898 75.4884 25.772 75.5287C25.626 75.8574 25.5747 76.2005 25.5934 76.5581C25.5997 76.6655 25.6041 76.7856 25.5632 76.8802C25.3703 77.3229 25.3908 77.8001 25.3124 78.2611C25.2403 78.6875 25.239 79.1267 25.206 79.5614C25.2038 79.5912 25.1998 79.6214 25.1891 79.6495C25.0724 79.9567 24.917 80.2578 25.1063 80.5926C25.1272 80.6298 25.1236 80.6934 25.1067 80.7337C24.958 81.0935 24.9673 81.4813 24.8912 81.849C24.8164 82.2101 24.8529 82.5563 24.8119 82.8881C24.8671 82.9424 24.9014 82.9761 24.9517 83.0261C25.3254 83.0918 25.6469 82.9135 25.9795 82.7496C26.1501 82.7496 26.3398 82.7873 26.5046 82.7417C26.7918 82.6615 27.0635 82.5291 27.3427 82.4213C27.552 82.3411 27.7332 82.2127 27.9652 82.1597C28.1897 82.108 28.3634 81.9007 28.6083 81.842C28.7673 81.8039 28.9236 81.7438 29.0719 81.6728C29.2348 81.5961 29.4027 81.5146 29.539 81.3998C29.6624 81.2951 29.7724 81.2162 29.9434 81.193C30.052 81.1776 30.1598 81.0799 30.2462 80.9971C30.4697 80.7801 30.7151 80.6026 30.9832 80.4374C31.2446 80.2757 31.4125 79.9838 31.6302 79.7682C31.8458 79.5526 32.1303 79.3843 32.3102 79.1315C32.4572 78.9259 32.6229 78.7669 32.8299 78.62C33.1078 78.4224 33.3309 78.1695 33.4953 77.8531C33.7491 77.3658 33.9642 76.8636 34.1699 76.3557C34.3917 75.8052 34.6175 75.2579 34.5529 74.6347C34.1151 74.2096 33.5794 73.9353 32.9929 73.7332C32.6843 73.6272 32.3806 73.5474 32.0502 73.5387C31.8925 73.5343 31.7376 73.4466 31.5813 73.3971C31.2339 73.3252 30.8727 73.3962 30.512 73.27C30.325 73.2052 30.0903 73.2336 29.8846 73.2656C29.6508 73.3029 29.4633 73.1596 29.2424 73.1609C28.4631 73.1662 27.6842 73.1434 26.9063 73.1714C26.5411 73.1846 26.1639 73.2525 25.9172 73.5689ZM17.9001 85.3383C17.933 85.3124 17.9824 85.2936 17.9958 85.2607C18.2661 84.6025 18.7667 84.1896 19.4052 83.8842C19.6039 83.7895 19.778 83.8487 20.034 83.7711C20.0514 83.7435 20.1115 83.6502 20.1712 83.5555L20.2064 83.5923C20.242 83.4942 20.2799 83.3982 20.3124 83.2991C20.3627 83.1427 20.4607 83.0064 20.4388 82.821C20.4081 82.5572 20.5462 82.3245 20.666 82.1036C20.7181 82.0081 20.7577 81.8871 20.7181 81.8455C20.5301 81.6483 20.6655 81.4787 20.7225 81.2942C20.7866 81.09 20.8468 80.8857 20.8263 80.6636C20.7982 80.355 20.8419 80.0579 20.9692 79.7643C21.0342 79.6162 21.0173 79.4273 21.0138 79.2572C21.0111 79.1096 20.9755 78.9614 20.9541 78.8072C21.0053 78.5762 21.0948 78.3308 21.1068 78.0815C21.1242 77.7278 21.1643 77.3903 21.2876 77.0507C21.3598 76.8531 21.3313 76.6072 21.3037 76.389C21.2667 76.0857 21.4217 75.8127 21.4074 75.5173C21.5584 75.4161 21.5179 75.2574 21.4996 75.126C21.4386 74.6676 21.57 74.2232 21.623 73.7784C21.6564 73.5036 21.6813 73.2293 21.7031 72.9532C21.7156 72.8046 21.7378 72.6468 21.8029 72.5162C21.9142 72.2932 21.879 72.0631 21.8973 71.8335C21.9182 71.5583 21.9151 71.269 22.0099 71.017C22.062 70.879 22.0896 70.7536 22.087 70.6191C22.0772 70.1861 22.1373 69.7689 22.2753 69.3539C22.3555 69.1111 22.3194 68.8315 22.388 68.583C22.5287 68.0716 22.4374 67.5523 22.4878 67.0409C22.514 66.7797 22.6334 66.5277 22.7118 66.2713C22.7291 66.2152 22.7737 66.1583 22.7674 66.1052C22.6989 65.4571 22.9086 64.8251 22.8707 64.1792C22.8605 63.9964 22.8618 63.8176 22.9589 63.6397C23.0533 63.4675 23.076 63.2663 23.0707 63.0599C23.0667 62.8824 23.1273 62.7032 23.1611 62.5248C23.1949 62.3465 23.0743 62.1409 23.2582 61.9889V61.1558C23.1335 61.0225 23.0235 60.9064 22.905 60.7806C22.3056 61.101 21.7312 61.026 21.1576 60.7057C20.9483 60.5887 20.7172 60.5199 20.5212 60.3647C20.1868 60.1 20.1062 59.7293 20.0536 59.3563C20.0265 59.1666 20.0238 58.9663 20.1022 58.759C20.2442 58.3839 20.4807 58.0903 20.771 57.8357C20.9403 57.6871 21.187 57.6148 21.3322 57.4509C21.5321 57.2248 21.8038 57.1367 22.0536 57.0762C22.3288 57.01 22.5363 56.8242 22.8044 56.7699C23.0021 56.4911 23.3406 56.4745 23.6207 56.4009C24.1034 56.2729 24.5941 56.1888 25.068 56.0156C25.3374 55.9162 25.654 55.9486 25.9475 55.9057C26.3754 55.8417 26.8141 55.857 27.2327 55.7212C27.3498 55.6835 27.4927 55.7317 27.6201 55.7124C27.8895 55.6712 28.1558 55.6116 28.4613 55.552C28.594 55.676 28.8105 55.6309 29.0086 55.6142C29.3595 55.5844 29.7082 55.5213 30.1509 55.46C30.2751 55.509 30.4969 55.5976 30.793 55.715C31.0647 55.715 31.4214 55.7176 31.7785 55.7146C32.202 55.7111 32.5872 55.8425 32.9742 55.9977C33.2802 56.1213 33.6044 56.2028 33.9192 56.3023C34.4313 56.464 34.9546 56.6244 35.4173 56.9031C35.9944 57.2506 36.4985 57.691 36.9919 58.1468C37.3072 58.4378 37.5143 58.802 37.7601 59.1355C37.8701 59.2849 37.9623 59.465 38.0634 59.6316C38.2553 59.9467 38.3034 60.3069 38.3537 60.6619C38.3929 60.9358 38.3123 61.214 38.4463 61.4888C38.5305 61.658 38.3951 61.8425 38.3582 62.02C38.2611 62.4871 38.1774 62.9591 37.9645 63.3939C37.8661 63.5941 37.7218 63.7725 37.6198 63.9719C37.5254 64.156 37.4582 64.3536 37.3843 64.5469C37.3415 64.6573 37.3428 64.8072 37.2662 64.8782C36.9291 65.188 36.7287 65.6043 36.4077 65.9199C36.185 66.1394 35.9512 66.3572 35.6889 66.5264C35.3803 66.7258 35.1456 66.9721 34.9323 67.2657C34.7515 67.5151 34.5124 67.7329 34.2256 67.8854C34.0653 67.9708 33.8889 68.0537 33.7696 68.1825C33.4298 68.5519 32.9306 68.7215 32.5814 69.1247C32.6656 69.2224 32.7449 69.3145 32.7908 69.3675C32.9818 69.4288 33.1239 69.4792 33.2695 69.5187C33.5166 69.587 33.766 69.6515 34.0163 69.7111C34.312 69.7808 34.6362 69.7922 34.9002 69.9223C35.3304 70.1357 35.823 70.2317 36.1872 70.5735C36.2758 70.6564 36.3947 70.7089 36.4816 70.7935C36.7483 71.0538 37.0503 71.2651 37.3807 71.4377C37.6719 71.5889 37.806 71.8681 37.9699 72.1262C38.0986 72.3291 38.1556 72.5758 38.3551 72.7376C38.3715 72.7507 38.347 72.8059 38.3622 72.8287C38.5109 73.0579 38.5016 73.3436 38.6463 73.5768C38.7839 73.7977 38.8075 74.0553 38.8641 74.3056C38.9135 74.5238 38.9122 74.6908 38.8592 74.9051C38.7968 75.1619 38.8311 75.4459 38.848 75.7163C38.873 76.1076 38.7848 76.4753 38.6472 76.8338C38.5991 76.9578 38.4976 77.0634 38.4597 77.1879C38.3991 77.3912 38.3715 77.6025 38.3181 77.8654C38.2624 77.9395 38.1422 78.0495 38.0843 78.1858C37.9912 78.4031 37.9311 78.6367 37.8719 78.8668C37.7797 79.2296 37.5931 79.5333 37.3215 79.7928C36.9269 80.1692 36.621 80.6154 36.3097 81.0567C36.2465 81.1465 36.1561 81.2179 36.0808 81.2994C35.7375 81.6715 35.3518 81.9993 35.0361 82.4034C34.7105 82.8197 34.2367 83.0989 33.8261 83.4359C33.4556 83.7409 33.0624 84.0104 32.6647 84.2742C32.096 84.6537 31.5136 85.014 30.9413 85.3887C30.8095 85.475 30.6287 85.5048 30.4657 85.5245C30.2863 85.5464 30.1255 85.6108 30.0208 85.7366C29.7265 86.0955 29.3003 86.1963 28.8879 86.2866C28.4551 86.3821 28.0436 86.518 27.6557 86.7192C27.3013 86.9028 26.9348 87.0202 26.5349 87.0719C26.3175 87.1004 26.1118 87.217 25.8994 87.2915C25.8286 87.316 25.719 87.3717 25.6865 87.3445C25.4594 87.1508 25.247 87.3099 25.0315 87.352C24.8177 87.3923 24.5915 87.2705 24.3795 87.4309C24.3082 87.4856 24.1613 87.4462 24.0486 87.4466C23.3018 87.4475 22.555 87.4466 21.8087 87.4466C21.6782 87.4466 21.5468 87.4593 21.4194 87.4427C21.3166 87.43 21.203 87.4041 21.1215 87.3467C20.9639 87.2363 20.7706 87.3073 20.629 87.2424C20.4584 87.1635 20.2972 87.157 20.1276 87.1613C19.8256 87.1701 19.5749 87.0031 19.293 86.9391C18.8397 86.8344 18.4803 86.5421 18.1138 86.2721C18.0564 86.2288 17.9722 86.2235 17.9001 86.2003V85.3383Z" fill="white"/>
<path fill-rule="evenodd" clip-rule="evenodd" d="M105.994 82.6733C106.222 82.5396 106.465 82.4393 106.655 82.2764C107.04 81.9435 107.522 81.7784 107.937 81.5006C108.021 81.4446 108.169 81.4591 108.226 81.3898C108.42 81.1523 108.701 81.0503 108.945 80.8927C109.213 80.7187 109.48 80.5452 109.747 80.3721C109.994 80.2109 110.194 80.0171 110.37 79.7707C110.611 79.4343 111.011 79.2365 111.247 78.8824C111.273 78.8431 111.308 78.8011 111.35 78.7817C111.767 78.5804 112.053 78.2188 112.323 77.8801C112.625 77.5013 112.908 77.1083 113.267 76.7794C113.499 76.5666 113.659 76.303 113.81 76.0359C113.947 75.7926 114.094 75.5647 114.292 75.3647C114.411 75.2446 114.503 75.0976 114.616 74.97C114.92 74.6216 115.056 74.1563 115.423 73.8512C115.5 73.788 115.558 73.6794 115.582 73.5818C115.675 73.2052 115.839 72.8732 116.11 72.5902C116.181 72.5178 116.255 72.4118 116.259 72.3186C116.269 72.0727 116.432 71.904 116.523 71.7005C116.573 71.5919 116.617 71.481 116.653 71.368C116.722 71.1552 116.748 70.9185 116.856 70.7278C117.187 70.1428 117.324 69.5158 117.348 68.8544C117.769 68.329 117.708 67.6764 117.816 67.0693C117.868 66.7814 117.754 66.4741 117.912 66.1907C117.945 66.1319 117.94 66.0021 117.899 65.9637C117.78 65.8538 117.822 65.7262 117.823 65.6061C117.826 65.233 117.791 64.8771 117.646 64.5195C117.583 64.3632 117.583 64.164 117.491 64.0051C117.387 63.821 117.254 63.6527 117.153 63.4677C116.882 62.9759 116.591 62.5149 116.134 62.152C115.593 61.7228 114.988 61.416 114.388 61.0914C114.348 61.0694 114.317 61.0067 114.28 61.0045C113.888 60.9846 113.569 60.7735 113.22 60.6322C112.971 60.5307 112.698 60.4879 112.437 60.4159C112.088 60.321 111.741 60.2207 111.392 60.1276C111.183 60.0711 110.977 60.0203 110.753 60.0234C110.335 60.0309 109.901 60.1024 109.519 59.8437C109.497 59.8282 109.458 59.8366 109.426 59.8371C108.944 59.841 108.451 59.7757 108.014 60.0852C107.983 60.1845 107.953 60.3002 107.912 60.4124C107.765 60.8089 107.826 61.2204 107.815 61.6275C107.812 61.7877 107.859 61.9674 107.802 62.1052C107.709 62.333 107.642 62.5613 107.624 62.8028C107.605 63.0646 107.651 63.334 107.524 63.5825C107.589 64.2334 107.442 64.8736 107.422 65.5213C107.413 65.8304 107.362 66.1386 107.33 66.4467C107.132 66.5624 107.282 66.7916 107.153 66.9594C107.064 67.0741 107.11 67.3201 107.23 67.4865C107.246 67.5077 107.247 67.5625 107.23 67.5793C107.052 67.7656 107.23 68.0398 107.107 68.2014C106.925 68.4407 107.151 68.6111 107.135 68.8129C107.129 68.8738 107.129 68.9392 107.103 68.9926C106.88 69.4646 106.914 69.9821 106.853 70.4792C106.802 70.8969 106.898 71.3327 106.743 71.7402C106.627 72.0449 106.653 72.3557 106.65 72.6665C106.648 72.8763 106.662 73.086 106.646 73.294C106.629 73.5072 106.617 73.7302 106.544 73.9267C106.458 74.1554 106.409 74.3912 106.368 74.6238C106.324 74.8737 106.363 75.1378 106.355 75.3943C106.353 75.465 106.29 75.5338 106.288 75.6054C106.276 75.8486 106.048 76.0637 106.247 76.3458C106.33 76.4641 106.318 76.7167 106.251 76.8624C106.034 77.3229 106.08 77.8033 106.062 78.2832C106.056 78.4634 106.104 78.6404 105.986 78.8325C105.905 78.9641 105.93 79.2007 106.035 79.3023C105.941 79.7659 105.848 80.1783 105.779 80.5938C105.731 80.883 105.847 81.1907 105.683 81.4724C105.659 81.5126 105.687 81.5969 105.713 81.6481C105.84 81.8927 105.797 82.1245 105.692 82.3268C105.781 82.4283 105.863 82.5223 105.994 82.6733ZM102.375 87.46C102.284 87.2856 102.176 87.1346 101.961 87.1681C101.583 86.9195 101.413 86.535 101.21 86.1062V83.8536C101.21 83.605 101.345 83.3816 101.316 83.1197C101.291 82.8946 101.268 82.6592 101.393 82.431C101.455 82.3192 101.404 82.1466 101.404 82.0018C101.404 81.7607 101.331 81.4852 101.424 81.2869C101.527 81.0688 101.408 80.8119 101.596 80.6313C101.612 80.6158 101.597 80.569 101.598 80.5368C101.631 80.003 101.651 79.4679 101.701 78.9358C101.725 78.6833 101.805 78.4369 101.867 78.1521C101.746 78.0351 101.734 77.8108 101.805 77.6611C102.04 77.1679 101.985 76.6531 101.984 76.1427C101.981 75.7043 102.129 75.3087 102.266 74.9166C102.238 74.7969 102.155 74.6601 102.19 74.5678C102.336 74.1973 102.263 73.8194 102.274 73.445C102.28 73.2728 102.309 73.1151 102.37 72.9527C102.446 72.7513 102.482 72.5407 102.48 72.3186C102.479 72.0904 102.542 71.8625 102.568 71.6343C102.595 71.4055 102.539 71.1768 102.654 70.9437C102.724 70.8006 102.652 70.5949 102.671 70.4192C102.691 70.2227 102.612 70.0275 102.751 69.8231C102.853 69.6721 102.682 69.4222 102.855 69.2385C102.895 69.1952 102.886 69.0721 102.857 69.0041C102.648 68.5126 102.763 68.0177 102.879 67.5413C102.919 67.3748 102.955 67.2137 102.956 67.0468C102.958 66.7518 102.956 66.4626 103.114 66.192C103.163 66.1063 103.162 65.9769 103.15 65.8714C103.083 65.346 103.191 64.8281 103.271 64.3217C103.331 63.9433 103.316 63.5724 103.349 63.1997C103.369 62.9865 103.418 62.7767 103.442 62.563C103.464 62.3652 103.459 62.1732 103.524 61.971C103.599 61.7361 103.527 61.4601 103.544 61.2036C103.567 60.8623 103.615 60.5232 103.651 60.1881C103.478 60.0918 103.323 60.007 103.122 60.026C102.756 60.0618 102.433 59.9373 102.124 59.7443C101.836 59.5633 101.521 59.4273 101.318 59.1302C101.18 58.9271 101.12 58.6926 101.028 58.4754C100.956 58.3027 100.864 58.1089 100.914 57.8926C100.97 57.6533 100.883 57.4095 100.996 57.1521C101.077 56.9671 101.15 56.8439 101.32 56.7406C101.544 56.6055 101.747 56.4346 101.971 56.2699C102.024 56.2576 102.101 56.2448 102.173 56.2218C102.827 56.0134 103.477 55.8311 104.172 55.7582C104.81 55.6902 105.442 55.7114 106.076 55.6832C106.261 55.6752 106.419 55.5529 106.62 55.5803C106.784 55.6024 106.949 55.5564 107.118 55.5123C107.306 55.4624 107.556 55.4028 107.76 55.5719C107.823 55.624 107.932 55.6434 108.019 55.6412C108.402 55.6328 108.785 55.6399 109.168 55.6399C109.29 55.6399 109.422 55.5657 109.531 55.5944C109.969 55.7074 110.425 55.6893 110.859 55.7896C111.331 55.8986 111.807 55.9887 112.277 56.111C112.365 56.134 112.455 56.164 112.545 56.164C112.859 56.1631 113.139 56.2841 113.426 56.3839C113.595 56.443 113.764 56.5313 113.939 56.5459C114.4 56.587 114.836 56.6943 115.239 56.9291C115.5 57.0806 115.804 57.1234 116.084 57.2298C116.265 57.2978 116.468 57.3411 116.621 57.4501C116.8 57.5778 116.975 57.6639 117.187 57.7323C117.408 57.8025 117.629 57.9314 117.804 58.1204C117.96 58.2908 118.155 58.429 118.344 58.5677C118.828 58.9244 119.235 59.3505 119.622 59.8137C119.84 60.0755 120.101 60.3042 120.292 60.5969C120.369 60.7157 120.492 60.8053 120.597 60.9069C120.734 61.0393 120.836 61.1908 120.831 61.3886C120.826 61.555 120.909 61.691 121.011 61.7957C121.405 62.2006 121.492 62.7043 121.522 63.247C121.639 63.4717 121.762 63.7101 121.9 63.9764V67.6115V68.2875C121.679 68.4354 121.877 68.6985 121.721 68.8959C121.616 69.0306 121.807 69.2791 121.709 69.4809C121.69 69.5193 121.723 69.5851 121.704 69.6227C121.452 70.0898 121.366 70.6112 121.203 71.1062C121.142 71.2912 121.044 71.4753 121.036 71.6616C121.027 71.8908 120.93 72.0643 120.839 72.2603C120.538 72.9085 120.307 73.588 119.957 74.215C119.884 74.3457 119.783 74.4662 119.731 74.6044C119.653 74.8141 119.605 75.0362 119.56 75.2C119.264 75.5815 118.996 75.9237 118.733 76.2699C118.688 76.3277 118.644 76.3975 118.631 76.4681C118.553 76.9026 118.222 77.1746 117.979 77.5044C117.79 77.7613 117.573 77.9958 117.423 78.2877C117.279 78.5698 117.08 78.8312 116.873 79.0736C116.627 79.361 116.349 79.6175 116.113 79.9182C115.931 80.1487 115.75 80.3765 115.578 80.6158C115.468 80.769 115.28 80.8684 115.124 80.988C115.065 81.0335 114.972 81.0529 114.936 81.1103C114.609 81.6322 114.121 82.008 113.686 82.4234C113.442 82.6575 113.175 82.8544 112.97 83.1365C112.831 83.3281 112.589 83.4465 112.392 83.5961C112.319 83.6522 112.229 83.6933 112.171 83.7613C111.965 84.0032 111.721 84.1794 111.412 84.2757C111.236 84.3313 111.078 84.428 110.955 84.5777C110.713 84.8691 110.406 85.0709 110.069 85.2448C109.749 85.4099 109.445 85.6029 109.109 85.7406C108.695 85.9115 108.315 86.153 107.891 86.3138C107.572 86.4356 107.297 86.674 107.053 86.8277C106.76 86.8939 106.506 86.9133 106.289 87.0109C106.024 87.1297 105.764 87.1818 105.481 87.1712C105.336 87.1659 105.19 87.1699 105.046 87.1699C104.942 87.3324 104.693 87.2723 104.61 87.46H102.375Z" fill="white"/>
<path fill-rule="evenodd" clip-rule="evenodd" d="M92.9103 69.8291C93.097 69.6213 93.1729 69.4334 93.1553 69.2033C93.1386 68.9823 93.1648 68.7579 93.1485 68.5369C93.1313 68.3108 93.0757 68.0872 93.0554 67.8614C93.0152 67.4152 92.9872 66.9667 92.9542 66.5191C92.9519 66.4895 92.9533 66.4568 92.9424 66.4289C92.8091 66.1003 92.7481 65.7604 92.7549 65.4074C92.7562 65.3315 92.7612 65.2466 92.7305 65.1799C92.6279 64.9576 92.5538 64.7371 92.552 64.4861C92.5497 64.2294 92.4851 63.9735 92.4629 63.7155C92.448 63.5425 92.4598 63.3673 92.4598 63.193C92.3653 63.0531 92.3278 62.8932 92.2591 62.7485C92.1407 62.4979 92.2379 62.2111 92.1479 61.9819C91.9902 61.5818 91.9685 61.1835 91.959 60.769C91.955 60.6112 91.922 60.4095 91.818 60.3088C91.5473 60.046 91.5898 59.6965 91.4687 59.4332C91.3715 59.3169 91.2915 59.2206 91.2174 59.1312C91.0375 59.2219 90.9038 59.3169 90.8283 59.4341C90.535 59.8939 90.1554 60.297 89.8878 60.7738C89.7762 60.9704 89.5683 61.1037 89.4911 61.3299C89.3627 61.7095 89.2868 62.1187 88.942 62.3968C88.9207 62.4146 88.9112 62.4482 88.9017 62.4761C88.7278 62.9459 88.5569 63.4174 88.3816 63.8877C88.3305 64.0254 88.2984 64.1862 88.2031 64.2908C87.8989 64.6199 87.9803 65.0932 87.715 65.4318C87.6883 65.8889 87.4899 66.289 87.2676 66.6821C87.2387 66.7331 87.2432 66.7989 87.2192 66.853C87.0742 67.1776 87.0809 67.5542 86.8491 67.8497C86.8242 67.8815 86.8229 67.9381 86.8265 67.9817C86.8563 68.3452 86.7013 68.6559 86.5269 68.9593C86.38 69.2164 86.2715 69.48 86.356 69.8256C86.4537 69.888 86.5779 69.983 86.7185 70.0475C86.8134 70.0902 86.9634 70.1412 87.0308 70.0998C87.245 69.9708 87.4691 70.0152 87.6874 70.0183C88.0047 70.0218 88.3264 69.9651 88.6374 70.1041C88.8231 70.1865 88.9989 70.0222 89.1869 70.0144C89.619 69.996 90.0474 70.0183 90.483 69.9346C90.8789 69.8588 91.3051 69.8936 91.7141 69.9254C92.1231 69.9573 92.5027 69.7729 92.9103 69.8291ZM95.1293 87.46C95.0633 87.2804 94.827 87.4203 94.7461 87.2691C94.1242 87.2277 93.7699 86.8298 93.4499 86.3604C93.4748 86.2114 93.3794 86.0353 93.5381 85.8867C93.5719 85.8557 93.5435 85.7655 93.548 85.7019C93.5616 85.4862 93.3898 85.3009 93.4459 85.0743C93.496 84.8704 93.3686 84.693 93.299 84.5147C93.2552 84.4032 93.2457 84.33 93.294 84.218C93.4395 83.8811 93.539 83.5451 93.3645 83.1694C93.3071 83.0452 93.2859 82.8373 93.4088 82.6734C93.4581 82.6085 93.4459 82.4956 93.4472 82.405C93.4508 82.0868 93.3898 81.7565 93.4621 81.4549C93.5724 80.9934 93.3699 80.5528 93.4409 80.0995C93.4576 79.9932 93.3727 79.8746 93.3514 79.7591C93.3031 79.4933 93.4255 79.2475 93.4874 79.0021C93.5349 78.8152 93.5738 78.6591 93.4847 78.4809C93.4522 78.4164 93.4549 78.3332 93.4495 78.2573C93.4309 78.0146 93.4987 77.764 93.355 77.5317C93.3189 77.4724 93.3234 77.3648 93.3537 77.2977C93.5227 76.9216 93.4323 76.5285 93.4454 76.1441C93.4603 75.6843 93.4563 75.2232 93.4445 74.7621C93.4404 74.5856 93.3925 74.4087 93.3605 74.2086C93.1539 74.2086 92.9745 74.2252 92.7996 74.2047C92.5212 74.1724 92.246 74.1136 91.969 74.0705C91.8289 74.0478 91.6476 73.9742 91.5546 74.0308C91.3507 74.1546 91.1469 74.0905 90.9454 74.1132C90.695 74.1406 90.4482 74.0992 90.1879 74.1881C90.0121 74.2496 89.7387 74.3058 89.5412 74.1171C89.5159 74.0936 89.4386 74.0988 89.3975 74.1158C88.9275 74.3163 88.4349 74.1799 87.9545 74.2034C87.4619 74.2274 86.9661 74.1969 86.4722 74.2125C86.0899 74.2247 85.708 74.267 85.3279 74.3084C85.2429 74.3184 85.1652 74.3847 85.0708 74.4318C84.923 74.7373 84.7874 75.0598 84.7165 75.4171C84.6437 75.7793 84.5691 76.1458 84.4516 76.5001C84.3396 76.8388 84.2966 77.1926 84.1637 77.5287C84.0883 77.7217 84.0399 77.93 84.0481 78.1536C84.0612 78.4861 83.8723 78.7773 83.7566 79.0932C83.7882 79.1364 83.8239 79.186 83.8592 79.234C83.7737 79.6585 83.5817 80.0503 83.5446 80.4965C83.5062 80.9459 83.3729 81.4009 83.066 81.8018C83.1166 82.3989 82.9277 82.9733 82.7302 83.5485C82.6575 83.7595 82.5811 83.9844 82.5852 84.201C82.5906 84.462 82.488 84.6677 82.3777 84.8856C82.1034 85.4243 81.6714 85.8379 81.2186 86.2292C81.1015 86.3308 80.9158 86.3874 80.7553 86.404C80.4783 86.4314 80.1913 86.3813 79.917 86.4201C79.6671 86.4559 79.4244 86.5339 79.1808 86.5033C78.7058 86.2305 78.1174 86.102 77.9001 85.5036C77.9425 85.2966 77.9719 85.0865 78.0293 84.8843C78.1482 84.4668 78.1364 84.0223 78.324 83.6196C78.3746 83.5124 78.4342 83.4086 78.521 83.2443C78.521 83.1105 78.4573 82.8756 78.5382 82.7057C78.6249 82.5248 78.5386 82.2986 78.7185 82.1574C78.681 81.6471 78.8554 81.1768 79.0154 80.7031C78.9277 80.2625 79.2445 79.8903 79.2323 79.4471C79.2242 79.1542 79.4199 78.8596 79.4886 78.5589C79.5401 78.3393 79.6603 78.1305 79.612 77.8899C79.5907 77.7858 79.644 77.6934 79.6924 77.5905C79.8117 77.3373 79.837 77.0432 79.9586 76.7917C80.0639 76.5755 79.936 76.345 80.0887 76.1249C80.213 75.9462 80.2284 75.693 80.2031 75.4581C80.1886 75.3204 80.241 75.1984 80.2903 75.0654C80.3897 74.8018 80.4218 74.515 80.5009 74.2431C80.5673 74.0169 80.6681 73.8011 80.7373 73.5736C80.8055 73.3475 80.754 73.0986 80.9176 72.8824C81.0617 72.6916 81.0762 72.4379 81.1042 72.1939C81.1291 71.9838 81.2696 71.7868 81.3876 71.5205C81.3876 71.4351 81.388 71.2769 81.3876 71.1191C81.3867 71.0106 81.421 70.9226 81.4743 70.8193C81.5968 70.5822 81.6994 70.3382 81.7021 70.0462C81.7048 69.7934 81.8097 69.5114 81.9231 69.2848C82.1337 68.8655 82.2137 68.4149 82.3737 67.9861C82.4867 67.6814 82.5603 67.3629 82.6769 67.0587C82.8048 66.724 82.8247 66.3618 82.968 66.0319C83.0091 65.9378 83.0131 65.8214 83.0719 65.7412C83.3349 65.3817 83.405 64.9511 83.5564 64.5519C83.6919 64.1932 83.8094 63.8275 83.9649 63.4754C84.0359 63.3133 84.1077 63.149 84.1529 62.9786C84.2397 62.6491 84.3332 62.3114 84.4715 62.0106C84.6514 61.6188 84.8154 61.2275 84.9564 60.8204C85.0418 60.5733 85.1987 60.3358 85.3708 60.1318C85.5426 59.9288 85.6253 59.6921 85.7527 59.4725C85.9484 59.1351 86.121 58.7869 86.3673 58.4749C86.5106 58.2949 86.54 58.0343 86.6629 57.8347C86.7831 57.6394 86.9797 57.4878 87.1049 57.2943C87.2369 57.0899 87.3525 56.8776 87.5274 56.7007C87.6806 56.546 87.8515 56.4117 87.9613 56.2095C88.0336 56.0749 88.2496 56.0208 88.3576 55.8962C88.8805 55.2974 89.5909 54.9814 90.3023 54.6646C90.3448 54.6454 90.3818 54.6166 90.4469 54.5757C90.7135 54.5421 91.0131 54.5979 91.3132 54.4859C91.5487 54.3974 91.8004 54.56 92.0435 54.6066C92.3111 54.658 92.5746 54.7426 92.8195 54.8677C93.0622 54.9932 93.3153 55.1013 93.5471 55.2416C93.694 55.3309 93.8137 55.4634 93.9403 55.5802C93.9574 55.5968 93.9335 55.6565 93.9507 55.6691C94.4433 56.0522 94.7537 56.5634 95.0312 57.0973C95.099 57.2285 95.1618 57.3631 95.2283 57.4956C95.2613 57.5614 95.2839 57.6355 95.3281 57.6935C95.6196 58.07 95.7037 58.5285 95.8691 58.9552C95.8903 59.0105 95.922 59.0702 95.917 59.1247C95.8795 59.5797 96.0996 59.9675 96.2523 60.3746C96.378 60.711 96.5443 61.0357 96.5203 61.414C96.5099 61.5731 96.5813 61.7365 96.6112 61.8995C96.6387 62.0459 96.5434 62.2181 96.7083 62.3375C96.6699 62.6029 96.7964 62.8509 96.8028 63.1071C96.8132 63.5059 96.8561 63.8929 97.0034 64.2682C97.0305 64.3375 97.0102 64.4259 97.0075 64.5048C96.9903 65.013 97.0396 65.512 97.2014 65.9996C97.2262 66.0716 97.2158 66.1592 97.2027 66.2372C97.1621 66.4895 97.2475 66.727 97.3487 66.9414C97.4102 67.0709 97.4165 67.1903 97.393 67.2988C97.3012 67.7202 97.3022 67.7163 97.3781 68.0419C97.4097 68.1735 97.4332 68.3386 97.3785 68.4511C97.2267 68.7618 97.3193 69.0329 97.4237 69.3271C97.5417 69.6592 97.7455 69.9974 97.5046 70.3634C97.4825 70.3966 97.4938 70.4576 97.5033 70.5033C97.5317 70.6345 97.5936 70.764 97.5936 70.893C97.5936 71.0237 97.4897 71.161 97.5109 71.2817C97.5629 71.5815 97.6031 71.8823 97.6302 72.1851C97.633 72.2096 97.675 72.2305 97.6596 72.2161C97.6366 72.3455 97.5742 72.4636 97.6077 72.5434C97.7685 72.9221 97.694 73.3143 97.6926 73.6983C97.6913 74.0822 97.557 74.4771 97.6153 74.848C97.7509 75.71 97.6632 76.5716 97.703 77.4315C97.7116 77.6263 97.7753 77.8172 97.7961 78.012C97.816 78.2076 97.75 78.4168 97.8973 78.5916C97.8833 79.0374 97.9579 79.4902 97.7618 79.92C97.7261 79.998 97.6953 80.0978 97.7148 80.1762C97.8192 80.5955 97.7961 80.5898 97.7229 81.0143C97.6727 81.3032 97.6556 81.6244 97.7387 81.8994C97.8232 82.1844 97.8377 82.4738 97.7767 82.7266C97.7161 82.9768 97.6809 83.1711 97.7821 83.4204C97.8413 83.5677 97.8323 83.7756 97.7365 83.9626C97.6763 84.0802 97.7215 84.2589 97.7487 84.4045C97.7816 84.5779 97.8815 84.7444 97.8874 84.9166C97.896 85.1083 97.8711 85.3223 97.7848 85.4896C97.7229 85.6108 97.6899 85.718 97.7017 85.8379C97.7387 86.2127 97.5955 86.5561 97.4888 86.8991C97.426 87.1043 97.238 87.2743 97.1065 87.46H95.1293Z" fill="white"/>
<path fill-rule="evenodd" clip-rule="evenodd" d="M42.0356 18.46C42.139 18.519 42.5856 18.6492 42.6947 18.6492C42.9344 18.6505 43.1746 18.6583 43.4139 18.6479C43.8547 18.6288 44.3727 18.7161 45.0363 19.0086C45.0766 19.0264 45.127 19.0208 45.1717 19.0294C45.8435 19.1653 46.3668 19.6085 46.9698 19.8854C46.997 19.8971 47.0154 19.9284 47.0386 19.9501C47.4777 20.3525 47.9199 20.7514 48.3521 21.1607C48.4607 21.2635 48.5374 21.399 48.6251 21.5218C48.6847 21.6064 48.7307 21.7032 48.7964 21.7827C48.9836 22.0079 49.1838 22.2237 49.3688 22.4516C49.4323 22.5297 49.4959 22.6286 49.5082 22.7241C49.5656 23.1838 49.9324 23.5519 49.8978 24.0372C49.8899 24.1478 49.8964 24.2585 49.8964 24.292C49.7838 24.5932 49.7019 24.8276 49.6081 25.0581C49.4919 25.3432 49.3828 25.6193 49.0787 25.7895C48.8911 25.8936 48.7566 26.092 48.5992 26.2491C48.4143 26.4336 48.1908 26.5386 47.9493 26.6432C47.7609 26.724 47.6469 26.7036 47.4931 26.6276C46.947 26.3568 46.5153 25.9813 46.2502 25.4209C45.8939 24.6652 45.4022 23.9899 44.7365 23.489C44.371 23.2142 43.9617 22.9173 43.4459 22.9199C43.3893 22.9203 43.3302 22.893 43.2767 22.8687C42.7709 22.6386 42.2652 22.7233 41.759 22.8648C41.3738 22.9716 40.9772 23.0488 40.6446 23.2962C40.6034 23.3266 40.5201 23.3001 40.4662 23.3001C40.283 23.4282 40.1563 23.6009 39.9626 23.7181C39.7917 23.8197 39.6585 24.0103 39.527 24.1878C39.3412 24.44 39.0634 24.637 38.7956 24.815C38.5572 24.9726 38.3744 25.1588 38.2342 25.401C38.1592 25.5316 38.0663 25.654 37.9638 25.7643C37.742 26.003 37.483 26.2083 37.3218 26.4987C37.2648 26.6024 37.1732 26.6979 37.1526 26.8073C37.0921 27.1181 36.8853 27.3356 36.7135 27.5786C36.4808 27.9059 36.2196 28.2167 36.0679 28.5952C35.9487 28.8938 35.8102 29.1868 35.716 29.4937C35.6656 29.6565 35.6178 29.8058 35.4929 29.9252C35.3339 30.0779 35.2484 30.2511 35.2177 30.4799C35.1892 30.6908 35.0766 30.8944 34.9824 31.0919C34.6866 31.7174 34.4744 32.3715 34.2615 33.0278C34.1677 33.3169 34.1975 33.6185 34.0857 33.9037C33.9727 34.1906 33.9183 34.4997 33.8315 34.7966C33.7645 35.0275 33.647 35.2502 33.6974 35.4993C33.7255 35.636 33.6378 35.7285 33.6028 35.8418C33.5576 35.982 33.5191 36.1287 33.5072 36.2758C33.4915 36.4807 33.5033 36.6869 33.5033 36.8926C33.3249 37.2099 33.1672 37.5385 33.2193 37.9127C33.275 38.3207 33.094 38.7031 33.1154 39.1094C33.1365 39.5191 33.1891 39.9462 33.1005 40.3382C33.0103 40.7436 33.0536 41.1386 33.0243 41.5371C32.9993 41.8761 33.0747 42.1947 33.1904 42.5128C33.2351 42.6387 33.2154 42.7898 33.2149 42.93C33.2105 43.631 33.452 44.2712 33.6878 44.9184C33.8144 45.2674 34.0266 45.5686 34.1528 45.9154C34.2216 46.1059 34.357 46.2796 34.4867 46.4419C34.68 46.6824 34.9657 46.8451 35.0933 47.1429C35.6012 47.5106 36.0692 47.9368 36.71 48.0918C36.9063 48.1399 37.0947 48.1721 37.295 48.1847C37.4896 48.1959 37.7079 48.2042 37.8669 48.2971C38.0102 48.3795 38.1417 48.3808 38.2697 48.3635C38.6567 48.3088 39.0463 48.245 39.4223 48.1404C39.5279 48.1117 39.6278 48.0935 39.7326 48.0853C40.3224 48.0388 40.8808 47.8982 41.4076 47.6204C41.8265 47.3994 42.1946 47.0913 42.6552 46.935C42.8349 46.8742 42.9576 46.6802 43.1119 46.5526C43.4551 46.2692 43.8986 46.1146 44.1672 45.7383C44.2829 45.5773 44.4082 45.4223 44.5402 45.2743C44.6672 45.1332 44.7895 44.9297 44.9499 44.8876C45.2002 44.8224 45.1892 44.5872 45.34 44.4665C45.4793 44.3554 45.5722 44.1865 45.6844 44.0429C45.9561 43.6965 46.3453 43.4916 46.6998 43.2542C46.9185 43.1083 47.0912 42.8696 47.3835 42.8332C47.4558 42.824 47.5558 42.7494 47.5899 42.7741C47.7359 42.8839 47.9103 42.8549 48.0672 42.8965C48.5422 43.0224 48.7447 43.374 48.8354 43.8015C48.8806 44.0142 49.009 44.2187 48.9126 44.4617C48.8306 44.6666 48.8034 44.8915 48.7452 45.1063C48.6562 45.4319 48.4761 45.7244 48.4217 46.0669C48.3985 46.2153 48.2451 46.3386 48.1741 46.4853C48.0589 46.7214 47.9936 46.9888 47.8476 47.2032C47.6934 47.429 47.4453 47.5861 47.3125 47.8396C47.2222 48.0097 47.1306 48.186 47.0049 48.3292C46.7971 48.5645 46.6341 48.8271 46.3484 49.0141C46.0017 49.2407 45.6963 49.5524 45.407 49.8484C44.7124 50.5616 44.7707 50.3684 44.0015 50.8398C43.5712 51.1033 43.1027 51.289 42.657 51.5191C42.32 51.694 42.0198 51.928 41.6096 51.8824C41.3107 52.0664 40.9579 52.0781 40.6327 52.1801C40.5473 52.2071 40.4644 52.2544 40.3785 52.2583C40.102 52.2722 39.825 52.2444 39.5551 52.3533C39.2465 52.4783 38.9157 52.464 38.59 52.4506C38.2504 52.4375 37.8981 52.5205 37.5773 52.3542C37.4344 52.2804 37.309 52.5244 37.1749 52.3572C36.6964 52.2509 36.1889 52.2609 35.7476 51.9857C35.6468 51.9223 35.4671 52.013 35.361 51.8824C35.0328 51.8993 34.7948 51.7188 34.5411 51.546C34.414 51.4592 34.2343 51.4297 34.0735 51.4132C33.9117 51.3975 33.7785 51.3298 33.6698 51.2335C33.4415 51.0303 33.1934 50.8663 32.9156 50.7421C32.8744 50.7235 32.8367 50.6961 32.8034 50.6657C32.398 50.2981 31.9922 49.9296 31.5899 49.5584C31.4426 49.423 31.3322 49.2759 31.2893 49.0627C31.238 48.8067 30.9974 48.574 30.766 48.4507C30.6643 48.2537 30.5469 48.0783 30.482 47.8865C30.3641 47.537 30.1849 47.2128 30.021 46.889C29.8531 46.5582 29.8229 46.1776 29.5994 45.8737C29.5682 45.8308 29.5739 45.7561 29.5739 45.6953C29.57 45.2817 29.3943 44.9205 29.2233 44.5585C29.2163 44.5446 29.2006 44.5347 29.1892 44.5242C29.2317 43.9009 29.0187 43.2898 29.0932 42.6652C28.8881 42.4095 29.0415 42.0996 28.9652 41.8175C28.8907 41.5392 28.9201 41.2337 28.9017 40.9398C28.8824 40.6312 29.0428 40.3469 29.0051 40.0296C28.9696 39.7331 28.9836 39.4284 29.0029 39.1289C29.0143 38.9536 29.0581 38.7734 29.1269 38.6119C29.2172 38.3997 29.2212 38.2087 29.1278 37.9982C29.0866 37.9057 29.0787 37.782 29.0984 37.6809C29.1401 37.4647 29.215 37.2538 29.2654 37.0394C29.286 36.9499 29.2781 36.8544 29.2856 36.762C29.3167 36.364 29.3062 35.9559 29.3938 35.5701C29.4784 35.1972 29.4771 34.7966 29.6717 34.4537C29.7782 34.2662 29.7624 34.0713 29.7646 33.8742C29.7663 33.6368 29.765 33.3994 29.765 33.1693C29.8628 32.9805 29.9692 32.8034 30.049 32.6141C30.1279 32.4249 30.1914 32.2278 30.2418 32.0286C30.4461 31.2299 30.7327 30.4621 31.1069 29.7255C31.2481 29.4477 31.2801 29.1343 31.3922 28.8465C31.5154 28.5301 31.5978 28.2028 31.834 27.9324C31.9532 27.7957 32.0233 27.5947 32.0566 27.412C32.0899 27.224 32.1487 27.0691 32.2797 26.931C32.3498 26.8559 32.4147 26.7643 32.4454 26.6684C32.6198 26.1237 33.0304 25.7105 33.2644 25.2009C33.5173 25.022 33.4853 24.6909 33.6852 24.4669C33.9854 24.1288 34.1773 23.7016 34.5165 23.3874C34.5717 23.337 34.6103 23.2693 34.6533 23.2077C34.8417 22.9364 35.0074 22.6638 35.3168 22.4789C35.5122 22.3613 35.7029 22.1807 35.8168 21.9372C35.8988 21.7618 36.0749 21.6082 36.2445 21.4997C36.6762 21.2249 37.0001 20.8386 37.3476 20.4814C37.6943 20.1241 38.1369 19.9336 38.5567 19.6983C38.6036 19.6714 38.6786 19.6944 38.7 19.6944C38.9104 19.5742 38.9805 19.3467 39.2093 19.3085C39.2483 19.302 39.2785 19.2248 39.3149 19.2235C39.7751 19.2044 40.1537 18.9296 40.5911 18.8298C41.0412 18.7273 41.493 18.6249 41.9387 18.5051C41.9435 18.5038 41.9396 18.4752 41.9396 18.46H42.0356Z" fill="white"/>
<path fill-rule="evenodd" clip-rule="evenodd" d="M80.2959 32.3288C80.6896 32.0484 81.0738 31.8482 81.3573 31.5136C81.3936 31.4713 81.4601 31.4558 81.5095 31.4241C81.7235 31.2843 81.9597 31.1692 82.1448 30.9968C82.8737 30.3161 83.586 29.6177 84.3044 28.9251C84.3735 28.8589 84.4299 28.7536 84.51 28.7306C84.7283 28.6707 84.8648 28.4992 84.9628 28.34C85.1155 28.0931 85.3203 27.9066 85.5171 27.7077C85.756 27.4661 85.9415 27.1932 86.0859 26.8859C86.1677 26.7104 86.2535 26.5341 86.3611 26.3753C86.7015 25.8727 86.8428 25.2678 86.7339 24.7013C86.6551 24.6219 86.5746 24.5443 86.4985 24.4627C86.2123 24.1585 85.8838 23.9553 85.4467 23.9963C85.3859 24.002 85.2993 24.0157 85.2638 23.983C85.098 23.8256 84.874 23.9799 84.7292 23.8904C84.531 23.7688 84.3363 23.8076 84.1412 23.8111C83.9788 23.8128 83.8187 23.8785 83.6551 23.8984C83.5291 23.9138 83.3996 23.9138 83.2736 23.8975C83.1572 23.8829 83.0456 23.8124 82.9306 23.8089C82.5486 23.7974 82.1662 23.8018 81.7843 23.8076C81.713 23.8084 81.6342 23.8336 81.573 23.8702C81.4566 23.9403 81.3135 24.0038 81.2479 24.1118C81.1661 24.2467 81.135 24.4195 81.1118 24.5809C81.0904 24.7383 81.1197 24.9027 81.1035 25.0606C81.0886 25.2101 81.0462 25.3569 81.0108 25.5033C80.9832 25.6188 80.9088 25.7383 80.9224 25.8476C80.9985 26.4649 80.7404 27.0398 80.7163 27.6451C80.7084 27.8462 80.603 28.0437 80.5522 28.2104C80.5807 28.3678 80.6555 28.5172 80.6192 28.6301C80.5251 28.9211 80.5072 29.2244 80.4271 29.5128C80.3952 29.6279 80.2871 29.7597 80.3501 29.8554C80.4814 30.056 80.407 30.2169 80.3501 30.4096C80.3072 30.5573 80.4004 30.7654 80.3291 30.88C80.1939 31.0969 80.3243 31.3319 80.2355 31.5167C80.1322 31.7323 80.1589 31.939 80.2245 32.0881C80.249 32.1701 80.2727 32.2521 80.2959 32.3288ZM79.3066 38.3991C79.1303 38.8188 79.0682 39.2544 79.091 39.7103C79.0988 39.8752 79.1623 40.0547 79.0376 40.2156C78.9208 40.3677 79.1028 40.6023 78.9059 40.7394C78.9304 41.0207 78.681 41.3139 78.8271 41.5559C78.9663 41.7861 78.8459 41.9404 78.8009 42.1106C78.7571 42.2746 78.7016 42.4307 78.7134 42.6035C78.7191 42.6842 78.7484 42.7971 78.7086 42.839C78.5371 43.0219 78.7072 43.2724 78.6066 43.4231C78.4592 43.6427 78.5524 43.8548 78.5279 44.0677C78.506 44.2578 78.5791 44.4764 78.5095 44.6387C78.4211 44.8415 78.4478 45.0337 78.4251 45.2321C78.4036 45.4288 78.3546 45.6223 78.3341 45.8194C78.2947 46.1902 78.3266 46.5817 78.2194 46.9309C78.1166 47.2638 78.1783 47.5755 78.1311 47.8952C78.2894 47.9847 78.4185 48.0574 78.5572 48.1346C78.6351 48.0953 78.7007 48.0618 78.7987 48.0133C78.9352 48.0133 79.115 48.038 79.2839 48.0054C79.4396 47.9759 79.5788 47.8665 79.7337 47.8242C79.9515 47.7651 80.1773 47.7342 80.4092 47.6902C80.5426 47.6209 80.6831 47.5354 80.8336 47.4719C81.3096 47.2713 81.7519 47.001 82.2332 46.804C82.4996 46.6959 82.7801 46.5901 83.0373 46.4265C83.4866 46.1395 83.8822 45.7811 84.3297 45.4998C84.7012 45.2661 85.0276 44.991 85.3308 44.6771C85.5023 44.4981 85.6738 44.3239 85.893 44.189C86.1283 44.0457 86.3607 43.8623 86.5221 43.6427C86.6328 43.4924 86.7544 43.3561 86.8725 43.2142C86.9399 43.1335 86.9964 43.018 87.0546 42.9611C87.2287 42.7918 87.2506 42.5374 87.4173 42.3835C87.6491 42.1697 87.7926 41.9082 87.9046 41.6207C87.9423 41.5237 87.99 41.4232 88.0604 41.3496C88.2704 41.1283 88.3159 40.8448 88.3807 40.5666C88.4458 40.2875 88.4717 39.9925 88.5819 39.7341C88.7158 39.4193 88.69 39.1442 88.557 38.9008C88.2293 38.7095 87.9344 38.5367 87.7069 38.4039C87.4982 38.3652 87.3477 38.3709 87.2313 38.3105C86.775 38.0768 86.2784 38.0429 85.7866 37.9842C85.6361 37.9653 85.4957 37.9741 85.3417 37.9C85.1588 37.8105 84.9282 37.7977 84.7178 37.7937C84.0642 37.7818 83.4101 37.7893 82.7564 37.7907C82.6632 37.7911 82.567 37.7898 82.4769 37.8105C82.2603 37.8612 82.0481 37.9586 81.8302 37.9719C81.6399 37.9847 81.44 38.0433 81.2387 37.9C81.1337 37.8237 80.8891 37.8264 80.7806 37.9018C80.6244 38.0102 80.48 37.9705 80.3309 37.9794C80.1257 37.9913 79.9183 37.9829 79.7197 37.9829C79.5775 38.1262 79.4418 38.2629 79.3066 38.3991ZM76.6833 24.8926C76.5866 24.8507 76.4917 24.8084 76.3841 24.7612C75.8897 25.0169 75.506 24.7065 75.1183 24.4649C74.8501 24.2974 74.7403 23.9923 74.5994 23.7216C74.5714 23.6682 74.5465 23.6136 74.4874 23.4928C74.5198 23.1612 74.5251 22.7507 74.6117 22.3574C74.6677 22.1035 74.7675 21.8526 74.9656 21.6357C75.38 21.1824 75.9102 20.9289 76.4335 20.6547C76.731 20.6688 76.973 20.4867 77.2394 20.4012C77.4901 20.3205 77.7797 20.3333 77.9937 20.1428C78.2142 20.179 78.4172 20.0983 78.6219 20.041C78.8061 19.9889 78.9829 19.91 79.1658 19.8531C79.224 19.8355 79.2935 19.858 79.3561 19.8492C79.5998 19.8174 79.8443 19.8994 80.0924 19.7777C80.3072 19.6732 80.5872 19.8329 80.8104 19.6613C80.841 19.6371 80.9044 19.653 80.9513 19.6587C81.5498 19.7284 82.1325 19.5295 82.7306 19.5551C82.8907 19.5617 83.0531 19.485 83.2171 19.4682C83.3751 19.4524 83.5365 19.4718 83.6949 19.4638C84.0362 19.4435 84.3621 19.5035 84.6775 19.6367C84.7178 19.6538 84.7668 19.6578 84.8119 19.6565C85.0433 19.6499 85.2673 19.6671 85.4918 19.7486C85.7215 19.8311 85.9651 19.8875 86.2154 19.8505C86.2316 19.8487 86.25 19.8452 86.2631 19.8514C86.4832 19.9488 86.687 20.0568 86.95 20.0568C87.1788 20.0564 87.4168 20.1494 87.6334 20.2429C87.8373 20.3311 88.018 20.4717 88.2074 20.5925C88.3093 20.6573 88.4012 20.7768 88.5071 20.7874C88.8488 20.824 89.0514 21.0533 89.2675 21.2742C89.4351 21.4448 89.5974 21.6238 89.7759 21.7829C90.0804 22.0541 90.2628 22.4139 90.4838 22.7432C90.713 23.0849 90.7209 23.5099 90.8692 23.8838C90.9944 24.1982 90.9541 24.5297 90.9685 24.856C90.9747 25.0055 90.9274 25.1549 91.0464 25.3084C91.1103 25.3913 91.0731 25.5932 91.0215 25.7162C90.8587 26.106 90.783 26.5213 90.6912 26.9252C90.5792 27.4203 90.3473 27.8453 90.1141 28.2783C90.0502 28.3964 89.9688 28.5058 89.9141 28.6288C89.7317 29.0379 89.4788 29.3982 89.1647 29.7116C89.0304 29.8457 88.9236 29.992 88.8624 30.1662C88.7573 30.4585 88.56 30.6922 88.3111 30.8355C87.969 31.0334 87.8062 31.3518 87.5559 31.6974C87.3293 31.8028 87.0585 31.943 86.9054 32.2649C86.8432 32.3963 86.6744 32.4981 86.5309 32.5969C86.2592 32.7838 86.0526 33.0642 85.8024 33.3226V33.6982C85.8943 33.7392 85.9997 33.8283 86.1043 33.8283C86.5532 33.827 86.9592 33.9725 87.3796 34.1052C87.6697 34.1965 88.0114 34.1224 88.2183 34.1224C88.9577 34.4226 89.6004 34.6828 90.3315 34.9799C90.5446 35.1894 90.8036 35.505 91.1869 35.6717C91.2512 35.6999 91.3002 35.774 91.3461 35.834C91.3916 35.8935 91.4096 35.9874 91.4664 36.0213C91.8484 36.2484 91.9678 36.6836 92.2426 36.9904C92.4609 37.2347 92.4591 37.5464 92.5856 37.8158C92.6608 37.9767 92.7217 38.1584 92.6893 38.351C92.6735 38.4463 92.7492 38.5292 92.765 38.6054C92.8319 38.9255 93.0218 39.254 92.7833 39.5807C92.8267 39.9899 92.6516 40.3651 92.6061 40.7566C92.5663 41.0948 92.4425 41.4245 92.488 41.7768C92.5016 41.8809 92.4403 42.0211 92.3677 42.1053C92.0855 42.4346 92.0133 42.8606 91.8353 43.2362C91.7639 43.387 91.718 43.5457 91.5942 43.6652C91.3951 43.8587 91.2818 44.1092 91.1571 44.3512C91.0175 44.6228 90.8631 44.8816 90.65 45.1047C90.5783 45.1788 90.542 45.2859 90.4763 45.3679C90.1469 45.7811 89.8341 46.2061 89.3725 46.4958C89.1747 46.6201 89.0255 46.826 88.8628 47.0015C88.8138 47.0535 88.8072 47.1479 88.756 47.1959C88.4358 47.4962 88.1286 47.8171 87.7743 48.0724C87.6089 48.1919 87.4518 48.3154 87.3188 48.4631C86.9736 48.8462 86.5199 49.075 86.1078 49.3625C85.9472 49.474 85.7753 49.5702 85.6208 49.6896C85.413 49.851 85.2218 50.034 85.0136 50.1953C84.9344 50.2566 84.8316 50.3109 84.7336 50.3232C84.3004 50.3761 83.978 50.6649 83.6126 50.8567C83.4411 50.9453 83.3073 51.1089 83.0902 51.0996C82.5836 51.4757 81.9619 51.5405 81.3866 51.7261C81.0195 51.8447 80.6389 51.9171 80.3112 52.1384C80.2775 52.1622 80.2224 52.1578 80.1769 52.1595C79.994 52.1666 79.8203 52.1997 79.6392 52.2438C79.0721 52.3791 78.4959 52.4682 77.9035 52.4594C77.3746 52.4514 76.9008 52.2843 76.4129 52.1199C76.1614 52.0348 75.9395 51.8809 75.6547 51.8553C75.4482 51.8372 75.2303 51.7094 75.0602 51.5745C74.7574 51.3351 74.4332 51.134 74.2591 50.731C74.0617 50.2734 73.8837 49.8351 73.9261 49.3259C73.9449 49.1024 73.9292 48.8762 73.9292 48.6513C73.9292 48.3136 73.8504 47.9485 73.9519 47.6461C74.0526 47.3471 73.9252 47.0244 74.1138 46.7493C74.1589 46.6845 74.1177 46.5615 74.1212 46.4653C74.13 46.2343 74.1081 46.0081 74.2052 45.7767C74.2853 45.5871 74.1396 45.3366 74.312 45.1466C74.1921 44.7375 74.5806 44.3327 74.3251 43.9183C74.3111 43.8953 74.396 43.8252 74.4052 43.7706C74.5264 43.0801 74.6397 42.3888 74.6008 41.682C74.5933 41.5445 74.6279 41.4206 74.6826 41.283C74.8033 40.9806 74.8121 40.6406 74.9726 40.3421C75.0151 40.2637 74.9648 40.1301 74.9481 40.0234C74.9346 39.9343 74.9031 39.8492 74.8873 39.7602C74.8099 39.3453 75.0133 38.9802 75.0951 38.594C75.1131 38.5067 75.17 38.4225 75.1695 38.3378C75.1656 37.7924 75.1669 37.2514 75.359 36.7277C75.3997 36.6139 75.3647 36.4728 75.3647 36.3445C75.366 36.0041 75.3362 35.6624 75.5278 35.3503C75.5712 35.2797 75.558 35.1669 75.555 35.0738C75.5423 34.7004 75.5694 34.3353 75.7344 33.9906C75.7527 33.9518 75.7523 33.8975 75.7462 33.8521C75.6814 33.3442 75.8634 32.8548 75.8494 32.3486C75.8442 32.1538 75.9059 31.9571 75.9395 31.7622C75.9732 31.5669 75.8569 31.3527 76.0288 31.1692C76.0686 31.1265 76.0354 31.0136 76.0349 30.9334C76.0297 30.47 76.1758 30.0335 76.2777 29.5891C76.2878 29.5454 76.325 29.5022 76.3197 29.463C76.2515 29.0022 76.4545 28.5596 76.4099 28.105C76.3897 27.9026 76.5092 27.7527 76.5188 27.5658C76.528 27.3854 76.4296 27.1795 76.6089 27.0274C76.5744 26.635 76.7214 26.2739 76.7844 25.8983C76.8386 25.5734 76.878 25.2087 76.6833 24.8926Z" fill="white"/>
<path fill-rule="evenodd" clip-rule="evenodd" d="M65.7712 41.5358C65.7576 41.213 65.9157 40.8777 66.0488 40.5326C66.2119 40.1076 66.5131 39.7253 66.4723 39.2353C66.6539 39.1004 66.4931 38.8731 66.5869 38.7467C66.7151 38.5755 66.6453 38.406 66.6698 38.2393C66.6788 38.1756 66.6562 38.0976 66.6856 38.0488C66.8514 37.7834 66.8876 37.4952 66.87 37.1926C66.8673 37.1469 66.879 37.0989 66.8926 37.0554C67.0566 36.5489 67.1866 36.0379 67.1666 35.5004C67.1621 35.3709 67.134 35.227 67.1784 35.1131C67.3306 34.725 67.3695 34.3265 67.3682 33.9159C67.3677 33.7639 67.3455 33.616 67.4357 33.4533C67.509 33.3197 67.4936 33.0906 67.4289 32.9409C67.3184 32.6849 67.399 32.4335 67.3641 32.1838C67.4991 32.095 67.4542 31.9565 67.4642 31.8319C67.4864 31.567 67.4012 31.2922 67.5548 31.0345C67.5919 30.9722 67.5403 30.8534 67.5204 30.7619C67.471 30.5378 67.4162 30.3146 67.3641 30.0918C67.5589 29.8892 67.3976 29.6874 67.3623 29.4866C67.341 29.3674 67.2771 29.2535 67.2694 29.1352C67.2545 28.907 67.2812 28.6766 67.2608 28.4489C67.2396 28.2176 67.182 27.9899 67.1372 27.7447C67.0552 27.5883 66.9624 27.413 66.8632 27.2238C66.9112 26.8329 66.8301 26.4622 66.5724 26.1346C66.4669 26.0005 66.3718 25.8584 66.2744 25.7177C65.9447 25.2421 65.5506 24.8279 65.0633 24.5096C64.8323 24.3595 64.58 24.2416 64.2893 24.0829C64.1602 24.0775 63.9813 24.0793 63.7924 23.9982C63.4708 23.8601 63.1198 23.7104 62.7811 23.7104C62.1144 23.7104 61.4205 23.5365 60.7832 23.8888C60.5015 24.0448 60.1745 24.0049 59.8715 24.0708C59.1804 24.2205 58.4661 24.7042 58.1047 25.1601C58.0082 25.2824 57.9176 25.4097 57.8243 25.5352C57.7315 25.6603 57.6559 25.8055 57.5413 25.9073C57.1681 26.239 56.9493 26.6926 56.6033 27.0463C56.4996 27.1526 56.4085 27.2973 56.3732 27.439C56.2405 27.9738 55.9185 28.4287 55.7509 28.9496C55.668 29.2069 55.4542 29.4113 55.4633 29.7184C55.4674 29.8533 55.3288 29.9864 55.2794 30.1281C55.1286 30.5651 54.9352 30.9986 54.9846 31.4746C55.0086 31.7082 54.9239 31.9144 54.8401 32.1044C54.6159 32.6083 54.5226 33.1336 54.4864 33.6742C54.4755 33.8365 54.5398 34.0284 54.4741 34.1588C54.2862 34.53 54.4519 34.9343 54.3038 35.3149C54.2096 35.5569 54.2567 35.8676 54.2939 36.1406C54.3346 36.4373 54.1698 36.6937 54.1834 36.9828C54.1997 37.3257 54.1861 37.6696 54.1874 38.0129C54.1883 38.1375 54.2354 38.2496 54.2717 38.3684C54.3849 38.7382 54.5013 39.1259 54.2862 39.4868C54.3247 39.5733 54.3636 39.6401 54.3826 39.7123C54.4026 39.788 54.3754 39.8871 54.4157 39.9427C54.5267 40.096 54.5212 40.23 54.4207 40.382C54.3899 40.4295 54.3786 40.5039 54.389 40.5617C54.4107 40.6971 54.4528 40.8289 54.4836 40.9625C54.5153 41.0974 54.5036 41.2328 54.5461 41.3771C54.6816 41.8303 54.7898 42.2983 54.8627 42.7635C54.9375 43.2378 55.134 43.6367 55.3713 44.0294C55.5154 44.2679 55.6662 44.5153 55.865 44.7054C56.0965 44.9259 56.139 45.2178 56.2672 45.4759C56.274 45.4894 56.269 45.5105 56.279 45.5203C56.76 45.9717 57.1681 46.506 57.8877 46.6517C58.1908 46.7136 58.4978 46.8301 58.7827 46.9964C58.9544 47.0959 59.1858 47.1686 59.4182 47.13C59.9453 47.0413 60.4766 47.0081 61.0115 47.0274C61.0518 47.0296 61.0908 46.9821 61.1347 46.9713C61.4526 46.8884 61.7262 46.7275 61.9984 46.5459C62.4862 46.2187 63.0437 45.9874 63.3671 45.4535C63.45 45.3182 63.5755 45.1756 63.7163 45.1124C64.0959 44.943 64.253 44.601 64.4387 44.2827C64.7376 43.7703 64.9342 43.2042 65.2825 42.7169C65.3255 42.656 65.3785 42.5811 65.3776 42.5134C65.3735 42.1472 65.643 41.9015 65.7712 41.5358ZM64.4374 19.6725C64.8205 19.9688 65.2748 20.0226 65.6951 20.1597C66.504 20.4242 67.2423 20.8223 67.9484 21.2835C68.0285 21.3373 68.1345 21.4144 68.1463 21.4924C68.1662 21.6269 68.2518 21.7035 68.3383 21.7564C68.8687 22.0855 69.1572 22.6471 69.6214 23.0416C69.8773 23.2599 70.1781 23.8005 70.337 24.2165C70.3647 24.2873 70.3887 24.3648 70.438 24.4191C70.78 24.7956 70.862 25.2918 71.0735 25.7271C71.174 25.9364 71.059 26.1364 71.1595 26.3309C71.242 26.49 71.3099 26.6743 71.3194 26.8509C71.3366 27.1647 71.3262 27.4771 71.5128 27.755C71.5359 27.7891 71.5214 27.8482 71.5255 27.8962C71.5581 28.2745 71.5441 28.6654 71.6387 29.0276C71.7216 29.3468 71.6944 29.6579 71.7293 29.9707C71.7547 30.1953 71.8339 30.4136 71.9001 30.6763C71.8833 30.7422 71.8321 30.8587 71.8267 30.9775C71.8135 31.255 71.8013 31.5352 71.8267 31.8108C71.8892 32.4899 71.6931 33.1534 71.7239 33.8289C71.5468 34.2287 71.6491 34.651 71.6265 35.0629C71.6161 35.2427 71.6079 35.4238 71.6283 35.6017C71.6505 35.7842 71.5771 35.9379 71.525 36.1002C71.473 36.2625 71.4023 36.4171 71.4118 36.5964C71.4159 36.6632 71.3303 36.7354 71.3316 36.804C71.3384 37.1065 71.3153 37.3961 71.141 37.6601C71.1111 37.7063 71.1215 37.7883 71.131 37.8498C71.2057 38.3339 70.9498 38.7691 70.9272 39.238C70.7854 39.3263 70.8285 39.4689 70.8348 39.5908C70.8511 39.9328 70.7053 40.2188 70.5359 40.5487C70.5603 40.7598 70.4729 40.9768 70.3466 41.2072C70.1341 41.594 70.0463 42.0324 69.9367 42.4596C69.8352 42.8559 69.7505 43.2611 69.5422 43.6211C69.3664 43.9259 69.2179 44.2388 69.1418 44.5862C69.1169 44.6991 69.0245 44.7977 68.9674 44.9053C68.6092 45.5826 68.1866 46.2214 67.7835 46.8723C67.2355 47.7553 66.4198 48.3842 65.6974 49.0965C65.34 49.448 64.9356 49.7702 64.5298 50.0782C64.4573 50.1342 64.3749 50.1786 64.2911 50.2176C63.888 50.3987 63.4899 50.5915 63.0786 50.7528C62.6674 50.9142 62.2466 51.0541 61.8236 51.1849C61.5876 51.258 61.3421 51.3028 61.0976 51.3418C60.9119 51.3701 60.7158 51.3091 60.5405 51.4373C60.487 51.4759 60.3765 51.457 60.2977 51.4405C59.8212 51.3436 59.8222 51.3418 59.3883 51.4418C59.3575 51.449 59.3208 51.449 59.2895 51.4418C59.1546 51.4122 59.0191 51.3526 58.8851 51.3526C58.7501 51.3526 58.6165 51.4176 58.4797 51.4414C58.2501 51.4799 58.0472 51.3701 57.852 51.2858C57.5426 51.1522 57.2229 51.0505 56.9104 50.933C56.3397 50.717 55.7749 50.4727 55.2699 50.1163C55.0942 49.993 54.8999 49.8774 54.7133 49.79C54.1313 49.5188 53.7934 49.0172 53.4052 48.5595C53.3156 48.4524 53.2544 48.3201 53.157 48.2215C52.864 47.9297 52.5864 47.628 52.3853 47.2623C52.34 47.1802 52.2566 47.1116 52.1769 47.0552C51.9473 46.8906 51.8178 46.6396 51.7367 46.402C51.5904 45.969 51.3947 45.5607 51.2158 45.1438C51.1746 45.0465 51.1565 44.9394 51.1139 44.8426C51.0356 44.6619 51.022 44.4651 50.8929 44.2921C50.7607 44.1159 50.623 43.8748 50.6388 43.6735C50.6674 43.305 50.4681 43.0114 50.4187 42.6757C50.4106 42.6206 50.3358 42.5744 50.3268 42.5188C50.2856 42.2727 50.2584 42.0235 50.2235 41.776C50.1959 41.5766 50.3014 41.3547 50.1248 41.1794C50.1646 40.78 50.0944 40.3985 49.9287 40.0337C49.9164 40.0068 49.9314 39.9687 49.9259 39.9373C49.8874 39.7114 50.1116 39.528 49.978 39.2604C49.8793 39.0623 49.8847 38.7759 49.9368 38.5499C50.0754 37.9591 50.0115 37.3661 50.0233 36.7739C50.0351 36.1858 50.0251 35.5977 50.0265 35.0096C50.0265 34.8688 50.0568 34.742 50.1103 34.603C50.1972 34.3758 50.2344 34.1247 50.2335 33.8648C50.233 33.3887 50.257 32.9064 50.3349 32.4375C50.3843 32.1412 50.4934 31.8494 50.5591 31.5509C50.5682 31.5087 50.6135 31.4715 50.6185 31.4294C50.6551 31.1004 50.6696 30.7682 50.7244 30.441C50.7724 30.1581 50.8775 29.8874 51.0116 29.6292C51.0528 29.5489 51.1103 29.4615 51.1103 29.3777C51.1112 28.9505 51.3332 28.5807 51.412 28.1764C51.4183 28.1445 51.3997 28.1011 51.4147 28.0796C51.7458 27.6134 51.8341 27.0405 52.1058 26.5483C52.2961 26.2027 52.3961 25.8181 52.595 25.4734C52.7431 25.2183 52.8853 24.9646 53.0769 24.7396C53.1566 24.6459 53.2626 24.5433 53.2798 24.4334C53.3301 24.1134 53.5307 23.9022 53.7431 23.6893C54.0235 23.4092 54.2717 23.1093 54.5013 22.7803C54.7776 22.3849 55.1644 22.055 55.5398 21.7394C55.7776 21.5399 56.0521 21.3808 56.2926 21.175C56.7292 20.8034 57.2414 20.5524 57.7822 20.3601C57.8262 20.3449 57.8891 20.3624 57.9199 20.3373C58.3099 20.0172 58.7732 19.9199 59.2592 19.8617C59.4517 19.8392 59.6342 19.7348 59.8226 19.6729C60.0504 19.599 60.2814 19.5645 60.5246 19.5712C61.1564 19.5891 61.7778 19.4398 62.4151 19.4623C62.7398 19.473 63.0442 19.5654 63.364 19.5842C63.5288 19.5932 63.686 19.694 63.869 19.6765C64.0488 19.6595 64.2317 19.6725 64.4374 19.6725Z" fill="white"/>
<path fill-rule="evenodd" clip-rule="evenodd" d="M67.4473 75.0688C67.0982 75.1652 67.0851 75.4328 67.0475 75.6092C66.9482 76.0791 66.796 76.5447 66.8314 77.041C66.845 77.2291 66.7767 77.4241 66.7431 77.616C66.712 77.7915 66.8244 77.9908 66.6508 78.1473C66.6271 78.1681 66.6424 78.239 66.6481 78.2852C66.7146 78.7677 66.5278 79.232 66.5497 79.7123C66.5515 79.7685 66.5292 79.8282 66.5064 79.8818C66.4264 80.0742 66.4452 80.2601 66.5007 80.4577C66.5449 80.6168 66.6005 80.8221 66.5362 80.9488C66.4504 81.1182 66.5257 81.3106 66.4439 81.4299C66.3279 81.5981 66.3892 81.7585 66.3581 81.9185C66.3336 82.0482 66.3279 82.2012 66.2531 82.298C66.0467 82.5631 66.233 82.7494 66.3538 82.9465C66.4093 83.0382 66.5073 83.1048 66.59 83.186C66.89 83.2206 67.1932 83.2686 67.4985 83.2855C67.6441 83.2933 67.7937 83.3248 67.9473 83.2107C68.0312 83.1493 68.2342 83.1796 68.3488 83.2358C68.5365 83.3291 68.7521 83.3361 68.8903 83.269C69.05 83.1925 69.1908 83.2025 69.34 83.1999C69.8019 83.1908 70.2647 83.1925 70.727 83.1977C71.0818 83.2016 71.4208 83.1376 71.755 83.0239C71.8403 82.995 71.9409 83.0088 72.0349 83.0079C72.3223 83.0062 72.6097 83.0192 72.8958 83.004C73.2505 82.9859 73.6026 82.9323 73.9569 82.9158C74.3069 82.9007 74.6743 82.9772 75.0054 82.8968C75.4595 82.7861 75.9069 82.8333 76.3566 82.8216C77.0154 82.8034 77.5018 83.0723 77.7489 83.7022C77.7646 83.7433 77.8066 83.7744 77.8394 83.8129C77.8661 84.0857 77.7913 84.3339 77.657 84.5811C77.5258 84.8245 77.5529 85.1319 77.3649 85.3602C77.3277 85.4056 77.3145 85.486 77.2695 85.5063C76.9729 85.6395 76.8028 85.9127 76.5657 86.1107C76.4743 86.1868 76.3759 86.265 76.2674 86.3096C75.8575 86.4738 75.4433 86.6265 75.0286 86.7782C74.9722 86.799 74.9018 86.8011 74.8427 86.7873C74.6021 86.7341 74.3943 86.8941 74.1643 86.882C73.9272 86.8699 73.7238 86.9628 73.5147 87.0471C73.3327 87.1202 73.1083 87.0086 72.9439 87.1682C72.4562 87.1033 71.9842 87.2693 71.5008 87.2602C71.367 87.2572 71.2301 87.3017 71.0975 87.1863C71.0341 87.131 70.8631 87.1314 70.7787 87.1759C70.4939 87.3259 70.1952 87.2304 69.9051 87.2641C69.679 87.2905 69.4546 87.3389 69.2276 87.3532C68.9896 87.3696 68.7337 87.3061 68.5146 87.3718C68.2832 87.4397 68.0544 87.4855 67.8331 87.4444C67.2102 87.329 66.5838 87.3675 65.9583 87.3532C65.8752 87.3515 65.796 87.2814 65.7107 87.265C65.2545 87.1759 64.7926 87.1323 64.3429 86.9922C64.122 86.9235 63.8487 86.9334 63.6256 87.1011C62.9835 86.757 62.3453 86.4419 61.956 85.7895C61.9905 85.4622 61.9122 85.1445 61.7652 84.8124C61.7919 84.7558 61.8554 84.6771 61.8584 84.5958C61.8746 84.2132 61.854 83.8324 61.9494 83.451C62.0063 83.2215 61.966 82.9742 62.0448 82.7325C62.113 82.5233 61.9931 82.2734 62.1471 82.0633C62.1699 82.033 62.155 81.9708 62.1497 81.9245C62.0776 81.3638 62.2954 80.8208 62.2477 80.2614C62.2324 80.0794 62.4039 79.9263 62.3418 79.7331C62.5508 79.3898 62.3221 78.9722 62.5334 78.6294C62.4927 78.4072 62.6226 78.1638 62.4489 77.9537C62.4253 77.9247 62.4192 77.8469 62.4411 77.8201C62.6033 77.6177 62.4682 77.3432 62.6243 77.1366C62.6829 77.0592 62.7079 76.9472 62.7206 76.8478C62.7363 76.7228 62.7144 76.5944 62.7267 76.4704C62.7538 76.1829 62.7919 75.898 62.826 75.6113C62.6353 75.3571 62.3903 75.2218 62.0837 75.1211C61.676 74.9875 61.3414 74.7199 61.1905 74.2854C61.1524 74.1756 61.0768 74.0783 61.0041 73.9499C60.981 73.774 61.002 73.5703 60.9232 73.3559C60.8436 73.1393 60.9875 72.8938 61.0781 72.6754C61.1673 72.4601 61.2898 72.2578 61.3834 72.0438C61.5413 71.6802 61.7906 71.4157 62.1716 71.279C62.2127 71.2639 62.2473 71.2293 62.2928 71.1978C62.5968 71.1264 62.941 71.3045 63.2389 71.0737C63.3675 70.9302 63.3959 70.7477 63.4003 70.5458C63.4056 70.321 63.4629 70.0988 63.4891 69.8757C63.5149 69.6513 63.4401 69.4201 63.5779 69.2004C63.6273 69.1205 63.5858 68.9843 63.5858 68.8745C63.5867 68.5567 63.5587 68.2351 63.7481 67.9476C63.7778 67.9017 63.7804 67.8295 63.7752 67.7712C63.738 67.3527 63.7804 66.9333 63.8845 66.5369C64 66.089 63.9278 65.645 63.9725 65.2019C64.0175 64.7531 64.0927 64.3083 64.1645 63.8621C64.1715 63.8137 64.2371 63.7731 64.2695 63.7363C64.2043 63.5936 64.1054 63.4955 64.1973 63.3399C64.3478 63.0852 64.3578 62.7969 64.3543 62.5055C64.3491 62.0351 64.2996 61.5583 64.535 61.1147C64.5682 61.0529 64.5442 60.9599 64.5415 60.8817C64.5337 60.5773 64.5402 60.2808 64.7012 60.0002C64.7563 59.9034 64.7292 59.7594 64.7331 59.6366C64.7462 59.2838 64.8727 58.9449 65.0931 58.7019C65.4024 58.3613 65.7921 58.0872 66.2908 58.0379C66.3761 58.0297 66.4587 57.9877 66.5615 57.9549C66.6363 57.9787 66.7378 58.0426 66.8332 58.0349C67.1866 58.0072 67.5413 58.104 67.8996 57.9588C68.0986 57.8775 68.3584 57.9882 68.5754 57.8563C68.6113 57.8347 68.6887 57.8771 68.746 57.8926C68.8033 57.9078 68.8615 57.9488 68.9144 57.9419C69.0618 57.922 69.2061 57.8736 69.354 57.8533C69.4931 57.8351 69.6405 57.8606 69.7757 57.8278C70.1781 57.7318 70.2726 57.7508 70.8084 57.8364C71.042 57.8736 71.3075 57.9281 71.5446 57.7893C71.5818 57.7685 71.6308 57.7634 71.6741 57.7582C71.7217 57.7526 71.7703 57.7538 71.818 57.7573C72.8923 57.8299 73.9574 57.6263 75.0312 57.657C75.2241 57.6626 75.4188 57.5956 75.613 57.5688C75.8085 57.542 76.0159 57.625 76.2004 57.4785C76.2486 57.4404 76.3549 57.4728 76.4349 57.4728C77.3115 57.4728 78.1885 57.4798 79.0655 57.4677C79.2291 57.4651 79.3722 57.5074 79.5012 57.5736C79.7654 57.7076 80.0261 57.8567 80.2654 58.031C80.5414 58.2324 80.6656 58.5433 80.8239 58.8377C80.9508 59.075 80.8537 59.2925 80.9001 59.4607C80.8134 59.6509 80.7465 59.7961 80.6805 59.9427C80.7041 59.9596 80.7286 59.9781 80.7522 59.995C80.6542 60.0737 80.5392 60.139 80.4613 60.2332C80.0698 60.707 79.5231 60.9293 78.9689 61.1277C78.6762 61.2327 78.3639 61.2881 78.0573 61.3482C77.5779 61.4428 77.1028 61.5613 76.6055 61.5449C76.4773 61.5406 76.3448 61.6313 76.2158 61.6275C76.0369 61.621 75.8383 61.7118 75.676 61.5444C75.6458 61.5125 75.5465 61.522 75.4905 61.5423C75.0015 61.7217 74.495 61.6019 73.9985 61.6322C73.5331 61.6607 73.0742 61.7844 72.6031 61.7282C72.2143 61.9167 71.7992 61.7818 71.3989 61.8237C71.1566 61.8488 70.9038 61.761 70.6689 61.9106C70.6076 61.9487 70.4642 61.9305 70.4038 61.8825C70.2997 61.7991 70.1951 61.8311 70.0906 61.825C69.9655 61.8181 68.9389 62.0481 68.8234 62.1078C68.5623 62.2439 68.5242 62.5081 68.47 62.7528C68.4437 62.8725 68.47 63.004 68.4647 63.1298C68.4555 63.3256 68.4424 63.5124 68.3886 63.7108C68.3239 63.9495 68.2915 64.2153 68.2535 64.4669C68.1979 64.8348 68.19 65.198 68.1743 65.5659C68.1703 65.664 68.1174 65.7609 68.082 65.8569C67.9525 66.214 67.9941 66.5853 67.9866 66.9528C67.9836 67.1491 67.9976 67.3414 67.897 67.5308C67.8047 67.7042 67.7679 67.9004 67.7929 68.1036C67.802 68.1771 67.8055 68.2792 67.7631 68.3237C67.6564 68.4361 67.6712 68.5835 67.7093 68.6752C67.8235 68.9441 67.795 69.1879 67.7067 69.4538C67.6411 69.6505 67.6874 69.8947 67.5908 70.0668C67.4792 70.2674 67.54 70.4581 67.5011 70.6625C67.6166 70.7637 67.7351 70.867 67.8834 70.9963C68.6318 70.9963 69.4279 71.0011 70.2236 70.9924C70.3706 70.9911 70.5149 70.9206 70.6627 70.9059C70.8211 70.8899 70.9816 70.9003 71.1413 70.9029C71.2633 70.9046 71.3749 70.9474 71.489 70.9786C71.7029 71.0382 71.9216 71.1035 72.1622 71.0996C73.1823 71.0802 74.2032 71.0905 75.2233 71.0918C75.4065 71.0918 75.5846 71.0836 75.7617 71.1792C75.8881 71.2462 76.0522 71.2803 76.1956 71.2717C76.3614 71.2626 76.4878 71.3646 76.6352 71.3716C77.0425 71.3888 77.2542 71.6616 77.4602 71.9509C77.5131 72.0261 77.5713 72.0974 77.6409 72.1878C77.755 72.7243 77.4515 73.1713 77.2258 73.6374C77.1807 73.7303 77.1247 73.8215 77.0565 73.898C76.8513 74.1272 76.7275 74.4523 76.3321 74.467C76.0351 74.4791 75.7145 74.483 75.424 74.6611C75.3882 74.6827 75.3339 74.6892 75.2915 74.6827C74.8816 74.6213 74.4932 74.8085 74.0864 74.783C74.0309 74.7791 73.9709 74.8072 73.9171 74.8314C73.4132 75.0588 72.908 74.978 72.4019 74.8405C72.3157 74.8167 72.2256 74.777 72.1408 74.7843C71.9934 74.7977 71.8481 74.8435 71.702 74.8738C71.5695 74.9006 71.4134 74.8102 71.304 74.9525C70.9654 74.9015 70.6321 75.2227 70.2901 74.9685C69.8115 74.9685 69.3334 74.9594 68.8549 74.9745C68.7285 74.9784 68.5938 75.0372 68.4813 75.1016C68.3007 75.2049 68.0724 75.2093 67.9425 75.134C67.75 75.0225 67.572 75.1094 67.4473 75.0688Z" fill="white"/>
<path fill-rule="evenodd" clip-rule="evenodd" d="M104.899 20.46C105.705 20.6945 106.477 20.7833 107.188 20.7347C107.622 20.915 107.995 21.0519 108.353 21.2199C108.725 21.3962 109.161 21.4116 109.497 21.6881C109.704 21.8591 109.897 22.0215 110.043 22.2525C110.52 23.0094 110.54 23.6158 110.482 24.223C110.461 24.4448 110.406 24.6719 110.4 24.9016C110.003 25.5014 110.003 25.5014 109.539 25.7084C109.406 25.6765 109.288 25.6379 109.166 25.6213C109.017 25.6008 108.668 25.4791 108.519 25.3903C108.374 25.305 108.23 25.2118 108.072 25.158C107.898 25.0985 107.708 25.0797 107.524 25.0456C107.341 25.0106 107.2 24.8872 107.015 24.8347C106.824 24.7817 106.643 24.7721 106.455 24.7533C106.366 24.7454 106.285 24.6872 106.197 24.6632C105.671 24.5197 105.127 24.5284 104.599 24.5844C104.297 24.6155 103.997 24.6448 103.694 24.6675C103.544 24.6785 103.369 24.713 103.258 24.7992C103.048 24.9633 102.816 24.9541 102.581 24.9642C102.275 25.0666 102.024 25.2621 101.7 25.3527C101.385 25.4406 101.101 25.6712 100.839 25.8803C100.569 26.0952 100.273 26.2518 99.9763 26.4215C99.5479 26.6657 99.1263 26.9509 98.8347 27.3373C98.5323 27.7376 98.2071 28.1243 97.9324 28.55C97.6036 29.0606 97.3329 29.5826 97.161 30.1592C97.1033 30.3548 97.0664 30.5425 97.0651 30.7433C97.0637 30.9087 97.035 31.0684 96.9887 31.2355C96.8986 31.565 97.051 31.8927 97.2629 32.1648C97.5472 32.5306 97.9588 32.7244 98.3881 32.8954C98.7283 33.0302 99.0981 33.0932 99.3932 33.343C99.5342 33.462 99.7512 33.5277 99.9426 33.553C100.163 33.5828 100.368 33.5885 100.576 33.7118C100.738 33.8077 100.946 33.84 101.122 33.9415C101.305 34.0474 101.509 34.1218 101.751 34.2307C102.014 34.2189 102.305 34.3196 102.607 34.4145C102.913 34.5116 103.23 34.5851 103.545 34.6626C103.951 34.7654 104.285 35.0143 104.69 35.1276C104.914 35.1902 105.149 35.1631 105.372 35.2751C105.766 35.4737 106.209 35.57 106.643 35.671C106.73 35.6916 106.827 35.7301 106.889 35.7892C107.14 36.0298 107.475 36.1173 107.778 36.2665C108.283 36.5154 108.743 36.8366 109.165 37.2054C109.331 37.3498 109.524 37.4657 109.684 37.6154C110.209 38.1084 110.603 38.7013 110.994 39.2924C111.2 39.6043 111.444 39.9031 111.495 40.289C111.689 40.4645 111.536 40.7278 111.684 40.9339C111.82 41.1212 111.75 41.3876 111.805 41.6029C111.957 42.1799 111.88 42.7588 111.885 43.3363C111.887 43.6881 111.807 44.0403 111.754 44.4857C111.61 44.679 111.411 44.9507 111.207 45.2272C111.078 45.6289 110.919 46.0301 110.652 46.381C110.417 46.6894 110.164 46.986 109.914 47.284C109.744 47.4879 109.596 47.729 109.382 47.8786C108.913 48.2058 108.563 48.6495 108.123 48.9977C107.774 49.2738 107.37 49.4843 107.004 49.7402C106.685 49.9612 106.312 50.0618 105.962 50.2114C105.627 50.354 105.275 50.4735 104.943 50.6161C104.488 50.8112 103.987 50.8519 103.55 51.0764C103.495 51.1048 103.438 51.1284 103.345 51.1731C103.159 51.1731 102.913 51.1254 102.7 51.1862C102.495 51.2457 102.261 51.2142 102.077 51.3581C102.027 51.3975 101.917 51.3643 101.833 51.3643C101.534 51.3643 101.235 51.3783 100.939 51.3612C100.498 51.3336 100.07 51.4211 99.6361 51.4548C99.4501 51.4688 99.2691 51.4575 99.0744 51.3796C98.8334 51.2833 98.545 51.2947 98.2758 51.2711C98.1771 51.2623 98.1007 51.2181 98.0138 51.1862C97.7241 51.0808 97.4385 50.9399 97.1065 50.9762C97.0219 50.9854 96.9295 50.932 96.8408 50.9053C96.2055 50.7194 95.6292 50.4061 95.043 50.1169C94.9588 50.0758 94.9038 49.9817 94.8256 49.9266C94.6346 49.7949 94.4504 49.6479 94.2416 49.5508C93.7372 49.3149 93.3656 48.9579 93.0896 48.4977C93.0659 48.4587 93.0536 48.4084 93.0204 48.3826C92.5524 48.0151 92.2959 47.5032 92.024 47.0289C91.9785 46.7896 91.8552 46.5411 91.9171 46.3486C91.9853 46.1351 92.0239 45.8756 92.2427 45.7133C92.4246 45.579 92.4574 45.2968 92.7316 45.2517C92.909 45.2395 93.1237 45.2824 93.2547 45.201C93.4434 45.0842 93.5467 45.2111 93.6904 45.2325C93.8687 45.2592 94.0538 45.2395 94.1743 45.2395C94.3662 45.3222 94.5095 45.3769 94.645 45.4451C95.1821 45.7155 95.6884 46.0331 96.195 46.353C96.542 46.5708 96.9209 46.7432 97.2884 46.9305C97.3411 46.9576 97.4116 46.9585 97.4735 46.9602C98.0647 46.9843 98.6296 47.1908 99.2322 47.1676C99.4333 47.1597 99.6384 47.3229 99.848 47.1562C99.8776 47.1326 99.9681 47.1326 99.9909 47.1562C100.139 47.3159 100.332 47.2157 100.499 47.2507C100.766 47.3072 100.995 47.1379 101.255 47.151C101.503 47.1624 101.755 47.1759 102 47.1471C102.259 47.1164 102.489 46.9734 102.762 46.9423C102.887 46.9283 103.029 46.8806 103.17 46.8622C103.291 46.8469 103.407 46.8005 103.527 46.7704C103.678 46.7332 103.828 46.6982 104.004 46.6557C104.259 46.3937 104.54 46.1198 104.982 46.0961C105.254 45.8424 105.504 45.5593 105.878 45.4154C105.991 45.3725 106.101 45.2579 106.156 45.1494C106.29 44.8864 106.524 44.7162 106.727 44.5167C106.988 44.2608 107.149 43.9803 107.24 43.6163C107.313 43.3197 107.404 43.0143 107.486 42.715C107.567 42.4232 107.567 42.1034 107.392 41.8172C107.297 41.6637 107.18 41.5167 107.122 41.3513C106.994 40.9768 106.75 40.7379 106.398 40.534C106.14 40.3861 105.968 40.1009 105.715 39.918C105.569 39.8734 105.399 39.8594 105.28 39.7771C104.918 39.5295 104.489 39.4547 104.09 39.3042C103.961 39.256 103.814 39.221 103.717 39.1357C103.465 38.913 103.105 38.9231 102.844 38.731C102.54 38.798 102.337 38.5175 102.031 38.525C101.779 38.5311 101.533 38.3985 101.3 38.2699C101.176 38.2021 100.982 38.2782 100.854 38.157C100.528 38.2064 100.287 38.0209 100.022 37.8927C99.8021 37.7869 99.5665 37.7173 99.32 37.6727C99.064 37.6272 98.7993 37.5392 98.5823 37.4303C98.2485 37.2636 97.8728 37.2325 97.5485 37.0518C97.4216 36.9801 97.2361 37.0146 97.086 36.9722C96.7713 36.8843 96.4897 36.7285 96.2287 36.5373C96.13 36.4651 96.0195 36.3466 95.9176 36.3492C95.6129 36.3571 95.4186 36.1523 95.2135 36.0162C94.8556 35.7791 94.5163 35.4943 94.2348 35.1758C93.855 34.7453 93.433 34.3414 93.1396 33.8457C93.0345 33.6672 92.914 33.4695 92.9008 33.2752C92.8553 32.6286 92.5956 32.0055 92.6875 31.3445C92.7012 31.2438 92.7294 31.1274 92.6129 31.0378C92.5788 31.0115 92.567 30.8964 92.5966 30.8623C92.7667 30.6659 92.6525 30.4375 92.6934 30.2288C92.7885 29.7462 92.8353 29.2588 93.0782 28.8034C93.2947 28.3991 93.4398 27.9568 93.5767 27.5206C93.6276 27.3578 93.7108 27.2218 93.7854 27.0761C94.0924 26.4789 94.4549 25.9175 94.9279 25.4253C95.0566 25.2919 95.2013 25.1519 95.2681 24.9887C95.3518 24.7804 95.5101 24.6343 95.6756 24.5367C95.9476 24.3775 96.145 24.1535 96.3637 23.9487C96.7326 23.6018 97.1228 23.2828 97.5476 23.0006C97.6422 22.9385 97.715 22.8466 97.795 22.7657C97.951 22.6082 98.1198 22.4835 98.3599 22.4559C98.4604 22.4437 98.5773 22.3929 98.6464 22.3225C98.8129 22.1496 99.0512 22.0814 99.2281 21.9444C99.6256 21.6347 100.124 21.5498 100.558 21.3262C100.667 21.2698 100.814 21.226 100.939 21.1727C101.391 20.978 101.822 20.7273 102.343 20.7382C102.542 20.5873 102.785 20.6892 102.996 20.6363C103.56 20.4945 104.13 20.5707 104.697 20.5427C104.768 20.5396 104.837 20.4866 104.899 20.46Z" fill="white"/>
<path fill-rule="evenodd" clip-rule="evenodd" d="M55.4949 62.9954C55.4004 63.2163 55.2606 63.4131 55.183 63.65C55.0949 63.9172 54.94 64.175 54.7692 64.4048C54.4962 64.7718 54.2213 65.149 53.8838 65.4554C53.3751 65.9198 52.8161 66.3304 52.3106 66.802C52.1316 66.969 51.9133 67.1093 51.6886 67.2144C51.295 67.3979 51.0041 67.7105 50.657 67.9519C50.4232 68.1144 50.1889 68.2422 49.9213 68.3429C49.6204 68.4555 49.3276 68.594 49.0632 68.7962C48.6733 69.0955 48.2664 69.3765 47.77 69.5101C47.5818 69.5613 47.4215 69.7056 47.2421 69.7933C46.9799 69.9211 46.711 70.0365 46.4023 70.1772C46.2717 70.1634 46.0538 70.2672 45.8922 70.0098C45.9273 69.5938 45.9369 69.1333 46.02 68.6867C46.0506 68.5255 46.0954 68.3237 46.215 68.1866C46.342 68.0396 46.3064 67.9109 46.2639 67.7515C46.2196 67.5867 46.1502 67.3716 46.2205 67.2474C46.3447 67.0252 46.2945 66.8123 46.3 66.5972C46.3077 66.2837 46.2945 65.9737 46.4653 65.6874C46.5018 65.6255 46.4963 65.5369 46.5032 65.4603C46.5251 65.2127 46.4584 64.9615 46.5936 64.7166C46.6443 64.6257 46.5776 64.473 46.5635 64.3487C46.5447 64.1937 46.4808 64.0308 46.5128 63.8869C46.5826 63.5805 46.7014 63.2839 46.8092 62.9544C46.7845 62.9228 46.747 62.8742 46.7069 62.823C46.8932 62.3853 46.732 61.8687 47.0151 61.4225C46.7215 61.0622 47.0201 60.6828 47.0064 60.3034C47.2626 59.9484 47.6718 59.8776 48.0581 59.8687C49.2893 59.8411 50.5223 59.8518 51.753 59.8647C51.9672 59.8669 52.1891 59.9279 52.3905 60.005C52.6791 60.1168 52.9695 60.1675 53.2769 60.1524C53.4203 60.1457 53.5513 60.1564 53.6888 60.2423C54.0806 60.4859 54.4975 60.6926 54.8903 60.9348C55.067 61.0435 55.2401 61.1842 55.3574 61.3494C55.4374 61.4621 55.5122 61.6042 55.5027 61.7783C55.4789 62.1826 55.4949 62.5888 55.4949 62.9954ZM59.8884 61.6068C59.888 61.5147 59.8871 61.4109 59.8469 61.3325C59.7213 61.0894 59.6715 60.8373 59.6889 60.567C59.693 60.5055 59.6985 60.4329 59.6715 60.3804C59.3875 59.8108 59.1856 59.2034 58.766 58.6975C58.6139 58.5149 58.4349 58.3484 58.3043 58.1546C58.07 57.8077 57.8303 57.4889 57.3704 57.4216C57.343 57.4181 57.3138 57.394 57.2923 57.3731C56.9663 57.0427 56.5128 56.9376 56.1105 56.7456C55.6269 56.5149 55.1277 56.3136 54.6359 56.0999C54.4327 56.038 54.2112 56.0905 53.9911 55.9716C53.834 55.8884 53.6262 55.8857 53.4385 55.8674C53.0371 55.8269 52.6344 55.8006 52.232 55.7654C52.1877 55.7623 52.1448 55.7374 52.1014 55.7218C51.6685 55.5615 51.1995 55.5909 50.7579 55.4769C50.6958 55.4608 50.5949 55.4475 50.5634 55.4795C50.4109 55.6403 50.2223 55.5655 50.0505 55.5686C49.6345 55.5793 49.2181 55.5695 48.802 55.574C48.6933 55.5753 48.5897 55.5918 48.4769 55.6278C48.2198 55.7125 47.9408 55.7156 47.7024 55.5815C47.2882 55.7084 46.9096 55.9084 46.4616 55.8714C46.3082 55.8581 46.1502 55.8759 45.9862 55.9124C45.5743 56.0046 45.1775 56.1894 44.7386 56.16C44.6633 56.1551 44.5852 56.1854 44.5085 56.2037C43.8988 56.3484 43.5431 56.7955 43.2253 57.2671C42.9051 57.7432 42.9147 58.3145 42.8097 58.8516C42.7649 59.0787 42.8485 59.308 42.7234 59.5485C42.6229 59.7422 42.7211 59.9988 42.6266 60.2379C42.5553 60.4183 42.6494 60.6601 42.6763 60.9371C42.6078 61.0751 42.4316 61.2773 42.427 61.4821C42.4206 61.7716 42.3023 62.0343 42.3074 62.318C42.3128 62.6106 42.2914 62.9036 42.3133 63.1944C42.3343 63.4532 42.2722 63.6985 42.1717 63.9181C42.1124 64.0481 42.0804 64.1795 42.1188 64.2788C42.211 64.5228 42.1585 64.7388 42.1247 64.9829C42.064 65.4278 42.1635 65.8954 41.9092 66.3126C41.9238 66.8047 41.7452 67.2839 41.8041 67.7827C41.8283 67.9808 41.8338 68.1892 41.711 68.3745C41.5794 68.5713 41.6215 68.7976 41.605 69.0153C41.5954 69.152 41.621 69.2825 41.5534 69.4322C41.4543 69.6495 41.4356 69.9087 41.4128 70.1523C41.3735 70.5771 41.4169 70.9997 41.3278 71.4308C41.2374 71.873 41.2698 72.3424 41.2306 72.8006C41.1835 73.3364 41.0333 73.869 41.1095 74.4132C41.1136 74.4457 41.1241 74.4956 41.1082 74.5085C40.9456 74.6336 41.0356 74.8068 41.0086 74.9574C40.9817 75.1074 40.9424 75.2553 40.9104 75.404C40.8757 75.5692 40.831 75.7331 40.8132 75.8997C40.7789 76.211 40.878 76.5356 40.71 76.8331C40.7342 77.3372 40.5999 77.8204 40.5232 78.3129C40.435 78.8758 40.441 79.453 40.4122 80.0234C40.4012 80.2412 40.4419 80.467 40.3099 80.6647C40.1852 80.8491 40.2209 81.0557 40.2095 81.2579C40.1793 81.8283 40.1441 82.3993 40.1113 82.9702C40.1094 83.0027 40.1254 83.0485 40.1085 83.0655C39.8884 83.289 40.0615 83.5794 39.9683 83.8372C39.8797 84.0817 39.8939 84.3756 39.9195 84.6419C39.9478 84.9412 39.9788 85.2569 40.1903 85.5023C40.3396 85.6755 40.5008 85.8474 40.6858 85.9815C40.9401 86.1658 41.242 86.3564 41.5566 86.2367C41.7393 86.1672 41.905 86.1534 42.0722 86.169C42.3078 86.1908 42.522 86.1231 42.7275 86.0545C42.9321 85.9842 43.1056 85.8523 43.3472 85.8577C43.4504 85.8595 43.5636 85.7437 43.66 85.6675C43.7883 85.566 43.9043 85.4498 44.0253 85.3402L43.971 85.3068C44.0454 85.142 44.1194 84.9773 44.2066 84.784C44.2066 84.7377 44.1783 84.6424 44.2112 84.5769C44.4167 84.1668 44.234 83.713 44.3897 83.2859C44.487 83.0196 44.3834 82.6985 44.498 82.4042C44.5747 82.206 44.5866 81.9802 44.6026 81.766C44.619 81.5393 44.619 81.3104 44.6026 81.0846C44.5861 80.8437 44.6135 80.6028 44.7181 80.3997C44.798 80.2448 44.8003 80.1018 44.8058 79.9468C44.8085 79.8658 44.7711 79.758 44.8122 79.709C44.9779 79.5055 44.8341 79.2588 44.9172 79.0673C45.0195 78.8335 44.9971 78.6055 45.0049 78.3726C45.0094 78.243 45.0081 78.113 45.0053 77.9829C44.9971 77.6547 45.1428 77.424 45.4611 77.2682C45.7734 77.6507 46.0374 78.0551 46.3822 78.3766C46.7749 78.7409 47.0192 79.208 47.3818 79.5928C47.6471 79.8756 47.8481 80.2247 48.1385 80.4973C48.2221 80.5761 48.339 80.6442 48.3796 80.7409C48.5107 81.0557 48.8134 81.2125 49.0253 81.4525C49.0929 81.53 49.2441 81.5487 49.2911 81.6311C49.5482 82.0759 49.956 82.3881 50.3332 82.711C50.6374 82.9711 51.0073 83.1501 51.2347 83.5055C51.3425 83.6725 51.5196 83.7954 51.7128 83.8938C52.0005 84.0399 52.3087 84.1654 52.4544 84.4981C52.5069 84.6197 52.6522 84.7119 52.7709 84.7947C53.0394 84.9799 53.3075 85.1701 53.5947 85.3233C53.8705 85.4702 54.0692 85.7276 54.3857 85.8127C54.6601 85.888 54.9163 85.9966 55.1163 86.2175C55.1889 86.2977 55.3437 86.3591 55.452 86.3475C56.0593 86.2879 56.6498 86.4945 57.1827 86.4549C57.3366 86.3671 57.4371 86.3195 57.5248 86.2571C57.7051 86.128 57.8846 85.998 58.0527 85.855C58.3139 85.6332 58.3732 85.3153 58.2623 85.0387C58.1915 84.8628 58.2408 84.6963 58.1874 84.5649C58.1148 84.4504 58.0609 84.3565 57.9997 84.2692C57.6312 83.7526 57.1859 83.2877 56.8918 82.7208C56.8626 82.6656 56.8165 82.5983 56.7626 82.5814C56.358 82.4478 56.1904 82.0434 55.8342 81.8355C55.488 81.6324 55.2341 81.2801 54.94 80.9929C54.846 80.9003 54.7656 80.7867 54.6551 80.7213C54.2377 80.4745 53.9336 80.0956 53.5408 79.8212C53.4869 79.7838 53.4057 79.7304 53.4057 79.6845C53.4061 79.4583 53.139 79.4258 53.0878 79.2245C53.0371 79.0281 52.8024 79.0139 52.6357 78.9346C52.5649 78.9016 52.5152 78.8246 52.4572 78.7658C52.2188 78.5289 51.9763 78.2982 51.7781 78.0212C51.6744 77.8756 51.5256 77.7518 51.3424 77.6561C51.1739 77.5683 51.073 77.3555 50.9456 77.1942C50.762 76.9609 50.6004 76.7084 50.3962 76.4933C50.0579 76.1393 49.7254 75.7874 49.5277 75.3332C49.4852 75.2357 49.3701 75.1689 49.2856 75.0892C49.1116 74.9271 48.9568 74.7605 48.8888 74.5187C48.8545 74.3927 48.7253 74.2947 48.6541 74.1754C48.6153 74.1121 48.6089 74.0306 48.5897 73.9612C48.7783 73.7496 48.9742 73.5898 49.2423 73.4864C49.556 73.3675 49.8674 73.205 50.1305 73.0015C50.4296 72.769 50.805 72.6746 51.0917 72.4297C51.1671 72.366 51.295 72.3299 51.3959 72.3348C51.5562 72.3424 51.6722 72.256 51.7836 72.1856C51.9845 72.0592 52.1594 71.8926 52.3467 71.7452C52.4339 71.6771 52.5197 71.6063 52.6133 71.5497C53.2371 71.177 53.8637 70.8091 54.487 70.4355C54.687 70.3157 54.9104 70.2133 55.0697 70.0525C55.4784 69.641 56.0292 69.4001 56.405 68.9561C56.8274 68.7971 56.9284 68.326 57.2814 68.1006C57.448 67.6905 57.7791 67.4059 58.0979 67.1182C58.3148 66.9218 58.4696 66.6974 58.5911 66.4382C58.713 66.1795 58.8605 65.9305 58.9902 65.6745C59.1194 65.4188 59.2829 65.1695 59.3537 64.8978C59.4263 64.6124 59.5583 64.363 59.6679 64.098C59.7999 63.7774 59.8565 63.4153 59.8816 63.0666C59.9163 62.583 59.8921 62.0936 59.8884 61.6068Z" fill="white"/>
</g>
<defs>
<clipPath id="clip0_4_146">
<rect width="135" height="101" fill="white" transform="translate(0.900055 0.459961)"/>
</clipPath>
</defs>
</svg>
